<svg xmlns="http://www.w3.org/2000/svg" xmlns:xlink="http://www.w3.org/1999/xlink" xmlns:inkscape="http://www.inkscape.org/namespaces/inkscape" version="1.1" width="2834.65" height="2834.65" viewBox="0 0 2834.65 2834.65">
<defs>
<clipPath id="clip_1">
<path transform="matrix(1,0,0,-1,0,2834.65)" d="M0 2834.646H2834.646V0H0Z"/>
</clipPath>
</defs>
<g clip-path="url(#clip_1)">
<path transform="matrix(1,0,0,-1,982.6152,604.1655)" d="M0 0 767.189-621.932 1038.552-844.125 564.871-844.627C532.088-844.661 506.131-864.472 493.833-887.915 477.853-918.374 481.885-948.298 500.749-976.706L1012.134-1746.837C1017.512-1754.937 1008.838-1766.919 1005.002-1773.414L945.596-1873.996C927.14-1905.244 895.672-1925.151 860.017-1931.459L743.303-1952.109C734.527-1950.697 726.885-1938.009 720.947-1930.096L146.407-1164.459C130.977-1143.896 111.188-1134.256 87.631-1134.64 64.549-1135.015 46.752-1147.715 31.079-1167.212L-326.376-1611.857-326.599 262.865ZM386.319 148.319C421.744 212.883 498.915 231.296 564.336 199.501 607.939 177.249 646.471 151.834 688.826 126.222L927.761-18.262C959.459-37.43 988.7-57.301 1005.158-92.058 1027.775-139.821 1029.96-198.731 1002.913-248.323L909.2-420.152C858.146-404.348 806.588-411.359 766.67-445.337L278.166-48.797ZM-416.713-1852.278C-392.781-1860.771-354.468-1861.769-336.286-1839.265L87.662-1314.544 643.297-2055.674C672.492-2094.615 720.389-2109.723 767.077-2099.796L881.575-2075.451C953.235-2060.215 1013.969-2017.625 1055.686-1956.847L1132.799-1824.252C1162.378-1773.391 1153.563-1711.586 1120.293-1661.766L666.832-982.712 1225.145-982.054C1257.532-982.016 1280.439-957.551 1286.514-928.855 1291.841-897.954 1282.063-868.109 1257.937-848.348L1006.794-642.641C1034.979-592.054 1033.24-532.365 1000.852-485.735L1032.627-431.926C1071.364-455.225 1116.663-451.659 1137.152-415.391 1175.789-346.999 1226.189-270.294 1168.91-218.91L1282.35-5.973C1302.629-6.078 1320.609-.878 1332.723 12.622 1357.051 39.73 1350.489 87.526 1321.402 104.266 1306.074 113.087 1287.914 115.481 1270.978 107.664 1234.95 91.037 1225.023 45.183 1251.113 12.998L1141.031-193.12C1138.527-197.808 1137.436-199.805 1133.014-199.608 1129.398-199.446 1126.162-197.495 1126.629-191.53 1139.166-31.384 1074.482 118.952 935.298 202.716L752.39 312.795C610.714 398.058 460.746 375.801 338.838 266.41 317.852 283.882 296.261 295.272 269.744 292.391 248.691 290.104 225.089 277.226 212.025 255.392 194.85 226.689 178.777 196.911 169.02 165.068 156.608 124.562 173.364 84.636 211.413 67.869L187.143 25.086-186.949 327.601-341.531 450.494C-364.411 468.684-395.995 472.136-422.987 457.518-441.204 447.652-464.504 421.962-464.494 392.126L-463.751-1791.955C-463.741-1821.856-437.136-1845.03-416.713-1852.278" fill="#61c1c5"/>
<path transform="matrix(1,0,0,-1,1817.5469,835.2882)" d="M0 0C32.32 5.94 55.133 35.638 48.744 71.535 43.552 100.705 15.103 125.669-20.999 120.233-57.665 114.712-77.852 79.598-70.757 46.809-63.927 15.246-33.537-6.164 0 0" fill="#61c1c5"/>
<path transform="matrix(1,0,0,-1,1491.9133,530.6592)" d="M0 0C-37.322-4.047-59.626-37.978-53.667-71.564-47.653-105.465-13.629-130.834 23.074-119.816 56.663-109.733 72.862-77.198 65.327-47.306 58.279-19.342 31.468 3.413 0 0" fill="#61c1c5"/>
</g>
</svg>
