<svg xmlns="http://www.w3.org/2000/svg" viewBox="246.48 322.37 139.85 139.85">
<g fill="#9fe3e6">
<path transform="matrix(1,0,0,-1,330.2179,376.1615)" d="M0 0C-3.767-3.632-10.589-2.972-12.642 2.141-14.212 6.05-13.732 10.507-11.313 13.583-7.34 16.635-1.667 18.477 1.62 13.262 4.179 9.204 3.451 3.328 0 0M-24.848 0C-28.614-3.632-35.437-2.972-37.49 2.141-39.06 6.05-38.58 10.507-36.16 13.583-32.188 16.635-26.514 18.477-23.227 13.262-20.669 9.204-21.396 3.328-24.848 0M3.224 14.199C.136 19.128-5.312 19.23-9.767 16.93-13.007 15.257-14.682 12.058-15.1 8.586-15.872 8.932-16.72 9.118-17.562 9.081-18.258 9.051-19.263 8.878-19.881 8.379-19.972 10.436-20.534 12.46-21.624 14.199-24.711 19.128-30.16 19.23-34.615 16.93-39.85 14.227-41.008 7.54-39.361 2.152-37.524-3.853-30.021-5.897-24.971-2.475-21.78-.312-20.01 3.487-19.874 7.318-19.176 7.287-18.427 7.59-17.722 7.566-16.746 7.532-15.973 7.176-15.201 6.656-15.187 5.13-14.954 3.595-14.513 2.152-12.677-3.853-5.173-5.897-.124-2.475 5.08 1.051 6.525 8.929 3.224 14.199"/>
<path transform="matrix(1,0,0,-1,302.943,369.0253)" d="M0 0C-.319 .995-1.574 .898-1.929 0-2.404-1.203-2.953-2.704-4.593-2.437-6.039-2.201-6.399-.853-6.717 .343-6.866 .902-7.733 1.066-8.008 .512-9.12-1.732-6.944-4.363-4.712-4.682-2.312-5.024 .842-2.629 0 0"/>
<path transform="matrix(1,0,0,-1,327.7837,369.10133)" d="M0 0C-2.252-2.678-4.807-2.61-7.075 .051-7.667 .745-8.902 .007-8.612-.844-7.089-5.296-.24-5.633 1.783-1.376 2.296-.297 .889 1.058 0 0"/>
<path transform="matrix(1,0,0,-1,307.5087,379.1901)" d="M0 0C-4.264-.971-9.115-4.585-8.303-9.504-8.001-11.333-6.755-12.849-4.995-13.478-3.554-13.994-1.581-13.992-1.017-12.329-.91-12.014-1.141-11.601-1.469-11.533-2.425-11.337-3.315-11.712-4.26-11.353-5.956-10.709-6.457-8.891-5.997-7.248-5.116-4.102-1.903-2.936 .544-1.291 1.205-.846 .799 .182 0 0"/>
<path transform="matrix(1,0,0,-1,317.6702,383.9943)" d="M0 0C-.473 .083-1.041-.424-.698-.908-.17-1.652 .473-2.054 1.135-2.672 1.866-3.353 2.115-3.828 2.158-4.855 2.466-5.587 2.262-6.058 1.543-6.269 1.072-6.734 .499-6.915-.175-6.812-2.388-6.808-4.695-5.506-6.875-6.216-6.985-6.251-7.041-6.4-6.947-6.486-5.496-7.806-3.01-8.145-1.121-8.432 .511-8.681 2.315-8.482 3.444-7.151 5.675-4.522 2.912-.511 0 0"/>
<path transform="matrix(1,0,0,-1,299.4602,388.57063)" d="M0 0C-5.953 .733-11.999-3.792-15.106-8.48-15.657-9.311-14.606-10.146-13.83-9.756-12.324-9-10.779-8.86-9.188-8.433-8.525-8.255-8.491-7.216-9.188-7.057-9.98-6.875-10.76-6.883-11.525-7.008-8.361-3.8-4.416-2.552 .18-1.329 .972-1.118 .713-.088 0 0"/>
<path transform="matrix(1,0,0,-1,289.6949,396.9927)" d="M0 0C.102 .245-.224 .435-.421 .324-3.712-1.518-5.326-6.067-6.025-9.543-6.183-10.328-5.432-10.894-4.719-10.548-4.241-10.315-3.765-10.078-3.288-9.845-3.33-10.351-3.34-10.857-3.274-11.369-3.21-11.862-2.498-12.219-2.219-11.655-1.729-10.666-1.544-9.649-1.348-8.564-1.206-7.778-1.928-7.22-2.65-7.562-3.056-7.755-3.457-7.957-3.861-8.154-3.487-6.815-3.002-5.516-2.367-4.261-1.631-2.806-.626-1.506 0 0"/>
<path transform="matrix(1,0,0,-1,291.6615,417.0974)" d="M0 0C-.923-1.005-1.725-2.122-2.514-3.244-3.434 .745-3.278 4.687-2.169 8.719-1.968 9.449-2.744 9.924-3.361 9.635-4.102 9.288-4.742 8.974-5.41 8.498-5.753 8.253-5.694 7.53-5.165 7.594-4.795 7.638-4.45 7.708-4.105 7.786-5.205 3.404-5.027-1.081-3.689-5.436-3.46-6.181-2.555-6.223-2.133-5.64-1.009-4.086 .221-2.566 1.155-.891 1.551-.181 .581 .633 0 0"/>
<path transform="matrix(1,0,0,-1,306.9835,430.2789)" d="M0 0C-.589-.662-3.768 .007-4.589 .371-5.349 .708-6.044 1.304-6.681 1.82-7.815 2.737-8.767 3.768-9.662 4.918-10.015 5.37-10.897 5.124-10.988 4.568-11.021 4.37-11.052 4.172-11.085 3.974-12.943 6.534-13.565 9.367-14.085 12.585-14.134 12.886-14.598 12.858-14.667 12.585-15.672 8.569-13.808 4.569-11.147 1.612-10.776 1.201-9.953 1.386-9.851 1.954-9.811 2.174-9.772 2.395-9.733 2.615-6.985-.243-1.176-4.915 1.063-.82 1.419-.17 .529 .595 0 0"/>
<path transform="matrix(1,0,0,-1,316.9056,431.1291)" d="M0 0C-.204 .452-.912 .402-1.131 0-2.796-3.059-7.229 1.372-8.435 2.767-8.754 3.135-9.334 2.986-9.569 2.621-10.034 1.9-10.236 1.412-9.719 .712-9.607 .559-9.347 .462-9.199 .645-9.128 .733-9.042 .86-8.953 .994-7.613-.743-5.586-2.072-3.491-2.596-1.796-3.02 .996-2.205 0 0"/>
<path transform="matrix(1,0,0,-1,336.5773,396.6144)" d="M0 0C-3.447 4.843-9.759 8.524-15.851 7.184-16.407 7.062-16.219 6.311-15.726 6.259-11.244 5.789-7.247 4.703-3.99 1.978-4.719 1.991-4.859 .763-4.113 .597-2.986 .468-2.03-.051-1.243-.959-.633-1.585 .532-.748 0 0"/>
<path transform="matrix(1,0,0,-1,335.4015,402.1965)" d="M0 0C-.577 2.154-1.693 4.802-3.64 6.056-4.047 6.317-4.484 5.811-4.274 5.422-3.777 4.497-3.087 3.686-2.586 2.758-2.318 2.26-2.099 1.753-1.916 1.234-2.02 1.252-2.118 1.279-2.234 1.281-2.664 1.289-2.888 .817-2.704 .462-2.349-.223-1.763-.456-1.108-.852-.539-1.197 .168-.628 0 0"/>
<path transform="matrix(1,0,0,-1,333.8469,403.0723)" d="M0 0C-.104 .381-.667 .296-.679-.092-.717-1.357-.665-2.588-.562-3.852-.517-4.353-.471-4.854-.426-5.355-.26-6.157-.396-6.928-.826-7.668-.845-7.607-.859-7.546-.879-7.486-1.168-6.631-2.689-6.7-2.563-7.714-2.553-7.791-2.54-7.866-2.525-7.941-2.527-7.941-2.53-7.942-2.533-7.942-2.511-8.011-2.497-8.077-2.477-8.145-2.465-8.193-2.453-8.242-2.438-8.289-1.261-12.467-2.542-15.811-5.549-18.466-5.555-17.131-5.729-15.867-6.193-14.525-6.426-13.852-7.605-13.899-7.522-14.704-7.326-16.611-7.169-18.38-7.348-20.294-7.415-21.001-6.583-21.289-6.053-21.037-1.572-18.903 .343-14.211-.365-9.609-.13-9.531 .117-9.402 .372-9.202 2.52-7.523 .507-1.855 0 0"/>
<path transform="matrix(1,0,0,-1,325.9599,417.9846)" d="M0 0C-.02 .09-.166 .093-.184 0-.816-3.212-1.953-6.077-4.078-8.375-4.38-7.764-5.232-7.567-5.735-8.285-7.299-10.522-9.347-11.834-11.478-13.461-12.034-13.885-11.742-14.83-10.979-14.644-9.111-14.186-7.535-13.099-6.187-11.757-5.914-12.034-5.516-12.146-5.112-11.848-1.416-9.123 1.029-4.647 0 0"/>
<path transform="matrix(1,0,0,-1,303.9917,399.0481)" d="M0 0C-2.174-.923-3.433-2.916-5.906-3.6-8.475-4.311-10.994-3.91-13.478-3.086-13.679-3.019-13.866-3.315-13.693-3.454-11.463-5.248-8.673-5.96-5.836-5.471-3.41-5.053 .406-3.366 .897-.689 .999-.131 .498 .211 0 0"/>
<path transform="matrix(1,0,0,-1,309.0689,400.6704)" d="M0 0C-1.23-.179-2.234-1.141-3.429-1.512-4.763-1.927-6.109-1.866-7.478-2.002-7.893-2.043-8.162-2.638-7.712-2.865-5.439-4.014-.316-3.385 .643-.642 .789-.224 .357 .052 0 0"/>
<path transform="matrix(1,0,0,-1,320.4012,402.1985)" d="M0 0C-2.162-.258-4.008-.879-6.196-.196-8.418 .497-10.044 2.096-11.323 3.978-11.627 4.426-12.45 4.163-12.25 3.587-10.665-.999-4.009-4.599 .368-1.357 .87-.985 .804 .096 0 0"/>
<path transform="matrix(1,0,0,-1,321.7561,404.9318)" d="M0 0C-.771 .318-1.696 .19-2.509 .445-3.365 .714-4.144 1.169-4.917 1.615-5.249 1.807-5.683 1.413-5.46 1.071-4.454-.467-1.678-2.051 .151-1.156 .697-.889 .451-.186 0 0"/>
<path transform="matrix(1,0,0,-1,312.5079,410.05183)" d="M0 0C-3.048-2.517-6.136-3.485-9.611-1.055-10.088-.721-10.537-1.424-10.199-1.818-7.305-5.187-.862-5 .676-.394 .816 .024 .285 .235 0 0"/>
<path transform="matrix(1,0,0,-1,289.3477,386.473)" d="M0 0C-.279 2.23-.389 4.62-1.263 6.703-1.403 7.038-2.007 7.173-2.086 6.703-2.481 4.346-2.017 1.886-1.762-.471-1.56-2.342-1.798-4.466-.545-5.945-.375-6.145-.003-6.088 .114-5.86 1.015-4.096 .238-1.905 0 0"/>
<path transform="matrix(1,0,0,-1,336.3664,380.0434)" d="M0 0C-2.632-3.666-3.745-10.18-2.807-14.561-2.711-15.011-1.946-15.038-1.871-14.561-1.496-12.185-1.473-9.785-.963-7.42-.449-5.037 .608-2.845 1.183-.499 1.365 .244 .418 .583 0 0"/>
<path transform="matrix(1,0,0,-1,291.878,352.0653)" d="M0 0C.074 .544-.614 .937-.941 .397-3.195-3.327-4.651-8.067-5.824-12.251-6.702-15.382-7.087-18.731-5.22-21.559-4.803-22.191-3.76-21.807-3.97-21.032-6.028-13.405-.991-7.323 0 0"/>
<path transform="matrix(1,0,0,-1,288.4541,385.92433)" d="M0 0C-2.223 2.043-4.537 3.328-5.278 6.542-6.123 10.202-4.375 12.963-2.139 15.643-1.685 16.188-2.249 17.04-2.923 16.66-6.167 14.833-7.745 10.665-7.321 7.062-6.924 3.692-4.321-.665-.701-1.205-.056-1.301 .586-.539 0 0"/>
<path transform="matrix(1,0,0,-1,339.8019,370.4098)" d="M0 0C-.458 .441-1.264 .003-1.082-.63-.207-3.679 1.065-6.058 .137-9.349-.651-12.138-2.549-13.94-4.673-15.747-5.074-16.088-4.646-16.86-4.144-16.657 1.657-14.309 4.911-4.726 0 0"/>
<path transform="matrix(1,0,0,-1,338.9511,367.9096)" d="M0 0C-1.932-2.838-4.095-6.85-3.432-10.406-3.376-10.705-2.923-10.748-2.787-10.49-2.039-9.08-1.707-7.496-1.12-6.017-.403-4.212 .513-2.539 1.626-.95 2.321 .041 .681 1 0 0"/>
<path transform="matrix(1,0,0,-1,341.1722,368.359)" d="M0 0C-10.767 14.623-33.44 24.526-50.904 16.091-51.204 15.947-51.069 15.41-50.73 15.447-41.134 16.501-32.211 17.502-22.858 14.187-14.309 11.158-7.382 5.671-1.767-1.364-.979-2.352 .759-1.031 0 0"/>
<path transform="matrix(1,0,0,-1,352.4735,356.7704)" d="M0 0C-3.998 12.083-13.675 21.656-25.843 25.422-38.119 29.222-52.762 27.438-62.953 19.284-71.435 12.499-75.267-1-66.3-9.1-65.683-9.657-64.812-8.795-65.385-8.184-73.296 .236-69.137 12.466-60.608 18.579-52.307 24.529-40.87 26.192-30.976 24.323-21.148 22.466-12.501 16.899-6.773 8.711-4.097 4.887-2.16 .542-1.145-4.014-.594-6.489-.244-9.066-.384-11.607-.637-16.184-4.082-22.68-9.804-19.728-11.021-19.1-12.1-20.932-10.881-21.57-6.648-23.783-1.918-21.897 .309-17.77 3.123-12.555 1.754-5.302 0 0"/>
<path transform="matrix(1,0,0,-1,341.8144,369.7575)" d="M0 0C-1.08 8.482-4.79 16.853-11.564 22.311-11.84 22.533-12.368 22.23-12.107 21.892-7.002 15.281-3.334 8.399-2.28 0-2.1-1.438 .185-1.453 0 0"/>
<path transform="matrix(1,0,0,-1,291.2852,347.58973)" d="M0 0C-.389 1.069-2.065 .646-1.731-.477-1.299-1.926-1.103-3.385-1.403-4.884-1.632-6.027-2.399-7.095-2.377-8.252-2.372-8.489-2.123-8.73-1.874-8.635-.542-8.129 .023-6.387 .301-5.098 .668-3.394 .598-1.643 0 0"/>
<path transform="matrix(1,0,0,-1,339.877,364.13783)" d="M0 0C-10.229 15.302-32.001 24.785-49.551 16.096-50.113 15.818-49.704 15.008-49.143 15.128-39.816 17.111-31.061 18.158-21.856 14.826-13.615 11.844-6.744 6.147-1.931-1.129-1.14-2.324 .802-1.2 0 0"/>
<path transform="matrix(1,0,0,-1,298.3119,428.0084)" d="M0 0C-.361 .797-1.534 .212-1.358-.573-.783-3.137-.598-5.509-1.31-8.072-1.653-9.308 .313-9.842 .605-8.6 1.279-5.73 1.23-2.714 0 0"/>
<path transform="matrix(1,0,0,-1,319.3597,439.0196)" d="M0 0C-7.655-4.675-14.851-3.012-21.628 2.215-22.185 2.645-23.019 1.796-22.604 1.239-17.074-6.195-6.262-6.838 1.121-1.918 2.301-1.132 1.232 .752 0 0"/>
<path transform="matrix(1,0,0,-1,321.0518,429.7331)" d="M0 0C.196 1.169-1.596 1.667-1.787 .493-2.358-3.015-3.009-7.466-1.672-10.859-1.43-11.473-.644-11.347-.56-10.709-.337-9.03-.574-7.336-.546-5.645-.515-3.749-.314-1.869 0 0"/>
<path transform="matrix(1,0,0,-1,297.8133,430.9057)" d="M0 0C-6.006-1.375-11.443-2.957-17.698-2.955-19.032-2.954-19.035-5.029-17.698-5.029-11.667-5.029-4.812-4.222 .493-1.17 1.135-.8 .698 .16 0 0"/>
<path transform="matrix(1,0,0,-1,332.0907,434.5921)" d="M0 0C-5.843-8.459-15.318-14.045-25.722-14.144-36.728-14.248-45.135-8.338-52.081-.399-52.52 .103-53.259-.536-52.971-1.085-41.739-22.443-10.261-19.582 1.766-1.032 2.488 .082 .74 1.072 0 0"/>
<path transform="matrix(1,0,0,-1,332.7985,434.3951)" d="M0 0C-3.16 2.921-8.244 3.718-12.383 3.914-13.874 3.984-13.883 1.621-12.383 1.589-8.112 1.499-4.574-.017-.479-.824-.028-.913 .387-.358 0 0"/>
<path transform="matrix(1,0,0,-1,302.6648,354.69453)" d="M0 0C-2.07 1.622-5.843 .434-7.771-.98-9.084-1.943-7.986-3.782-6.507-3.142-5.522-2.716-4.505-2.355-3.438-2.203-2.468-2.066-1.422-2.326-.513-1.944 .183-1.651 .776-.608 0 0"/>
<path transform="matrix(1,0,0,-1,326.1649,356.1755)" d="M0 0C-.943 .861-2.382 .781-3.598 .672-4.931 .553-6.149 .234-7.329-.398-8.462-1.006-7.687-2.826-6.456-2.469-5.458-2.18-4.435-1.896-3.394-1.837-2.432-1.782-1.369-2.133-.469-1.776 .223-1.501 .646-.59 0 0"/>
<path transform="matrix(1,0,0,-1,302.4659,422.923)" d="M0 0C-.779 .585-1.514 1.342-2.017 2.178-2.532 3.034-2.66 3.966-3.033 4.866-3.286 5.476-4.292 5.663-4.467 4.866-5.019 2.362-3.013-.441-.95-1.625 .129-2.244 .944-.709 0 0"/>
<path transform="matrix(1,0,0,-1,313.3426,419.8049)" d="M0 0C-.22 .892-1.509 .503-1.356-.374-1.198-1.279-1.271-2.147-1.528-3.027-1.74-3.756-2.151-4.387-2.218-5.149-2.259-5.618-1.697-5.844-1.336-5.655 .468-4.711 .413-1.675 0 0"/>
<path transform="matrix(1,0,0,-1,321.3785,414.94453)" d="M0 0C-.094 .352-.712 .406-.768 0-.899-.95-1.119-1.923-1.462-2.822-1.805-3.724-2.562-4.498-2.761-5.434-2.886-6.023-2.319-6.416-1.797-6.175-.797-5.714-.315-4.398-.022-3.4 .313-2.258 .303-1.138 0 0"/>
<path transform="matrix(1,0,0,-1,329.8472,401.5696)" d="M0 0C-1.247-1.344-2.214-2.828-4-3.518-4.469-3.7-4.296-4.416-3.788-4.287-1.821-3.788 .329-2.415 .533-.221 .559 .051 .175 .189 0 0"/>
<path transform="matrix(1,0,0,-1,295.9684,414.8132)" d="M0 0C-.41 .826-1.043 1.515-1.445 2.348-1.837 3.162-1.899 4.091-2.299 4.881-2.418 5.115-2.785 5.105-2.906 4.881-3.883 3.075-2.39-.056-.547-.712-.118-.864 .173-.348 0 0"/>
</g>
</svg>
