<svg xmlns="http://www.w3.org/2000/svg" viewBox="124.50 188.82 130.18 130.18">
<g fill="#9fe3e6">
<path transform="matrix(1,0,0,-1,168.7737,251.7559)" d="M0 0C-4.23 3.718-5.95 6.946-5.909 12.622-5.906 13.032-6.433 13.04-6.572 12.711-7.755 9.905-7.445 6.81-6.181 4.067-4.317 .022 1.438-1.913 1.159-6.752 1.1-7.767 2.529-7.84 2.838-6.979 3.859-4.133 2.084-1.832 0 0"/>
<path transform="matrix(1,0,0,-1,167.1333,269.7875)" d="M0 0C-3.403 6.331 2.61 14.232-1.789 20.239-2.01 20.542-2.435 20.357-2.379 19.99-1.744 15.779-2.22 12.183-2.788 8.041-3.139 5.479-3.316 2.85-2.456 .367-.447-5.436 7.523-6.333 8.446-12.636 8.601-13.693 10.409-13.453 10.323-12.382 9.8-5.898 2.712-5.045 0 0"/>
<path transform="matrix(1,0,0,-1,206.6131,272.1352)" d="M0 0C-1.095-3.334-1.025-11.981-5.328-13.108-8.344-13.898-12.417-13.198-15.506-13.173-18.445-13.149-23.288-13.926-26.089-12.7-29.779-11.085-29.414-2.859-30.243 .318-30.376 .829-31.158 .72-31.16 .193-31.171-3.617-31.581-11.316-28.086-13.977-24.969-16.35-19.075-15.385-15.506-15.406-12.165-15.426-5.466-16.739-2.586-14.443-.989-13.17-.903-10.971-.533-9.103 .056-6.13 .733-3.154 .945-.128 .985 .435 .162 .495 0 0"/>
<path transform="matrix(1,0,0,-1,215.8723,254.439)" d="M0 0C.072 .503-.548 .834-.853 .36-3.571-3.864-.701-8.572-.785-13.135-.902-19.505-7.497-21.413-10.422-26.135-10.705-26.591-10.099-26.952-9.734-26.666-6.352-24.021-1.674-21.174 .134-17.11 2.486-11.822-.789-5.523 0 0"/>
<path transform="matrix(1,0,0,-1,218.2261,241.79459)" d="M0 0C-.139 .395-.704 .423-.831 0-2.243-4.691-.962-8.893-5.133-12.599-7.476-14.681-10.014-16.161-10.517-19.491-10.562-19.785-10.187-19.887-10.074-19.613-8.287-15.28-3.029-14.299-.929-10.12 .517-7.242 1.069-3.04 0 0"/>
<path transform="matrix(1,0,0,-1,188.0904,234.30469)" d="M0 0C-.212 .44-.832 .186-.857-.232-1.148-5.244-15.097-1.102-18.227-.59-21.025-.133-24.816-.467-24.568 3.476-24.406 6.062-22.351 8.927-21.777 11.523-21.704 11.853-22.145 12.054-22.329 11.756-23.857 9.272-25.251 6.203-26.164 3.472-26.581 2.223-27.066 1.19-26.431-.108-24.982-3.073-18.831-2.828-16.191-3.269-12.988-3.803 4.13-8.603 0 0"/>
<path transform="matrix(1,0,0,-1,216.3516,226.45859)" d="M0 0C-.326 .281-.994 .021-.804-.468 .06-2.699 2.193-5.495 1.514-7.879 .46-11.58-5.141-10.89-8.215-10.796-10.568-10.724-20.331-11.569-20.844-9.027-20.872-8.891-21.032-8.853-21.14-8.906L-21.249-8.961C-21.287-8.98-21.303-9.009-21.318-9.039-21.368-8.977-21.418-8.916-21.467-8.854-21.881-8.83-22.155-9.205-22.188-9.575-22.379-11.699-20.753-11.981-19.011-12.282-16.164-12.772-12.903-12.355-10.014-12.34-7.193-12.326-4.078-12.714-1.276-12.317 5.575-11.346 3.944-3.393 0 0"/>
<path transform="matrix(1,0,0,-1,185.8142,243.3404)" d="M0 0C-.021 .369-.561 .585-.75 .203-1.706-1.726-2.047-3.964-2.503-6.084-4.49-5.976-6.466-7.33-6.664-9.468-6.893-11.929-4.462-14.086-2.097-13.316-1.529-13.131-1.422-12.183-2.097-12.055-3.462-11.795-3.682-11.666-4.177-10.237-4.927-9.396-4.863-8.791-3.987-8.422-3.501-7.823-2.863-7.642-2.073-7.877-1.654-7.952-1.107-7.768-1.022-7.281-.612-4.907 .137-2.418 0 0"/>
<path transform="matrix(1,0,0,-1,199.3539,251.4356)" d="M0 0C-1.136 .908-2.247 1.52-3.604 1.864-3.644 4.224-3.567 6.646-4.02 8.956-4.114 9.433-4.901 9.439-4.99 8.956-5.454 6.421-5.283 3.753-5.327 1.181-5.334 .794-5.052 .451-4.689 .343-3.728 .059-2.91-.287-2.125-.817-3.143-1.861-4.297-2.738-5.239-3.868-5.601-4.302-5.251-4.845-4.715-4.769-2.637-4.471-1.241-2.985 0-1.382 .294-1.002 .452-.361 0 0"/>
<path transform="matrix(1,0,0,-1,194.7217,254.7651)" d="M0 0C-.139 .501-.844 .738-1.213 .32-2.371-.993-2.561-2.586-4.528-3.133-6.698-3.736-8.266-2.27-9.456-.678-9.915-.065-10.803-.425-10.678-1.193-10.251-3.811-7.294-5.433-4.793-5.142-2.566-4.883 .715-2.572 0 0"/>
<path transform="matrix(1,0,0,-1,183.8116,241.1102)" d="M0 0C-1.297-1.062-2.154-2.427-3.602-3.369-5.015-4.29-6.567-4.817-8.133-5.409-8.494-5.545-8.455-6.087-8.039-6.1-4.789-6.203-.113-3.802 1.069-.622 1.314 .039 .439 .359 0 0"/>
<path transform="matrix(1,0,0,-1,200.8774,245.0635)" d="M0 0C-.769 .716-1.62 1.327-2.356 2.083-3.081 2.828-3.567 3.819-4.316 4.517-4.64 4.819-5.098 4.513-5.024 4.104-4.841 3.085-3.981 2.088-3.323 1.319-2.584 .456-1.694-.38-.644-.835-.133-1.056 .48-.447 0 0"/>
<path transform="matrix(1,0,0,-1,173.401,237.31381)" d="M0 0C-.155 1.948-2.876 1.951-3.031 0-3.152-1.515-3.046-3.073-3.039-4.593-3.029-6.552-.003-6.556 .007-4.593 .015-3.073 .12-1.514 0 0"/>
<path transform="matrix(1,0,0,-1,207.9742,239.11179)" d="M0 0C-.203 1.875-3.071 1.972-3.003 0-2.955-1.396-2.813-2.793-2.711-4.185-2.571-6.109 .442-6.128 .306-4.185 .209-2.792 .151-1.389 0 0"/>
<path transform="matrix(1,0,0,-1,180.8705,263.9756)" d="M0 0C-.484-.285-.811-.835-1.156-1.271-1.508-1.715-1.891-2.146-2.171-2.638-2.45-3.127-1.846-3.865-1.336-3.474-.886-3.128-.508-2.721-.115-2.313 .263-1.921 .797-1.514 1.011-1.011 1.279-.378 .699 .412 0 0"/>
<path transform="matrix(1,0,0,-1,198.6116,264.02003)" d="M0 0C-5.4 .75-11.252 1.475-16.663 .496-17.475 .349-17.205-.8-16.479-.859-11.063-1.298-5.65-1.012-.225-1.665 .714-1.778 .946-.131 0 0"/>
<path transform="matrix(1,0,0,-1,199.912,266.6117)" d="M0 0C-.385 .693-.67 1.358-1.49 1.534-1.55 1.547-1.632 1.526-1.66 1.464-2.011 .696-1.682 .111-1.352-.627-1.02-1.37-.765-2.213-.09-2.703 .324-3.003 .874-2.595 .883-2.145 .897-1.378 .363-.653 0 0"/>
<path transform="matrix(1,0,0,-1,190.966,281.1705)" d="M0 0C.053 1.902 .113 3.803 .051 5.706 .013 6.849-1.565 6.796-1.688 5.706-1.901 3.81-1.993 1.905-2.091 0-2.172-1.568-2.506-3.106-1.857-4.561-1.626-5.08-.817-5.017-.567-4.561 .193-3.176-.043-1.55 0 0"/>
<path transform="matrix(1,0,0,-1,166.899,255.6324)" d="M0 0C-2.575 1.142-4.669 2.861-6.131 5.293-6.801 6.407-7.311 7.608-7.616 8.874-7.82 9.684-7.934 10.507-7.957 11.344-8.198 12.706-7.456 13.583-5.731 13.973-5.281 13.442-4.627 14.042-4.699 14.575-4.89 15.988-6.228 16.642-7.588 16.219-9.58 15.601-9.903 13.102-9.875 11.344-9.783 5.682-6.06 .594-.972-1.662 .151-2.16 1.131-.502 0 0"/>
<path transform="matrix(1,0,0,-1,218.1871,242.0535)" d="M0 0C-1.247-.097-1.254-2.057 0-1.954 .542-1.909 1.09-1.85 1.634-1.859 3-1.883 4.637-2.996 5.002-4.41 5.367-5.829 3.812-8.169 3.102-9.297 1.477-11.88-.734-13.65-2.931-15.693-3.548-16.267-2.765-17.128-2.078-16.799 1.904-14.895 6.092-9.951 6.815-5.499 7.546-.997 3.739 .292 0 0"/>
<path transform="matrix(1,0,0,-1,162.3414,233.22699)" d="M0 0C-.256-1.288-.421-2.604-.569-3.909-.706-5.117-1.097-6.523-.655-7.682-.592-7.847-.348-7.972-.211-7.8 .544-6.847 .602-5.557 .834-4.388 1.109-3.004 1.367-1.609 1.524-.206 1.621 .659 .17 .854 0 0"/>
<path transform="matrix(1,0,0,-1,219.1207,241.7396)" d="M0 0C-.169 .813-.274 1.614-.234 2.446-.2 3.167-.063 3.848-.169 4.568-.223 4.936-.755 5.031-.985 4.784-2.238 3.44-1.827 1.039-1.116-.471-.807-1.127 .133-.643 0 0"/>
<path transform="matrix(1,0,0,-1,165.7566,216.69669)" d="M0 0C-.129 .429-.71 .505-.945 .123-1.765-1.21-1.684-3.021-1.867-4.55-2.065-6.194-2.652-8.201-2.023-9.774-1.927-10.014-1.651-10.049-1.498-9.843-.488-8.485-.54-6.398-.309-4.761-.094-3.235 .451-1.501 0 0"/>
<path transform="matrix(1,0,0,-1,182.2762,220.7637)" d="M0 0C-.502 1.612-.963 3.121-1.839 4.56-2.113 5.011-2.946 4.86-2.896 4.274-2.782 2.939-2.442 1.727-2.035 .486-7.473-.15-11.315 2.47-15.78 5.353-16.043 5.523-16.307 5.197-16.183 4.95-13.485-.425-6.002-1.85-.621-1.094-.155-1.029 .129-.413 0 0"/>
<path transform="matrix(1,0,0,-1,199.2276,218.78171)" d="M0 0C-2.675 .801-5.167 1.671-7.557 3.155-8.287 3.609-8.986 2.606-8.444 2.006-7.79 1.28-7.133 .556-6.477-.168-10.686 .181-14.631 1.568-18.323 3.694-18.771 3.953-19.131 3.302-18.722 3.012-14.502 .02-9.968-1.329-4.833-1.645-4.187-1.685-3.976-.88-4.341-.459-4.528-.244-4.717-.032-4.904 .183-3.391-.428-1.817-.851-.136-1.002 .453-1.055 .533-.16 0 0"/>
<path transform="matrix(1,0,0,-1,205.1674,219.1167)" d="M0 0C-.437 1.096-.964 2.157-1.462 3.227-1.95 4.277-2.336 5.437-3.159 6.273-3.512 6.633-4.302 6.391-4.238 5.827-4.113 4.73-3.569 3.808-3.091 2.825-2.679 1.979-2.274 1.125-1.847 .285-2.847 .07-3.877 .056-4.897 .264-5.488 .384-5.683-.404-5.141-.623-3.606-1.241-2.148-1.316-.534-.941-.163-.854 .149-.374 0 0"/>
<path transform="matrix(1,0,0,-1,214.581,216.1614)" d="M0 0C-.068 .56-.717 .771-1.058 .286-1.585-.465-1.497-1.108-1.169-1.942-.954-2.486-.621-2.936-.358-3.452 .356-4.405-.105-4.969-1.74-5.142-2.024-4.989-2.304-4.829-2.58-4.663-5.099-3.17-6.997-.998-9.374 .633-9.672 .837-9.977 .448-9.836 .171-8.947-1.582-7.262-2.969-5.736-4.159-4.43-5.176-2.64-6.697-.94-6.924 .308-7.091 1.321-6.404 1.504-5.142 1.764-3.346 .211-1.735 0 0"/>
<path transform="matrix(1,0,0,-1,218.6059,227.66211)" d="M0 0C-.511 1.299-.833 2.62-.947 4.015-1.04 5.153-.821 6.302-1.071 7.418-1.152 7.782-1.681 7.836-1.858 7.521-3.142 5.24-1.972 1.775-.919-.387-.673-.892 .21-.533 0 0"/>
<path transform="matrix(1,0,0,-1,160.0308,226.9591)" d="M0 0C-.396 3.738-.374 7.633-1.305 11.277-1.434 11.78-2.102 11.619-2.152 11.162-2.614 6.96-1.775 2.475-1.271-1.713-.82-5.465-.437-9.285 .513-12.945 .651-13.476 1.519-13.381 1.486-12.814 1.241-8.526 .452-4.272 0 0"/>
<path transform="matrix(1,0,0,-1,159.5168,205.4202)" d="M0 0C-.358-1.156-.593-2.295-.794-3.469-1.188-3.249-1.612-3.098-2.138-3.012-2.455-2.96-2.888-3.091-2.946-3.47-3.341-6.074-3.186-9.259-1.3-11.295-1.053-11.561-.629-11.281-.711-10.953-1.283-8.679-1.983-6.769-1.752-4.446-1.401-4.578-1.076-4.778-.784-5.066-.461-5.354 .227-5.301 .303-4.779 .531-3.2 .723-1.696 .72-.097 .719 .321 .122 .393 0 0"/>
<path transform="matrix(1,0,0,-1,166.4931,198.5029)" d="M0 0C-2.799-2.022-5.582-4.933-6.453-8.377-6.51-8.601-6.225-8.697-6.099-8.526-4.35-6.153-2.768-3.922-.553-2.07-.639-2.789 .576-2.952 .716-2.241 .815-1.742 .889-1.244 .964-.741 1.038-.247 .52 .376 0 0"/>
<path transform="matrix(1,0,0,-1,172.6829,197.70362)" d="M0 0C-.988-.491-1.689-1.502-2.426-2.3-3.178-3.114-3.962-3.895-4.447-4.903-4.485-4.981-4.408-5.06-4.329-5.021-3.331-4.524-2.559-3.73-1.758-2.969-.971-2.222 .034-1.505 .511-.511 .674-.171 .344 .171 0 0"/>
<path transform="matrix(1,0,0,-1,180.1217,195.948)" d="M0 0C-1.374 .355-2.79-.45-3.867-1.275-5.119-2.235-5.989-3.37-6.503-4.86-6.644-5.269-6.081-5.422-5.86-5.131-5.033-4.044-4.018-3.018-2.858-2.293-1.862-1.671-.735-1.414 .181-.684 .427-.488 .275-.071 0 0"/>
<path transform="matrix(1,0,0,-1,186.6902,193.9371)" d="M0 0C-2.315 .299-5.35-2.552-5.706-4.752-5.777-5.185-5.246-5.632-4.89-5.228-4.092-4.32-3.542-3.319-2.55-2.578-1.637-1.897-.543-1.536 .351-.846 .738-.547 .363-.047 0 0"/>
<path transform="matrix(1,0,0,-1,191.4497,195.8476)" d="M0 0C-1.784 .269-3.875-1.3-4.844-2.682-5.23-3.232-4.432-3.697-3.987-3.344-3.338-2.828-2.712-2.313-1.977-1.919-1.307-1.559-.488-1.365 .12-.919 .422-.698 .476-.072 0 0"/>
<path transform="matrix(1,0,0,-1,200.7037,196.32392)" d="M0 0C-1.814 .961-4.616-.87-5.874-2.11-6.299-2.528-5.737-3.31-5.221-2.956-4.375-2.375-3.498-1.858-2.52-1.532-1.696-1.258-.706-1.225 0-.695 .225-.525 .293-.155 0 0"/>
<path transform="matrix(1,0,0,-1,206.1032,197.8276)" d="M0 0C-1.962 1.248-4.848-.335-6.263-1.736-6.643-2.112-6.154-2.76-5.688-2.48-4.863-1.984-3.838-1.594-2.894-1.387-1.982-1.187-1.014-1.336-.134-1.024 .321-.863 .422-.268 0 0"/>
<path transform="matrix(1,0,0,-1,212.4199,201.8783)" d="M0 0C-1.57 1.19-4.064 .366-5.484-.689-6.065-1.12-5.569-2.044-4.904-1.681-4.168-1.279-3.327-.999-2.486-.929-1.736-.867-1-1.012-.25-.924 .254-.864 .404-.306 0 0"/>
<path transform="matrix(1,0,0,-1,218.4873,206.8982)" d="M0 0C-.999 .888-2.529 1.179-3.834 1.297-4.383 1.347-4.583 .512-4.113 .266-2.945-.343-1.507-.901-.184-.696 .124-.649 .219-.194 0 0"/>
<path transform="matrix(1,0,0,-1,219.5778,210.40522)" d="M0 0C-.474 .001-.581-.712-.113-.832 .525-.997 1.162-1.306 1.646-1.759 2.104-2.188 2.364-2.842 2.85-3.222 3.094-3.413 3.598-3.412 3.654-3.009 3.904-1.206 1.494-.001 0 0"/>
<path transform="matrix(1,0,0,-1,220.3618,218.8978)" d="M0 0C-.172 .868-.375 1.708-.624 2.556-.751 2.988-1.448 2.921-1.429 2.447-1.393 1.567-1.314 .711-1.202-.163-1.113-.856-1.113-1.561-.617-2.088-.447-2.269-.073-2.247 .038-2.004 .34-1.339 .139-.698 0 0"/>
<path transform="matrix(1,0,0,-1,221.4292,221.9403)" d="M0 0C-.364 .479-.748 .97-1.232 1.331-1.604 1.607-2.133 1.149-2.003 .738-1.819 .16-1.458-.374-1.121-.875-.792-1.365-.472-1.956 .119-2.142 .48-2.256 .828-1.951 .837-1.595 .852-.979 .353-.465 0 0"/>
<path transform="matrix(1,0,0,-1,222.6477,226.1976)" d="M0 0C-.128 .589-1.064 .589-1.191 0-1.333-.654-1.38-1.378-.946-1.928-.793-2.122-.398-2.121-.245-1.928 .188-1.379 .141-.653 0 0"/>
<path transform="matrix(1,0,0,-1,222.0007,226.11969)" d="M0 0C-.821-1.536-1.135-3.307-1.58-4.982-2.027-6.668-2.666-8.363-2.561-10.124-2.534-10.569-1.964-10.743-1.718-10.352-.779-8.862-.524-7.079-.107-5.388 .309-3.704 .892-1.991 .91-.247 .915 .228 .231 .431 0 0"/>
<path transform="matrix(1,0,0,-1,172.9372,216.47769)" d="M0 0C-1.225 1.364-2.826 2.333-4.058 3.714-4.739 4.478-5.299 5.322-5.881 6.159-6.213 6.637-6.419 7.094-7.029 7.177-7.079 7.184-7.123 7.172-7.151 7.128-7.919 5.921-5.945 3.72-5.247 2.851-4.047 1.358-2.396-.343-.475-.816 .01-.936 .324-.361 0 0"/>
<path transform="matrix(1,0,0,-1,175.0705,202.0198)" d="M0 0C-1.311-.096-2.479-1.327-3.258-2.302-4.092-3.347-4.748-4.604-4.779-5.964-4.791-6.488-4.091-6.635-3.829-6.222-3.188-5.212-2.676-4.144-1.873-3.241-1.136-2.413-.055-1.904 .589-1.027 .889-.618 .488 .036 0 0"/>
<path transform="matrix(1,0,0,-1,184.4661,202.1929)" d="M0 0C-2.044-.562-4.002-2.094-5.809-3.176-6.454-3.562-5.883-4.53-5.221-4.181-3.357-3.197-1.041-2.32 .503-.864 .883-.506 .489 .134 0 0"/>
<path transform="matrix(1,0,0,-1,178.8165,212.8287)" d="M0 0C-.713 1.102-1.902 1.809-2.941 2.56-3.194 2.742-3.462 2.354-3.263 2.142-2.402 1.225-1.565 .152-.403-.403-.157-.521 .173-.267 0 0"/>
<path transform="matrix(1,0,0,-1,186.5141,211.3978)" d="M0 0C-.304 .326-.711 .556-1.075 .809-1.409 1.04-1.731 .49-1.394 .263-1.024 .013-.668-.266-.252-.432 .004-.534 .161-.173 0 0"/>
<path transform="matrix(1,0,0,-1,195.7106,202.8439)" d="M0 0C-2.363 .603-4.906-1.384-6.22-3.137-6.552-3.579-5.861-4.039-5.487-3.702-4.654-2.951-3.689-2.357-2.651-1.937-1.743-1.569-.747-1.47 .139-1.064 .604-.85 .457-.117 0 0"/>
<path transform="matrix(1,0,0,-1,196.7005,213.9241)" d="M0 0C-.233 .638-.852 1.087-1.347 1.531-1.899 2.027-2.467 2.505-3.015 3.003-3.427 3.378-3.995 2.807-3.625 2.394-3.131 1.841-2.657 1.269-2.166 .713-1.724 .212-1.282-.406-.645-.645-.282-.781 .132-.36 0 0"/>
<path transform="matrix(1,0,0,-1,203.5005,208.87812)" d="M0 0C-.108 .128-.215 .256-.323 .384-.562 .668-1.013 .217-.729-.022-.601-.13-.473-.238-.345-.345-.104-.548 .203-.241 0 0"/>
<path transform="matrix(1,0,0,-1,211.4534,212.18439)" d="M0 0C-.059 0-.059-.092 0-.092 .059-.092 .059 0 0 0"/>
<path transform="matrix(1,0,0,-1,167.7105,271.8689)" d="M0 0C-.067 .141-.247 .1-.322 0-1.591-1.663-1.395-4.024-1.629-6.053-1.942-8.758-2.314-11.464-2.528-14.179-2.618-15.316-.934-15.256-.79-14.179-.429-11.482-.224-8.761 .039-6.053 .235-4.042 .885-1.87 0 0"/>
<path transform="matrix(1,0,0,-1,212.7174,276.11329)" d="M0 0C.003 .413-.554 .548-.763 .207-1.705-1.333-1.938-3.327-2.106-5.101-2.253-6.651-2.614-8.656-1.52-9.891-1.343-10.091-.991-10.03-.866-9.806-.151-8.524-.641-6.883-.595-5.447-.535-3.612-.014-1.82 0 0"/>
<path transform="matrix(1,0,0,-1,166.4536,284.8885)" d="M0 0C-1.689-.272-3.394-.599-5.048-1.041-6.279-1.371-5.758-3.278-4.521-2.953-2.866-2.518-1.226-1.958 .374-1.358 1.23-1.037 .894 .144 0 0"/>
<path transform="matrix(1,0,0,-1,214.578,288.1369)" d="M0 0C-5.511-8.988-16.75-10.516-26.626-9.81-36.916-9.074-45.288-4.823-53.775 .671-54.378 1.062-55.028 .187-54.533-.31-46.764-8.098-34.552-11.792-23.768-11.963-16.129-12.085-.075-10.462 1.379-.581 1.497 .223 .479 .781 0 0"/>
<path transform="matrix(1,0,0,-1,214.8462,289.43)" d="M0 0C-.141 .857-.66 1.639-1.081 2.388-1.546 3.215-1.991 4.056-2.491 4.863-3.027 5.727-4.331 4.963-3.853 4.067-3.407 3.23-2.903 2.422-2.421 1.604-1.984 .862-1.572 .03-.9-.524-.472-.877 .089-.542 0 0"/>
<path transform="matrix(1,0,0,-1,183.2933,297.6511)" d="M0 0C-5.259 4.523-7.705 10.417-9.11 17.049-9.224 17.583-10.064 17.459-10.056 16.921-9.949 9.868-6.23 3.509-1.341-1.341-.466-2.209 .919-.79 0 0"/>
<path transform="matrix(1,0,0,-1,197.9285,288.0304)" d="M0 0C-.157 .458-.986 .589-1.067 0-1.305-1.731-1.6-3.217-2.817-4.562-3.376-5.18-4.053-5.708-4.819-6.047-5.518-6.356-6.292-6.423-6.95-6.815-7.474-7.127-7.295-7.809-6.794-8.01-4.96-8.747-2.568-6.981-1.466-5.637-.243-4.145 .656-1.917 0 0"/>
<path transform="matrix(1,0,0,-1,202.1242,290.01649)" d="M0 0C-.844-1.247-1.327-2.791-1.915-4.174-2.34-5.177-3.203-6.395-2.76-7.474-2.642-7.76-2.392-7.868-2.106-7.74-1.043-7.267-.824-5.804-.444-4.794 .086-3.383 .8-1.932 1.05-.443 1.157 .193 .379 .56 0 0"/>
<path transform="matrix(1,0,0,-1,161.2318,286.3519)" d="M0 0C-1.003-.338-1.966-.766-2.999-1.018-4.105-1.287-5.202-1.282-6.332-1.32-7.793-1.371-7.72-3.375-6.332-3.539-3.928-3.824-1.001-3.024 .828-1.422 1.461-.867 .793 .267 0 0"/>
<path transform="matrix(1,0,0,-1,220.7546,292.6709)" d="M0 0C-7.06-11.49-19.993-18.774-33.582-18.19-47.646-17.585-58.62-8.718-65.696 2.856-66.063 3.456-67.154 3.068-66.881 2.356-61.876-10.717-48.039-19.548-34.318-20.494-19.687-21.503-5.607-13.504 1.929-1.128 2.679 .104 .752 1.224 0 0"/>
<path transform="matrix(1,0,0,-1,222.8458,293.1091)" d="M0 0C-1.29 1.029-2.695 1.927-4.066 2.847-5.405 3.745-6.715 4.801-8.26 5.306-9.02 5.554-9.376 4.606-8.967 4.091-8.009 2.886-6.617 2.071-5.382 1.174-4.044 .203-2.712-.826-1.297-1.681-.286-2.292 .97-.773 0 0"/>
</g>
</svg>
