<svg xmlns="http://www.w3.org/2000/svg" viewBox="353.17 327.67 142.80 142.80">
<g fill="#9fe3e6">
<path transform="matrix(1,0,0,-1,449.42,396.33003)" d="M0 0V-.01C-.05-.7-.12-1.38-.2-2.06-.79-7.14-2.1-12.08-4.57-16.54-5.91-18.97-7.62-21.27-9.61-23.26-10.37-24.03-11.17-24.74-12.01-25.41H-12.02C-15.85-28.45-20.48-30.35-25.53-30.21-27.9-30.15-30.07-29.78-32.04-29.14-32.56-28.98-33.07-28.79-33.56-28.59-33.59-28.58-33.63-28.56-33.66-28.55-33.66-28.46-33.66-28.36-33.67-28.27-33.7-27.33-33.73-26.39-33.76-25.45-33.21-25.76-32.65-26.04-32.07-26.3-30.21-27.11-28.22-27.64-26.12-27.78-16.91-28.43-9.21-21.41-5.5-13.53-1.67-5.37-1.73 3.72-1.59 12.58-1.58 13.24-1.57 13.91-1.56 14.57-1.55 15.21-1.53 15.84-1.51 16.48-1.49 17.15-.55 17.16-.48 16.51-.29 14.77-.13 13-.01 11.21 .04 10.45 .08 9.69 .12 8.92 .24 5.96 .23 2.97 0 0"/>
<path transform="matrix(1,0,0,-1,425.7867,383.8499)" d="M0 0C3.113 4.191 12.523 5.98 16.43 1.434 16.731 1.083 16.128 .561 15.58 .81 10.958 2.913 5.155 3.102 2.304-.861 1.541-1.923-.786-1.059 0 0"/>
<path transform="matrix(1,0,0,-1,435.4742,387.323)" d="M0 0C.175-1.848 .697-3.997 .307-5.825-.052-7.513-2.284-7.316-2.842-5.91-3.201-5.003-3.18-3.976-3.251-3.013-3.323-2.04-3.395-1.067-3.467-.094-3.633 2.143-.209 2.207 0 0"/>
<path transform="matrix(1,0,0,-1,439.1289,417.7774)" d="M0 0C.222 .33 .833 .273 .821-.199 .754-2.743-.061-5.244-.301-7.788-.547-10.389-.496-12.971-.22-15.568-.085-16.846-2.094-16.9-2.219-15.623-2.695-10.784-2.829-4.209 0 0"/>
<path transform="matrix(1,0,0,-1,452.0143,384.6764)" d="M0 0C-.361 .677-1.354 .198-1.072-.511 .742-5.081-.268-9.372-3.47-12.989-4.022-13.612-3.012-14.495-2.404-13.958 1.394-10.605 2.363-4.431 0 0"/>
<path transform="matrix(1,0,0,-1,436.94,432.2)" d="M0 0C-.04-.07-.08-.14-.12-.21-4.82-8.33-14.21-7.5-19.53-.98-19.84-.6-20.14-.19-20.42 .23-20.44 .27-20.47 .3-20.5 .33-20.557 .378-20.623 .407-20.69 .433-20.61-.54-20.428-1.515-20.367-2.493-20.113-2.904-19.843-3.295-19.55-3.66-14.38-9.99-3.98-8.86 .87-2.12 1.15-1.75 1.4-1.36 1.63-.95 2.24 .11 .59 1.07 0 0"/>
<path transform="matrix(1,0,0,-1,424.53,358.69)" d="M0 0C-.24-.71-.48-1.41-.7-2.12-.83-2.48-.94-2.84-1.05-3.2-5.45-17.1-7.13-31-7.29-45.7-7.35-51.78-7.25-57.86-7.18-63.94-7.17-64.89-7.16-65.84-7.15-66.78-7.12-69.35-7.1-71.92-7.12-74.49-7.12-75.38-7.12-76.28-7.14-77.17-7.19-82.86-7.4-88.55-7.91-94.23-7.95-94.65-8.35-94.83-8.67-94.75-8.89-94.7-9.06-94.53-9.04-94.23L-9.01-93.84C-8.5-87.67-8.43-81.35-8.54-74.96-8.55-74.74-8.55-74.52-8.56-74.3-8.56-73.88-8.57-73.45-8.59-73.03-8.63-70.76-8.69-68.48-8.77-66.19-8.77-66.1-8.77-66-8.78-65.91-8.81-64.97-8.84-64.03-8.87-63.09-9.61-41.29-10.49-19.16-1.31 .55-.97 1.29 .26 .76 0 0"/>
<path transform="matrix(1,0,0,-1,415.86,453.44)" d="M0 0C-.13-.32-.44-.57-.88-.48-8.88 1.26-16.45 4.03-23.73 7.79-24.44 8.16-24.23 9.01-23.69 9.32-23.45 9.47-23.14 9.5-22.82 9.34-22.75 9.31-22.69 9.27-22.62 9.24-15.57 5.6-8.18 2.87-.48 .97-.43 .96-.38 .94-.34 .91 .05 .75 .13 .34 0 0"/>
<path transform="matrix(1,0,0,-1,438.44,345.51)" d="M0 0C-.05-1.17-1.78-1.17-1.81 0-1.81 .08-1.81 .17-1.82 .25-2.22 9.89-13.01 10.7-20.08 7.78-24.62 5.9-28.59 2.94-31.92-.66-39.12-8.44-42.81-18.65-44.59-28.94-48.55-51.87-46.35-75.62-45.2-98.69-45.19-98.96-45.17-99.22-45.16-99.49-45.13-100.05-46.06-100.18-46.14-99.62-46.19-99.28-46.23-98.95-46.27-98.61-48.22-83.88-48.4-68.74-48.13-53.91-47.89-40.41-47.36-26.25-42.08-13.62-37.98-3.83-30.76 5.3-20.72 9.42-13.08 12.55-.47 11.36-.01 1.19 .02 .8 .02 .41 0 0"/>
<path transform="matrix(1,0,0,-1,449.91,387.19)" d="M0 0C-.11-.11-.24-.19-.37-.22-1.12-.46-1.93 .56-1.25 1.25-.99 1.52-.73 1.79-.5 2.07 4.93 8.29 4.9 16.75 3.24 24.54 1.67 31.94-2.58 45.45-12.92 40.46-13.75 40.06-14.41 41.18-13.64 41.71-13.52 41.79-13.41 41.87-13.29 41.93-12.68 42.34-12.07 42.64-11.48 42.87-4.01 45.77 1.9 36.55 3.76 30.12 6.7 19.95 7.99 8.21 0 0"/>
<path transform="matrix(1,0,0,-1,436.75,362.76)" d="M0 0C-.22-.06-.44-.11-.67-.15-.83-.18-1-.21-1.17-.23-3.07-.44-5.14 0-7.02 .17-9.07 .35-11.28 .3-13.27 .87-13.52 .95-13.77 1.03-14.02 1.13-14.3 1.24-14.37 1.69-14.02 1.77-13.66 1.85-13.29 1.91-12.92 1.95-10.81 2.17-8.57 1.77-6.49 1.63-4.29 1.49-1.91 1.66 .1 .73 .42 .58 .31 .09 0 0"/>
<path transform="matrix(1,0,0,-1,448.12,383.91)" d="M0 0C-.1 .05-.19 .1-.29 .16-7.3 3.93-12.15 13.13-12.54 20.92-12.55 21.09-12.56 21.26-12.56 21.43-12.57 21.65-12.24 21.69-12.18 21.48-12.13 21.32-12.09 21.16-12.04 21-10.95 17.19-9.63 13.45-7.52 10.08-5.49 6.85-2.91 4.65-.26 2.15 .11 1.81 .47 1.46 .84 1.1 1.42 .52 .68-.35 0 0"/>
<path transform="matrix(1,0,0,-1,423.027,404.272)" d="M0 0C-.863 .127-1.502-.461-2.362-.376-3.12-.3-3.635 .252-4.342 .412-4.595 .469-4.954 .336-4.996 .041-5.165-1.156-3.969-2.113-2.912-2.4-1.787-2.705 .362-2.47 .589-1.038 .654-.632 .489-.072 0 0"/>
<path transform="matrix(1,0,0,-1,427.6895,413.8674)" d="M0 0C-1.124 .765-2.747 .723-4.064 .709-5.352 .695-6.975 .731-8.033-.081-8.288-.277-8.249-.618-7.947-.738-6.755-1.212-5.331-.925-4.064-.97-2.775-1.015-1.386-1.376-.134-1.028 .355-.892 .39-.265 0 0"/>
<path transform="matrix(1,0,0,-1,450.6776,397.6887)" d="M0 0C.029 .374-.451 .527-.582 .193-5.115-11.329-5.134-26.999-4.218-39.441-4.124-40.714-2.5-40.74-2.577-39.441-2.972-32.797-3.036-26.184-2.539-19.544-2.045-12.942-.516-6.558 0 0"/>
<path transform="matrix(1,0,0,-1,462.5201,440.8876)" d="M0 0C-9.201 .583-16.261 4.059-24.566 7.549-24.914 7.695-25.173 7.172-24.923 6.935-18.497 .84-8.587-1.44 0-1.984 1.275-2.065 1.27-.08 0 0"/>
<path transform="matrix(1,0,0,-1,462.4671,441.6107)" d="M0 0C-7.688-12.127-18.24-19.307-32.968-19.825-48.054-20.355-62.087-13.97-74.976-6.804-76.102-6.178-77.111-7.903-75.986-8.531-61.539-16.601-45.426-23.576-28.493-21.423-16.651-19.918-2.722-12.672 .671-.283 .783 .125 .221 .349 0 0"/>
<path transform="matrix(1,0,0,-1,392.3159,443.911)" d="M0 0C-1.343-.519-2.462-1.794-3.552-2.719-4.366-3.408-6.087-4.385-6.014-5.599-6.009-5.678-5.961-5.752-5.882-5.773-4.756-6.065-3.623-4.741-2.818-4.099-1.66-3.174-.038-2.237 .75-.976 1.038-.514 .551 .213 0 0"/>
<path transform="matrix(1,0,0,-1,403.739,387.1616)" d="M0 0C-.006 .252-.38 .251-.391 0-1.313-20.739-1.232-41.64-.283-62.378-.235-63.437 1.396-63.449 1.373-62.378 .919-41.587 .507-20.79 0 0"/>
<path transform="matrix(1,0,0,-1,449.9657,381.9338)" d="M0 0C-3.979 6.664-5.733 13.296-7.316 20.795-7.369 21.048-7.729 20.97-7.745 20.736-8.277 13.194-5.473 5.438-1.471-.86-.885-1.781 .565-.947 0 0"/>
<path transform="matrix(1,0,0,-1,449.5416,360.7448)" d="M0 0C-.08 .175-.388 .048-.314-.133 2.966-8.14 2.516-17.059-1.28-24.798-1.709-25.675-.382-26.443 .029-25.563 3.982-17.111 3.862-8.45 0 0"/>
<path transform="matrix(1,0,0,-1,396.4341,406.697)" d="M0 0C-.025 .156-.286 .12-.276-.037 .578-13.411 .992-26.71 .353-40.104 .298-41.258 2.109-41.261 2.149-40.104 2.615-26.719 2.093-13.236 0 0"/>
<path transform="matrix(1,0,0,-1,410.6389,411.2855)" d="M0 0C-.03 .252-.414 .268-.406 0-.009-13.387-.213-26.733-1.709-40.053-1.838-41.196-.026-41.2 .088-40.053 1.412-26.715 1.609-13.324 0 0"/>
<path transform="matrix(1,0,0,-1,439.9582,434.889)" d="M0 0C-6.303-7.503-14.596-8.438-23.708-7.002-24.133-6.935-24.455-7.504-24.021-7.745-15.642-12.399-4.506-8.082 1.249-1.249 1.976-.384 .732 .871 0 0"/>
<path transform="matrix(1,0,0,-1,446.5711,438.6927)" d="M0 0C-3.707-4.309-6.46-8.407-11.968-10.691-18.281-13.31-24.31-12.41-30.638-10.461-31.318-10.252-31.731-11.252-31.119-11.604-20.746-17.577-2.663-12.996 1.123-.654 1.313-.033 .443 .515 0 0"/>
<path transform="matrix(1,0,0,-1,455.098,440.8323)" d="M0 0C-6.325-10.424-15.697-17.156-28.184-17.824-41.196-18.52-53.258-12.245-63.334-4.606-64.168-3.974-65.292-5.415-64.461-6.066-53.5-14.648-39.577-21.295-25.304-19.426-14.63-18.028-2.365-11.368 .671-.283 .782 .121 .216 .356 0 0"/>
</g>
</svg>
