<svg xmlns="http://www.w3.org/2000/svg" viewBox="4.17 326.71 133.13 133.13">
<g fill="#9fe3e6">
<path transform="matrix(1,0,0,-1,95.3774,363.93373)" d="M0 0C-.049 1.245-1.775 1.198-1.901 0-3-10.428-2.776-21.123-3.12-31.603-3.259-35.815-2.226-42.767-4.607-46.473-7.42-50.852-18.669-50.001-23.321-50.276-27.945-50.55-33.962-51.708-38.462-50.314-45.159-48.24-44.517-40.998-44.785-35.258-45.283-24.574-45.422-13.746-46.688-3.121-46.768-2.454-47.732-2.416-47.757-3.121-48-10.062-47.586-17.03-47.354-23.967-47.138-30.4-47.508-37.218-46.448-43.576-44.524-55.111-32.214-53.05-23.321-52.524-18.02-52.21-10.748-52.77-5.836-50.454-2.5-48.881-1.561-45.523-1.255-42.113-.658-35.443-.77-28.639-.548-21.947-.306-14.662 .286-7.284 0 0"/>
<path transform="matrix(1,0,0,-1,75.6479,370.2969)" d="M0 0C-.053 .301-.569 .308-.615 0-1.348-4.873-1.095-9.927-1.078-14.841-1.074-16.065 .848-16.066 .822-14.841 .719-9.925 .854-4.856 0 0"/>
<path transform="matrix(1,0,0,-1,75.9601,384.7503)" d="M0 0C-.519 .443-1.325-.109-.97-.748-.123-2.269 .202-3.834-.513-5.385-2.114-5.344-3.744-5.307-5.332-5.429-6.576-5.525-6.587-7.29-5.332-7.371-3.55-7.487-1.715-7.401 .068-7.333 .4-7.321 .742-7.161 .903-6.855 2.037-4.7 1.953-1.669 0 0"/>
<path transform="matrix(1,0,0,-1,67.4509,391.695)" d="M0 0C-.446 .423-1.007 .7-1.568 .947-1.466 1.634-1.399 2.356-1.698 2.973-1.866 3.318-2.313 3.227-2.501 2.973-2.981 2.322-2.942 1.318-2.974 .542-2.985 .262-2.759-.043-2.482-.104-1.73-.27-.927-.469-.152-.367 .019-.344 .149-.142 0 0"/>
<path transform="matrix(1,0,0,-1,82.6573,399.607)" d="M0 0C-4.008-.263-7.975-.812-11.998-.921-16.008-1.029-20.034-.586-24.03-.812-24.676-.849-24.871-1.816-24.188-1.984-16.669-3.837-7.304-3.3 .229-1.69 1.168-1.489 .972 .064 0 0"/>
<path transform="matrix(1,0,0,-1,61.4966,366.8989)" d="M0 0C-.191 1.73-2.703 1.817-2.761 0-2.828-2.095-2.679-4.213-2.609-6.307-2.589-6.921-2.169-7.6-1.525-7.731-1.247-7.788-1.018-7.807-.74-7.731-.139-7.565 .372-6.95 .343-6.307 .249-4.211 .23-2.086 0 0"/>
<path transform="matrix(1,0,0,-1,86.2318,367.3747)" d="M0 0C-.191 1.73-2.703 1.817-2.761 0-2.828-2.095-2.679-4.213-2.609-6.307-2.589-6.92-2.169-7.6-1.525-7.731-1.247-7.787-1.018-7.807-.74-7.731-.139-7.565 .372-6.95 .343-6.307 .249-4.211 .23-2.086 0 0"/>
<path transform="matrix(1,0,0,-1,48.5805,376.0519)" d="M0 0C.162-.077 .356 .085 .256 .256-1.692 3.596-5.431 .3-5.927-2.302-6.702-6.365-4.463-11.048-1.052-13.257-.272-13.761 .652-12.587-.051-11.96-1.822-10.38-3.275-8.782-3.985-6.457-4.767-3.895-4.379 2.091 0 0"/>
<path transform="matrix(1,0,0,-1,100.105,378.767)" d="M0 0C-.457 2.64-2.989 5.465-5.866 4.484-6.333 4.325-6.387 3.617-5.866 3.481 1.746 1.498-2.75-5.551-6.251-9.15-7.054-9.977-5.783-11.249-4.985-10.416-2.313-7.623 .725-4.193 0 0"/>
<path transform="matrix(1,0,0,-1,55.87,351.6416)" d="M0 0C-1.073-3.386-1.634-6.75-3.183-10.002-4.556-12.885-6.491-15.371-8.094-18.11-8.251-18.378-7.908-18.593-7.691-18.421-2.786-14.526 1.094-6.414 1.145-.155 1.15 .516 .196 .619 0 0"/>
<path transform="matrix(1,0,0,-1,98.7008,343.8509)" d="M0 0C-.337 .089-.645-.365-.358-.614 5.42-5.636-1.864-10.496-6.438-11.995-10.525-13.334-14.858-13.922-19.151-13.854-23.237-13.789-27.278-13.113-31.172-11.882-34.909-10.701-38.181-8.556-41.859-7.312-42.099-7.231-42.23-7.541-42.088-7.706-34.907-16.042-19.183-16.95-9.278-14.721-5.123-13.786 .715-12.177 2.776-7.951 4.245-4.936 3.492-.916 0 0"/>
<path transform="matrix(1,0,0,-1,91.9453,363.19209)" d="M0 0C-.548 1.533-.479 3.388-1.266 4.776-1.454 5.108-1.909 4.999-2.026 4.677-2.603 3.089-1.726 .867-1.143-.629-.601-2.023 .124-3.945 1.548-4.621 1.671-4.679 1.868-4.613 1.851-4.447 1.695-2.905 .522-1.462 0 0"/>
<path transform="matrix(1,0,0,-1,96.2182,356.5788)" d="M0 0C-1.309-1.379-1.706-3.608-2.073-5.43-2.444-7.276-2.65-9.243-2.226-11.089-2.205-11.182-2.081-11.166-2.052-11.089-1.38-9.269-1.062-7.316-.517-5.452-.024-3.77 .942-2.189 1.054-.437 1.088 .1 .356 .375 0 0"/>
<path transform="matrix(1,0,0,-1,46.3179,375.4965)" d="M0 0C-.625 3.608-1.368 7.142-1.491 10.819-1.599 14.059-1.072 17.193-1.016 20.412-1.004 21.087-1.961 21.179-2.161 20.567-4.213 14.269-3.315 5.843-.789-.218-.589-.7 .092-.528 0 0"/>
<path transform="matrix(1,0,0,-1,43.8155,354.513)" d="M0 0C-1.473-.454-3.298-.406-3.987 1.277-4.657 2.912-3.392 4.273-2.007 4.9-1.145 5.29-1.825 6.401-2.595 6.294-5.103 5.948-6.477 2.712-5.484 .528-4.499-1.638-1.261-2.725 .634-1.09 1.132-.66 .603 .186 0 0"/>
<path transform="matrix(1,0,0,-1,45.1196,339.8916)" d="M0 0C-2.446 .417-5.014-.959-5.954-3.285-6.808-5.397-6.179-8.588-3.886-9.497-3.588-9.614-3.321-9.217-3.478-8.967-4.452-7.419-5.463-5.98-4.872-4.051-4.238-1.982-2.153-1.139-.168-1.24 .531-1.275 .708-.121 0 0"/>
<path transform="matrix(1,0,0,-1,46.3781,333.5484)" d="M0 0C-2.607-1.411-3.191-5.05-1.238-7.247-.973-7.545-.516-7.226-.6-6.876-1.01-5.166-1.428-3.201 .01-1.827 1.38-.519 3.953-.956 4.027-3.118 4.06-4.07 5.535-4.077 5.512-3.118 5.444-.323 2.437 1.319 0 0"/>
<path transform="matrix(1,0,0,-1,96.7067,334.4371)" d="M0 0C-5.55 2.797-12.299 1.394-17.687-1.077-17.875-1.163-17.788-1.504-17.579-1.478-13.761-1.001-9.99 .153-6.106-.125-2.092-.413 6.917-4.332 2.955-9.789 2.273-10.727 3.841-11.639 4.512-10.699 7.426-6.617 3.765-1.897 0 0"/>
<path transform="matrix(1,0,0,-1,88.9535,346.6103)" d="M0 0C-5.539-1.423-10.736-2.876-16.542-2.616-22.709-2.339-28.363-.398-33.909 2.194-34.313 2.383-34.63 1.851-34.259 1.595-24.857-4.891-9.793-6.701 .449-1.065 1.035-.743 .634 .163 0 0"/>
<path transform="matrix(1,0,0,-1,76.4598,337.5888)" d="M0 0C-5.692-2.233-10.902-3.539-17.078-3.392-17.307-3.387-17.368-3.758-17.133-3.801-11.293-4.863-4.74-3.99 .331-.786 .722-.539 .474 .186 0 0"/>
<path transform="matrix(1,0,0,-1,53.3963,348.2154)" d="M0 0C-1.437-1.302-2.594-2.828-4.142-4.025-5.648-5.191-7.358-6.177-9.078-6.992-9.214-7.057-9.112-7.244-8.982-7.22-5.289-6.538-.892-4.151 .73-.563 .942-.093 .41 .371 0 0"/>
<path transform="matrix(1,0,0,-1,48.3076,347.0039)" d="M0 0C-.059 .339-.558 .454-.777 .205-1.254-.337-1.435-1.022-2.001-1.531-2.59-2.06-3.413-2.499-4.207-2.598-4.375-2.619-4.436-2.859-4.249-2.911-3.244-3.195-2.286-3.081-1.406-2.472-.661-1.955 .168-.96 0 0"/>
<path transform="matrix(1,0,0,-1,55.344,340.2944)" d="M0 0C-.304 .336-.809 .46-1.231 .602-1.711 .765-2.224 .823-2.704 .98-2.908 1.046-3.031 .742-2.849 .637-2.408 .384-2.018 .041-1.573-.209-1.177-.431-.757-.71-.294-.711 .08-.711 .237-.262 0 0"/>
<path transform="matrix(1,0,0,-1,62.2213,359.0184)" d="M0 0C-1.26 .012-2.527-.182-3.781-.306-4.449-.372-4.93-.709-5.153-1.351-5.265-1.675-5.264-2.005-5.089-2.309L-5.009-2.447C-4.778-2.849-4.264-3.198-3.781-3.152-2.401-3.021-.997-2.955 .362-2.676 1.895-2.361 1.505-.014 0 0"/>
<path transform="matrix(1,0,0,-1,86.9385,360.6504)" d="M0 0C-1.127 1.308-2.923 1.284-4.398 .627-5.696 .047-4.751-2.246-3.419-1.694-2.62-1.362-1.853-1.529-1.054-1.811 .048-2.199 .646-.75 0 0"/>
<path transform="matrix(1,0,0,-1,60.2519,421.82679)" d="M0 0C-.127 1.907-.33 3.892-.986 5.695-1.225 6.351-2.287 6.301-2.267 5.522-2.219 3.678-1.918 1.848-1.873 0-1.834-1.647-2.182-3.372-1.726-4.96-1.568-5.509-.675-5.723-.407-5.133 .322-3.527 .116-1.734 0 0"/>
<path transform="matrix(1,0,0,-1,81.8378,419.78053)" d="M0 0C-.005 1.327 .644 2.98-.086 4.14-.189 4.304-.417 4.381-.589 4.272-1.868 3.464-1.768 1.374-1.816 0-1.874-1.631-1.973-3.712-.806-4.98-.5-5.313 .046-5.126 .168-4.723 .617-3.239 .005-1.533 0 0"/>
<path transform="matrix(1,0,0,-1,68.6944,436.4465)" d="M0 0C-.969 2.278-2.63 4.561-4.168 6.499-4.881 7.396-5.741 8.179-6.961 7.63-8.397 6.984-9.322 4.709-9.921 3.389-10.738 1.589-11.441-.455-11.312-2.451-11.28-2.951-10.512-3.287-10.265-2.735-9.764-1.614-9.469-.429-9.031 .717-8.571 1.92-7.699 4.516-6.62 5.299-6.479 5.78-6.232 5.846-5.88 5.499L-5.224 4.542C-4.786 3.904-4.344 3.269-3.898 2.636-3.047 1.424-2.179 .168-1.1-.849-.484-1.43 .299-.703 0 0"/>
<path transform="matrix(1,0,0,-1,62.1135,427.3162)" d="M0 0C-.683 .775-1.415 1.601-2.214 2.257-3.164 3.036-4.337 1.863-3.558 .913-2.902 .112-2.078-.618-1.302-1.302-.624-1.9 .107-2.68 1.01-2.901 1.369-2.989 1.686-2.672 1.599-2.312 1.377-1.407 .599-.68 0 0"/>
<path transform="matrix(1,0,0,-1,59.3748,426.1791)" d="M0 0C.077 .208-.117 .363-.294 .386-2.697 .708-7.374-3.564-7.837-5.861-8.137-7.347-7.002-8.223-6.037-9.202-4.599-10.659-3.279-12.506-1.352-13.279-.911-13.456-.374-12.917-.55-12.477-1.037-11.257-1.742-10.634-2.694-9.692-3.943-8.456-6.235-7.197-5.226-5.253-4.063-3.015-.86-2.331 0 0"/>
<path transform="matrix(1,0,0,-1,87.9935,435.52113)" d="M0 0C-1.328 2.564-3.53 4.624-5.653 6.528-6.056 6.891-6.8 7.002-7.189 6.528-9.018 4.295-10.717 1.925-11.843-.745-12.29-1.804-10.641-2.363-10.068-1.494-8.798 .434-7.615 2.379-6.232 4.221-4.405 2.642-3.011 .733-1.449-1.118-.745-1.952 .461-.889 0 0"/>
<path transform="matrix(1,0,0,-1,88.6932,432.3778)" d="M0 0C-.403-1.237-1.194-2.176-1.866-3.262-2.239-3.866-1.511-4.519-.926-4.202 .453-3.455 1.273-1.918 1.791-.494 2.198 .623 .372 1.141 0 0"/>
<path transform="matrix(1,0,0,-1,86.9043,427.27333)" d="M0 0C-1.079 1.194-3.299 3.875-5.104 3.476-5.435 3.403-5.593 3.038-5.526 2.733-5.334 1.858-4.82 1.668-4.115 1.158-3.102 .424-2.164-.396-1.299-1.299 .033-2.692 1.033-4.917 2.654-5.938 2.871-6.075 3.119-5.893 3.134-5.663 3.267-3.64 1.266-1.4 0 0"/>
<path transform="matrix(1,0,0,-1,81.729,424.1904)" d="M0 0C-.302 .342-.852 .138-.974-.257-1.183-.935-1.064-1.72-1.086-2.428-1.112-3.261-1.245-4.045-1.375-4.866-1.561-6.045 .062-6.548 .445-5.368 .935-3.858 1.122-1.273 0 0"/>
<path transform="matrix(1,0,0,-1,77.2649,434.7875)" d="M0 0C-1.535-1.628-2.687-3.631-3.641-5.67-5.205-4.325-6.772-2.966-8.431-1.754-9.321-1.103-10.351-2.511-9.591-3.257-7.841-4.978-5.885-6.528-4.015-8.116-3.56-8.502-2.648-8.579-2.36-7.903-1.32-5.464 .1-3.392 1.525-1.177 2.122-.251 .756 .802 0 0"/>
<path transform="matrix(1,0,0,-1,50.8942,433.8038)" d="M0 0C-3.182-2.577-6.691-4.141-10.714-4.861-12.091-5.107-11.485-7.13-10.143-6.935-5.821-6.306-1.811-4.347 1.383-1.383 2.324-.511 .958 .776 0 0"/>
<path transform="matrix(1,0,0,-1,97.7205,437.3357)" d="M0 0C-5.336-11.703-18.139-15.43-30.156-14.745-40.756-14.141-49.961-9.873-57.07-1.999-57.461-1.567-58.117-2.118-57.855-2.605-52.37-12.75-39.715-16.727-28.862-17.124-16.467-17.577-2.981-13.181 1.965-.829 2.415 .293 .505 1.107 0 0"/>
<path transform="matrix(1,0,0,-1,98.9315,436.5293)" d="M0 0C-1.386 .819-2.996 1.277-4.46 1.95-5.958 2.638-7.377 3.44-8.8 4.267-10.001 4.964-11.064 3.134-9.886 2.41-7.18 .747-3.57-1.145-.333-1.228 .33-1.245 .552-.326 0 0"/>
<path transform="matrix(1,0,0,-1,57.6724,395.69349)" d="M0 0C-.864-.032-1.579-.976-2.003-1.656-2.238-2.033-2.428-2.439-2.58-2.856-2.764-3.361-2.705-3.629-2.61-4.137-2.546-4.476-2.104-4.457-1.939-4.224-1.75-3.958-1.571-3.794-1.434-3.477-1.277-3.116-1.089-2.768-.857-2.448-.429-1.858 .317-1.424 .565-.742 .694-.389 .359 .013 0 0"/>
</g>
</svg>
