<svg xmlns="http://www.w3.org/2000/svg" viewBox="364.94 187.75 126.00 126.00">
<g fill="#9fe3e6">
<path transform="matrix(1,0,0,-1,429.602,285.2774)" d="M0 0C-14.397 10.841-22.577 26.366-25.842 43.85-25.94 44.373-26.828 44.26-26.779 43.723-25.154 25.97-14.93 9.484-1.095-1.419-.077-2.221 1.049-.79 0 0"/>
<path transform="matrix(1,0,0,-1,403.3114,241.3388)" d="M0 0C-.022 0-.039-.002-.045-.003-.08-.007-.253-.04-.239-.193 1.293-16.931 10.859-33.741 25.351-45.161 25.579-45.34 25.828-45.391 26.05-45.299 26.267-45.211 26.426-45.005 26.456-44.775 26.486-44.54 26.374-44.314 26.141-44.138 12.459-33.836 3.732-19.031 .202-.134 .181-.018 .066 0 0 0M25.824-45.844C25.556-45.844 25.284-45.745 25.042-45.554 10.444-34.051 .807-17.11-.737-.238-.77 .13-.509 .438-.113 .493 .284 .544 .626 .323 .694-.042 4.2-18.812 12.862-33.514 26.441-43.739 26.819-44.023 27.006-44.425 26.951-44.84 26.898-45.245 26.619-45.607 26.238-45.762 26.105-45.817 25.965-45.844 25.824-45.844"/>
<path transform="matrix(1,0,0,-1,454.433,238.74811)" d="M0 0C-2.538-9.412-3.944-18.995-8.14-27.905-11.97-36.039-17.55-42.356-25.09-47.221-25.929-47.762-25.164-49.033-24.317-48.544-7.506-38.822-1.539-17.457 .658-.114 .765 .732 .213 .79 0 0"/>
<path transform="matrix(1,0,0,-1,454.8329,238.47461)" d="M0 0C-.043-.049-.107-.151-.158-.338-.879-3.013-1.52-5.745-2.138-8.387-3.692-15.024-5.3-21.887-8.313-28.285-12.147-36.428-17.723-42.78-25.354-47.704-25.652-47.896-25.65-48.203-25.517-48.421-25.397-48.615-25.149-48.78-24.842-48.601-11.423-40.84-3.061-24.608 .01-.356 .033-.174 .018-.06 0 0M-25.1-49.177C-25.457-49.177-25.769-48.968-25.943-48.682-26.203-48.257-26.178-47.64-25.626-47.284-18.074-42.412-12.56-36.127-8.766-28.072-5.775-21.722-4.174-14.885-2.625-8.273-2.005-5.627-1.364-2.891-.641-.208-.475 .41-.134 .574 .106 .527 .352 .479 .585 .205 .506-.419-2.586-24.834-11.03-41.191-24.592-49.034-24.765-49.134-24.936-49.177-25.1-49.177"/>
<path transform="matrix(1,0,0,-1,406.8936,255.6834)" d="M0 0C-2.232 .237-4.234 1.377-5.577 3.177-6.193 4.002-6.662 4.924-6.884 5.938-7.234 7.532-6.197 11.131-3.942 9.14-3.464 8.719-2.619 9.267-3.011 9.858-3.852 11.124-5.415 11.365-6.727 10.605-8.279 9.706-8.631 7.764-8.388 6.117-7.772 1.94-4.051-1.044 0-1.489 .95-1.593 .945-.101 0 0"/>
<path transform="matrix(1,0,0,-1,401.7089,244.8935)" d="M0 0C-.465 0-.95-.131-1.417-.401-2.887-1.252-3.176-3.148-2.956-4.637-2.392-8.464 1.044-11.573 5.212-12.03 5.363-12.045 5.486-12.005 5.56-11.903 5.661-11.766 5.674-11.54 5.591-11.353 5.544-11.248 5.426-11.067 5.158-11.039 2.842-10.793 .799-9.629-.593-7.762-1.275-6.849-1.729-5.888-1.944-4.906-2.19-3.79-1.816-1.666-.697-1.007-.261-.751 .458-.624 1.408-1.462 1.568-1.604 1.791-1.556 1.921-1.442 2.005-1.369 2.081-1.245 1.966-1.07 1.5-.37 .78 0 0 0M5.278-12.534C5.238-12.534 5.198-12.532 5.157-12.527 .767-12.046-2.854-8.758-3.45-4.71-3.694-3.058-3.354-.945-1.667 .032-.202 .882 1.501 .533 2.382-.794 2.611-1.138 2.558-1.55 2.249-1.819 1.961-2.073 1.449-2.166 1.078-1.837 .493-1.321-.02-1.189-.443-1.439-1.299-1.941-1.668-3.832-1.456-4.798-1.256-5.711-.83-6.607-.192-7.463 1.115-9.217 3.034-10.31 5.211-10.542 5.59-10.582 5.895-10.804 6.048-11.151 6.204-11.504 6.172-11.915 5.964-12.198 5.804-12.418 5.563-12.534 5.278-12.534"/>
<path transform="matrix(1,0,0,-1,456.9507,243.39112)" d="M0 0C-1.416 .67-2.908-.065-3.253-1.547-3.31-1.794-3.214-2.049-2.995-2.181-2.913-2.231-2.832-2.28-2.75-2.329-2.724-2.345-2.689-2.345-2.663-2.329-1.937-1.874-1.586-1.008-.554-1.227 1.816-1.728 .178-5.498-.191-6.898-.928-9.691-2.433-10.839-5.164-11.246-5.816-11.343-5.626-12.198-5.164-12.389-.909-14.139 1.372-7.605 1.787-4.651 2.03-2.92 1.786-.844 0 0"/>
<path transform="matrix(1,0,0,-1,454.1551,245.5082)" d="M0 0C0-.001-.001-.001-.001-.001-.001-.001 0-.001 0 0M1.928 1.175C2.041 1.175 2.163 1.162 2.293 1.135 2.824 1.023 3.217 .754 3.46 .336 4.121-.801 3.49-2.786 3.072-4.099 2.98-4.387 2.9-4.641 2.847-4.845 2.112-7.625 .612-8.938-2.331-9.376-2.496-9.4-2.528-9.488-2.537-9.562-2.56-9.746-2.434-9.974-2.273-10.041-1.29-10.444-.355-10.399 .505-9.905 2.716-8.638 4.027-4.69 4.334-2.5 4.512-1.234 4.534 1.018 2.689 1.891 2.075 2.182 1.431 2.193 .873 1.923 .322 1.657-.063 1.156-.214 .513-.248 .366-.191 .223-.069 .149L.084 .056C.253 .175 .405 .32 .554 .461 .908 .799 1.304 1.175 1.928 1.175M-.975-10.816C-1.46-10.816-1.956-10.712-2.463-10.503-2.833-10.351-3.083-9.911-3.033-9.501-2.992-9.166-2.758-8.934-2.405-8.881 .343-8.472 1.68-7.305 2.362-4.717 2.418-4.507 2.502-4.245 2.596-3.948 2.987-2.718 3.578-.861 3.028 .084 2.857 .379 2.582 .563 2.189 .646 1.609 .767 1.292 .475 .898 .099 .707-.083 .51-.271 .266-.424 .162-.49 .026-.492-.083-.427L-.328-.279C-.635-.093-.783 .271-.7 .626-.518 1.408-.024 2.045 .655 2.373 1.34 2.705 2.162 2.693 2.902 2.343 4.462 1.606 5.164-.185 4.83-2.569 4.497-4.944 3.137-8.973 .754-10.339 .2-10.657-.378-10.816-.975-10.816"/>
<path transform="matrix(1,0,0,-1,432.1902,272.2657)" d="M0 0C-.964 .255-1.887-.117-2.863-.167-3.925-.222-4.952-.017-6.008-.011-6.492-.008-6.641-.653-6.248-.9-4.696-1.875-1.152-2.337 .233-.882 .502-.598 .392-.104 0 0"/>
<path transform="matrix(1,0,0,-1,426.1796,272.5268)" d="M0 0C-.137 0-.186-.096-.202-.154-.226-.237-.215-.358-.105-.427 1.425-1.388 4.794-1.779 6.062-.448 6.146-.359 6.152-.243 6.13-.163 6.114-.109 6.07-.013 5.947 .02 5.366 .173 4.788 .077 4.177-.026 3.849-.081 3.509-.138 3.16-.156 2.541-.189 1.933-.134 1.345-.082 .904-.043 .449-.002 .002 0ZM3.386-1.797C1.988-1.797 .52-1.41-.37-.851-.65-.675-.776-.339-.682-.015-.591 .298-.323 .5 0 .5H.004C.473 .498 .938 .456 1.389 .416 1.96 .366 2.549 .316 3.135 .343 3.455 .36 3.779 .414 4.094 .467 4.73 .574 5.39 .684 6.074 .503 6.336 .434 6.537 .236 6.611-.027 6.687-.297 6.616-.591 6.424-.793 5.743-1.509 4.591-1.797 3.386-1.797"/>
<path transform="matrix(1,0,0,-1,439.4066,264.9837)" d="M0 0C-3.088-.697-5.779-1.884-9.006-2.07-12.167-2.252-15.132-1.529-18.221-1.009-18.743-.921-19.138-1.63-18.605-1.92-13.372-4.766-4.424-4.662 .412-.977 .877-.623 .628 .142 0 0"/>
<path transform="matrix(1,0,0,-1,421.0975,266.2353)" d="M0 0C-.135 0-.249-.1-.287-.21-.322-.311-.286-.39-.178-.449 5.273-3.413 14.033-2.983 18.569 .473 18.724 .59 18.736 .766 18.683 .88 18.652 .948 18.57 1.054 18.365 1.008H18.364C17.311 .77 16.286 .47 15.296 .179 13.412-.373 11.463-.944 9.318-1.068 6.742-1.217 4.354-.781 1.825-.32 1.235-.212 .644-.104 .047-.004 .031-.001 .016 0 0 0M8.442-2.913C5.27-2.913 2.087-2.249-.416-.888-.74-.712-.875-.381-.76-.046-.632 .323-.246 .553 .13 .489 .729 .388 1.322 .28 1.914 .172 4.411-.283 6.768-.714 9.289-.569 11.377-.449 13.213 .089 15.155 .659 16.153 .952 17.185 1.254 18.254 1.495 18.634 1.58 18.982 1.424 19.136 1.091 19.302 .737 19.192 .319 18.872 .075 16.287-1.895 12.373-2.913 8.442-2.913"/>
<path transform="matrix(1,0,0,-1,428.1975,258.42909)" d="M0 0C-1.553 .919-2.888 2.305-3.3 4.115-3.759 6.13-2.745 7.538-2.341 9.397-2.242 9.855-2.711 10.248-3.137 10.009-5.184 8.86-5.473 5.742-4.881 3.679-4.243 1.454-2.555-.198-.362-.859 .152-1.013 .455-.27 0 0"/>
<path transform="matrix(1,0,0,-1,425.326,248.5986)" d="M0 0C-.042 0-.091-.01-.143-.04-2.139-1.16-2.296-4.248-1.77-6.083-1.16-8.209 .426-9.801 2.582-10.45 2.728-10.491 2.798-10.38 2.821-10.328 2.829-10.309 2.9-10.137 2.744-10.046 .923-8.967-.29-7.45-.673-5.771-1.004-4.316-.613-3.188-.2-1.995-.021-1.479 .163-.947 .286-.38 .318-.231 .245-.115 .165-.056 .137-.035 .078 0 0 0M2.646-10.96C2.577-10.96 2.508-10.949 2.438-10.928 .116-10.229-1.593-8.514-2.25-6.221-2.821-4.228-2.621-.857-.388 .396-.114 .549 .213 .531 .463 .347 .721 .156 .843-.171 .775-.487 .646-1.082 .456-1.629 .272-2.158-.117-3.283-.484-4.344-.185-5.66 .166-7.203 1.297-8.608 2.998-9.615 3.316-9.804 3.433-10.179 3.279-10.529 3.16-10.8 2.915-10.96 2.646-10.96"/>
<path transform="matrix(1,0,0,-1,415.472,238.58649)" d="M0 0C-.023 1.921-3.039 1.922-2.985 0-2.919-2.364-2.994-4.93-2.378-7.227-2.114-8.212-.564-8.266-.329-7.227 .194-4.908 .028-2.365 0 0"/>
<path transform="matrix(1,0,0,-1,413.951,237.3964)" d="M0 0C-.253 0-.503-.062-.708-.187-.947-.333-1.229-.624-1.214-1.183-1.202-1.593-1.195-2.01-1.187-2.43-1.153-4.422-1.117-6.483-.616-8.352-.507-8.758-.114-8.932 .216-8.926 .51-8.92 .855-8.769 .947-8.362 1.38-6.448 1.335-4.368 1.292-2.355 1.283-1.965 1.275-1.577 1.271-1.193 1.264-.612 .949-.316 .687-.171 .482-.057 .239 0 0 0M.197-9.426C-.326-9.426-.923-9.137-1.099-8.482-1.616-6.553-1.652-4.462-1.687-2.439-1.695-2.021-1.702-1.606-1.714-1.197-1.731-.573-1.466-.063-.968 .24-.413 .576 .349 .588 .93 .267 1.464-.03 1.763-.546 1.771-1.187 1.775-1.569 1.783-1.956 1.792-2.345 1.836-4.387 1.881-6.499 1.436-8.472 1.308-9.039 .833-9.414 .226-9.426 .217-9.426 .207-9.426 .197-9.426"/>
<path transform="matrix(1,0,0,-1,441.5281,238.58649)" d="M0 0C-.023 1.921-3.039 1.922-2.985 0-2.919-2.364-2.994-4.93-2.378-7.227-2.114-8.212-.564-8.266-.329-7.227 .194-4.908 .028-2.365 0 0"/>
<path transform="matrix(1,0,0,-1,440.0067,237.3964)" d="M0 0C-.253 0-.503-.062-.708-.187-.947-.333-1.229-.624-1.214-1.183-1.202-1.592-1.195-2.006-1.187-2.425-1.153-4.419-1.117-6.481-.615-8.352-.509-8.751-.134-8.926 .197-8.926H.216C.51-8.92 .856-8.769 .948-8.362 1.379-6.451 1.335-4.374 1.293-2.365 1.284-1.971 1.276-1.58 1.272-1.193 1.265-.612 .95-.316 .687-.171 .481-.057 .24 0 0 0M.198-9.426C-.326-9.426-.923-9.137-1.098-8.482-1.616-6.551-1.652-4.458-1.687-2.434-1.695-2.017-1.702-1.604-1.714-1.197-1.731-.573-1.467-.063-.968 .24-.413 .577 .349 .588 .93 .267 1.465-.03 1.764-.546 1.772-1.187 1.776-1.572 1.784-1.962 1.793-2.354 1.836-4.393 1.88-6.501 1.436-8.472 1.309-9.04 .833-9.414 .226-9.426 .217-9.426 .207-9.426 .198-9.426"/>
<path transform="matrix(1,0,0,-1,418.8861,227.5701)" d="M0 0C-3.919 2.214-9.375-.112-12.483-2.72-13.828-3.848-11.909-5.698-10.572-4.631-9.032-3.402-7.238-2.559-5.297-2.198-3.606-1.883-1.924-2.089-.243-1.862 .656-1.741 .699-.395 0 0"/>
<path transform="matrix(1,0,0,-1,415.2762,226.92719)" d="M0 0C-3.051 0-6.371-1.589-8.712-3.554-9.236-3.994-9.123-4.517-8.843-4.86-8.46-5.328-7.726-5.562-7.118-5.079-5.512-3.796-3.7-2.961-1.733-2.595-.789-2.419 .156-2.402 1.071-2.386 1.815-2.373 2.584-2.358 3.333-2.258 3.686-2.21 3.793-1.918 3.826-1.747 3.885-1.443 3.785-1.029 3.486-.861 2.424-.26 1.233 0 0 0M-7.847-5.842C-8.387-5.842-8.902-5.578-9.23-5.177-9.675-4.633-9.786-3.802-9.033-3.171-5.617-.304-.165 1.776 3.733-.425 4.187-.682 4.428-1.265 4.317-1.841 4.22-2.348 3.877-2.689 3.399-2.753 2.622-2.858 1.838-2.872 1.08-2.886 .186-2.902-.738-2.919-1.642-3.086-3.527-3.437-5.265-4.239-6.806-5.469-7.133-5.73-7.494-5.842-7.847-5.842"/>
<path transform="matrix(1,0,0,-1,434.1538,229.3844)" d="M0 0C-.059 0-.06-.092 0-.092 .06-.092 .06 0 0 0"/>
<path transform="matrix(1,0,0,-1,434.1542,229.22699)" d="M0 0C-.111 0-.205-.093-.205-.204-.205-.314-.111-.407 0-.407 .111-.407 .205-.314 .205-.204 .205-.093 .111 0 0 0M0-.5C-.165-.5-.295-.37-.295-.204-.295-.038-.165 .093 0 .093 .165 .093 .295-.038 .295-.204 .295-.37 .165-.5 0-.5"/>
<path transform="matrix(1,0,0,-1,447.4573,231.0599)" d="M0 0C-1.865 4.042-9.67 5.65-13.158 3.05-14.001 2.422-13.864 .735-12.558 .833-10.527 .987-8.758 1.629-6.675 1.208-4.593 .787-3.146-.434-1.285-1.285-.411-1.685 .405-.878 0 0"/>
<path transform="matrix(1,0,0,-1,439.3319,229.4624)" d="M0 0C.486 0 .985-.04 1.5-.145 2.908-.429 4.05-1.079 5.155-1.707 5.727-2.033 6.316-2.369 6.943-2.655 7.312-2.824 7.621-2.706 7.787-2.54 8-2.327 8.042-2.014 7.898-1.703V-1.702C7.11 .006 5.08 1.422 2.467 2.087-.354 2.806-3.24 2.478-4.884 1.252-5.25 .979-5.413 .397-5.247-.045-5.159-.28-4.947-.551-4.451-.515-3.806-.466-3.177-.366-2.567-.268-1.737-.136-.889 0 0 0M7.307-3.239C7.118-3.239 6.925-3.197 6.735-3.11 6.089-2.814 5.488-2.473 4.908-2.142 3.788-1.505 2.73-.903 1.4-.635 .035-.358-1.19-.555-2.488-.762-3.107-.861-3.748-.963-4.414-1.014-5.025-1.057-5.513-.763-5.716-.22-5.962 .437-5.732 1.243-5.183 1.653-3.397 2.985-.418 3.337 2.591 2.571 5.348 1.87 7.502 .351 8.352-1.493 8.583-1.994 8.503-2.531 8.142-2.893 7.915-3.121 7.619-3.239 7.307-3.239"/>
<path transform="matrix(1,0,0,-1,403.7387,229.1272)" d="M0 0C-.28-4.233-.791-8.54-.658-12.784-.65-13.047-.223-13.134-.176-12.849 .518-8.629 .585-4.263 .867 0 .904 .557 .037 .555 0 0"/>
<path transform="matrix(1,0,0,-1,404.2059,228.96039)" d="M0 0C-.045 0-.206-.012-.218-.183V-.184C-.29-1.287-.379-2.396-.468-3.507-.717-6.61-.974-9.818-.876-12.942-.377-9.857-.205-6.609-.039-3.469 .02-2.359 .078-1.251 .151-.15 .153-.116 .16-.01 .011-.001 .01-.001 .006 0 0 0M-.851-13.443C-.863-13.443-.874-13.442-.886-13.441-1.156-13.424-1.367-13.216-1.376-12.959-1.474-9.806-1.216-6.584-.967-3.467-.878-2.358-.789-1.252-.716-.151-.687 .3-.308 .519 .043 .498 .419 .474 .674 .187 .649-.183 .577-1.282 .519-2.387 .46-3.495 .293-6.649 .121-9.911-.395-13.056-.434-13.288-.619-13.443-.851-13.443"/>
<path transform="matrix(1,0,0,-1,410.3813,218.1467)" d="M0 0C-.042 .449-.717 .613-.837 .113-1.356-2.047-1.684-4.092-2.801-6.066-3.809-7.848-5.323-9.093-6.53-10.693-6.642-10.842-6.455-11.074-6.285-11.012-2.486-9.614 .366-3.879 0 0"/>
<path transform="matrix(1,0,0,-1,409.909,217.9765)" d="M0 0C-.066 0-.103-.035-.122-.115-.21-.48-.292-.841-.373-1.2-.78-2.994-1.165-4.687-2.111-6.359-2.742-7.475-3.573-8.392-4.377-9.278-4.854-9.804-5.347-10.348-5.791-10.926-2.158-9.525 .57-3.874 .224-.194 .212-.07 .095-.006 .015 0 .01 0 .005 0 0 0M-5.871-11.442C-6.013-11.442-6.152-11.372-6.246-11.245-6.368-11.08-6.373-10.866-6.257-10.712-5.782-10.083-5.257-9.503-4.748-8.942-3.926-8.036-3.15-7.18-2.547-6.113-1.637-4.505-1.26-2.846-.861-1.089-.779-.729-.696-.365-.608 .001-.53 .326-.271 .514 .05 .499 .4 .474 .688 .196 .722-.146V-.147C1.088-4.042-1.706-9.937-5.727-11.417-5.773-11.434-5.822-11.442-5.871-11.442"/>
<path transform="matrix(1,0,0,-1,425.1257,218.5506)" d="M0 0C-.059 0-.06-.093 0-.093 .06-.093 .06 0 0 0"/>
<path transform="matrix(1,0,0,-1,425.1258,218.393)" d="M0 0C-.111 0-.205-.093-.205-.204-.205-.314-.111-.408 0-.408 .111-.408 .205-.314 .205-.204 .205-.093 .111 0 0 0M0-.5C-.165-.5-.295-.37-.295-.204-.295-.038-.165 .092 0 .092 .165 .092 .295-.038 .295-.204 .295-.37 .165-.5 0-.5"/>
<path transform="matrix(1,0,0,-1,447.6363,223.8536)" d="M0 0C-6.878 1.563-13.624 3.547-20.484 5.173-26.252 6.541-32.643 7.723-38.445 5.99-38.736 5.903-38.689 5.445-38.372 5.451-31.204 5.584-24.647 4.945-17.699 3.023-11.942 1.43-6.148-.695-.161-1.192 .521-1.249 .663-.151 0 0"/>
<path transform="matrix(1,0,0,-1,410.4667,218.0957)" d="M0 0C7.119 0 13.358-.785 19.537-2.494 20.9-2.871 22.29-3.285 23.633-3.685 27.984-4.983 32.483-6.324 37.028-6.701 37.262-6.704 37.336-6.461 37.345-6.409 37.364-6.282 37.338-6.052 37.114-6.001 33.392-5.156 29.648-4.171 26.027-3.219 22.954-2.411 19.776-1.575 16.628-.828 11.075 .488 4.662 1.744-1.204-.007-.8-.002-.398 0 0 0M37.058-7.202C37.034-7.202 37.011-7.201 36.987-7.199 32.39-6.818 27.865-5.469 23.49-4.164 22.149-3.765 20.763-3.352 19.404-2.975 12.839-1.16 6.487-.41-1.198-.557-1.467-.558-1.672-.383-1.713-.121-1.754 .147-1.601 .396-1.347 .472 4.638 2.259 11.13 .988 16.743-.342 19.897-1.089 23.078-1.926 26.154-2.735 29.771-3.686 33.511-4.67 37.226-5.514 37.709-5.624 37.9-6.086 37.839-6.485 37.771-6.917 37.455-7.202 37.058-7.202"/>
<path transform="matrix(1,0,0,-1,451.5332,230.1557)" d="M0 0C-.407 .439-.951 .624-1.445 .955-2.036 1.351-2.546 1.833-2.997 2.383-3.874 3.452-4.118 4.765-4.863 5.874-4.882 5.902-4.934 5.912-4.951 5.874-5.994 3.536-2.934-1-.409-.987 .105-.984 .337-.363 0 0"/>
<path transform="matrix(1,0,0,-1,446.6825,224.77829)" d="M0 0C-.215-.97 .146-2.306 .995-3.608 1.989-5.132 3.337-6.114 4.432-6.114 4.624-6.106 4.703-5.982 4.729-5.924 4.773-5.822 4.78-5.669 4.667-5.547 4.428-5.289 4.125-5.123 3.806-4.947 3.625-4.848 3.443-4.748 3.268-4.63 2.677-4.235 2.151-3.752 1.66-3.154 1.15-2.532 .847-1.835 .554-1.161 .377-.757 .208-.369 0 0M4.433-6.614C3.173-6.614 1.66-5.543 .577-3.882-.257-2.604-.933-.755-.328 .599L-.268 .734-.086 .77C.022 .777 .135 .727 .195 .636 .538 .125 .779-.427 1.012-.961 1.305-1.634 1.581-2.269 2.047-2.836 2.506-3.397 2.996-3.847 3.545-4.214 3.709-4.324 3.879-4.417 4.046-4.509 4.387-4.696 4.739-4.89 5.034-5.208 5.262-5.453 5.322-5.812 5.187-6.122 5.057-6.424 4.772-6.613 4.443-6.614Z"/>
<path transform="matrix(1,0,0,-1,450.5819,230.02429)" d="M0 0C-.017 .041-.087 .042-.085-.012 .151-5.355 1.091-11.207 2.264-16.418 2.413-17.081 3.488-16.943 3.456-16.257 3.21-10.965 2.018-4.892 0 0"/>
<path transform="matrix(1,0,0,-1,450.8163,231.30899)" d="M0 0C.361-5.687 1.418-11.277 2.273-15.079 2.334-15.348 2.629-15.316 2.662-15.311 2.695-15.306 2.985-15.259 2.972-14.983 2.736-9.915 1.639-4.418 0 0M2.593-15.816C2.194-15.816 1.872-15.571 1.785-15.189 .861-11.081-.297-4.892-.569 1.262L-.578 1.472-.345 1.558C-.204 1.589-.057 1.512-.003 1.379 1.912-3.264 3.212-9.372 3.472-14.96 3.492-15.397 3.186-15.744 2.729-15.806 2.683-15.813 2.638-15.816 2.593-15.816"/>
<path transform="matrix(1,0,0,-1,402.0365,220.09311)" d="M0 0C.041 .314-.433 .339-.525 .071-3.082-7.366-3.178-17.532-.23-24.874-.213-24.916-.14-24.916-.144-24.863-.523-20.7-1.37-16.639-1.371-12.436-1.372-8.213-.543-4.163 0 0"/>
<path transform="matrix(1,0,0,-1,402.037,220.0932)" d="M0 0-.248 .032ZM-.248 .037-.289-.01C-2.719-7.079-2.795-16.344-.57-23.201-.678-22.276-.8-21.357-.919-20.455-1.265-17.848-1.621-15.151-1.622-12.436-1.623-9.301-1.16-6.207-.713-3.215-.552-2.137-.39-1.057-.248 .032L0 0ZM-.184-25.154C-.304-25.154-.416-25.082-.462-24.968-3.342-17.797-3.462-7.702-.762 .152-.665 .435-.366 .551-.116 .491 .13 .434 .28 .219 .248-.032 .105-1.124-.057-2.208-.219-3.289-.663-6.263-1.123-9.338-1.122-12.436-1.121-15.119-.767-17.798-.423-20.389-.23-21.843-.031-23.346 .104-24.84L.124-25.055-.112-25.145C-.136-25.151-.16-25.154-.184-25.154"/>
<path transform="matrix(1,0,0,-1,423.3282,198.56241)" d="M0 0C-7.008 2.322-14.81-.201-19.615-5.717-22.99-9.593-26.58-17.383-21.75-21.455-21.508-21.659-21.055-21.385-21.273-21.087-25.038-15.962-21.547-8.907-17.413-5.127-12.544-.675-6.518 .226-.181-.655 .242-.714 .427-.141 0 0"/>
<path transform="matrix(1,0,0,-1,417.9647,197.95801)" d="M0 0C-5.202 0-10.436-2.321-14.063-6.486-16.458-9.237-18.747-13.679-18.459-17.403-18.318-19.235-17.566-20.738-16.226-21.868-16.139-21.869-16.104-21.85-16.101-21.842-19.746-16.892-16.818-9.753-12.219-5.547-7.772-1.482-2.071 .003 5.217-1.012 5.328-1.027 5.352-.94 5.353-.93 5.361-.898 5.357-.866 5.284-.842 3.571-.274 1.787 0 0 0M-16.189-22.38C-16.314-22.38-16.44-22.341-16.548-22.25-17.995-21.03-18.806-19.413-18.958-17.442-19.256-13.573-16.903-8.987-14.439-6.158-9.436-.412-1.449 1.915 5.442-.367 5.746-.468 5.91-.746 5.841-1.044 5.777-1.312 5.517-1.557 5.148-1.507-1.979-.516-7.552-1.958-11.881-5.916-16.32-9.975-19.17-16.831-15.709-21.543-15.548-21.763-15.571-22.033-15.767-22.215-15.874-22.316-16.03-22.38-16.189-22.38"/>
<path transform="matrix(1,0,0,-1,447.0996,200.66532)" d="M0 0C-10.258 3.936-25.243 6.043-32.48-4.394-32.593-4.557-32.342-4.745-32.208-4.604-23.221 4.817-11.424 1.734-.204-.739 .285-.846 .455-.175 0 0"/>
<path transform="matrix(1,0,0,-1,431.0878,197.68012)" d="M0 0C-5.716 0-11.621-1.562-15.64-6.676-7.013 1.598 3.942-.832 14.548-3.188L15.862-3.479C15.942-3.496 15.999-3.473 16.02-3.401 16.027-3.379 16.053-3.269 15.922-3.219 13.078-2.127 6.669 0 0 0M-16.312-7.888C-16.407-7.888-16.505-7.855-16.587-7.788-16.761-7.647-16.798-7.416-16.675-7.237-8.003 5.267 10.606-.643 16.101-2.752 16.475-2.895 16.585-3.26 16.5-3.545 16.403-3.87 16.095-4.044 15.755-3.968L14.439-3.676C3.665-1.285-7.476 1.188-16.016-7.761-16.095-7.845-16.202-7.888-16.312-7.888"/>
<path transform="matrix(1,0,0,-1,450.619,200.7797)" d="M0 0C-5.53 1.134-11.109-2.122-15.095-5.631-15.35-5.854-15.025-6.235-14.745-6.085-11.649-4.42-8.821-2.224-5.327-1.398 .21-.089 6.07-2.954 5.777-9.278 5.761-9.622 6.26-9.665 6.359-9.357 7.808-4.844 4.4-.902 0 0"/>
<path transform="matrix(1,0,0,-1,447.9501,201.61371)" d="M0 0C2.293 0 4.435-.7 6.029-2.022 7.896-3.571 8.818-5.795 8.696-8.456L8.789-8.446C9.367-6.647 9.179-4.851 8.243-3.25 7.126-1.339 5.023 .096 2.619 .589-3.412 1.831-9.293-2.371-12.262-4.984L-12.194-5.03C-11.328-4.564-10.466-4.047-9.633-3.547-7.484-2.257-5.264-.923-2.716-.321-1.804-.105-.89 0 0 0M8.734-8.98C8.699-8.98 8.663-8.978 8.627-8.971 8.36-8.923 8.184-8.701 8.196-8.432 8.312-5.936 7.452-3.852 5.71-2.407 3.615-.67 .51-.072-2.601-.808-5.072-1.392-7.26-2.706-9.375-3.976-10.214-4.479-11.081-4.999-11.958-5.471-12.2-5.599-12.507-5.522-12.671-5.288-12.826-5.065-12.793-4.786-12.592-4.609-9.554-1.935-3.52 2.358 2.719 1.079 5.262 .558 7.487-.966 8.675-2.998 9.684-4.725 9.888-6.662 9.266-8.599 9.191-8.832 8.977-8.98 8.734-8.98"/>
<path transform="matrix(1,0,0,-1,458.2011,211.92441)" d="M0 0C-2.35 3.904-7.49 2.911-11.256 2.505-11.387 2.491-11.448 2.272-11.291 2.25-7.269 1.676-1.428 3.001-.497-2.487 .108-6.058-1.995-9.434-2.104-12.996-2.117-13.407-1.503-13.482-1.394-13.092-.278-9.087 2.437-4.048 0 0"/>
<path transform="matrix(1,0,0,-1,448.0721,209.5419)" d="M0 0C.54-.038 1.103-.058 1.685-.078 5.169-.202 9.117-.343 9.878-4.828 10.235-6.935 9.671-8.987 9.126-10.971 8.729-12.412 8.32-13.901 8.274-15.387 8.273-15.406 8.272-15.465 8.362-15.479 8.388-15.481 8.472-15.488 8.493-15.408 8.725-14.578 9.02-13.719 9.33-12.81 10.483-9.443 11.791-5.628 9.915-2.511 7.869 .886 3.526 .414 0 0M8.388-15.981C8.354-15.981 8.321-15.979 8.287-15.973 7.976-15.926 7.765-15.678 7.774-15.371 7.822-13.826 8.239-12.307 8.644-10.838 9.199-8.818 9.724-6.909 9.386-4.912 8.692-.828 5.121-.701 1.667-.578 .654-.542-.302-.508-1.196-.38-1.382-.354-1.509-.207-1.506-.023-1.502 .177-1.348 .35-1.153 .371-.834 .406-.504 .444-.166 .484 3.522 .917 8.11 1.456 10.343-2.254 12.34-5.569 10.992-9.503 9.804-12.972 9.494-13.874 9.203-14.726 8.976-15.542 8.901-15.808 8.663-15.981 8.388-15.981"/>
<path transform="matrix(1,0,0,-1,453.8867,222.91422)" d="M0 0C-.12 .024-.216-.154-.089-.211 3.878-2.01 .942-7.831 .406-10.777-.059-13.333-.342-15.957-.052-18.544 .01-19.102 .785-19.118 .829-18.544 1.061-15.569 1.103-12.644 1.767-9.712 2.161-7.973 2.977-6.147 3.027-4.345 3.087-2.216 2.18-.439 0 0"/>
<path transform="matrix(1,0,0,-1,454.9051,223.5444)" d="M0 0C2.026-1.83 .99-5.348 .209-8.001-.029-8.81-.254-9.575-.366-10.192-.923-13.25-1.067-15.695-.822-17.886-.805-18.036-.703-18.088-.618-18.088-.582-18.085-.453-18.07-.438-17.895-.386-17.21-.342-16.527-.299-15.847-.157-13.612-.011-11.301 .504-9.027 .642-8.422 .831-7.799 1.015-7.196 1.364-6.047 1.727-4.859 1.759-3.708 1.808-1.953 1.179-.655 0 0M-.618-18.588C-.933-18.588-1.271-18.368-1.318-17.941-1.57-15.702-1.424-13.21-.858-10.102-.741-9.46-.513-8.683-.271-7.86 .612-4.863 1.71-1.134-1.211 .191-1.378 .267-1.456 .442-1.4 .616-1.34 .801-1.155 .916-.97 .875H-.969C1.152 .448 2.328-1.228 2.259-3.722 2.225-4.941 1.853-6.162 1.493-7.342 1.304-7.963 1.125-8.55 .992-9.137 .485-11.373 .347-13.561 .2-15.878 .156-16.561 .113-17.246 .06-17.933 .031-18.312-.243-18.582-.606-18.588Z"/>
<path transform="matrix(1,0,0,-1,430.5206,201.1087)" d="M0 0C-5.055-4.353-9.762-7.027-15.952-9.447-18.825-10.569-21.15-11.959-21.991-15.056-21.999-15.087-21.953-15.108-21.938-15.078-19.593-10.406-13.83-9.988-9.549-7.977-5.755-6.195-2.178-3.755 .572-.572 .914-.177 .396 .341 0 0"/>
<path transform="matrix(1,0,0,-1,430.6835,201.29831)" d="M0 0C-4.873-4.196-9.516-6.946-16.024-9.49-18.137-10.316-19.828-11.249-20.912-12.774-19.011-10.79-16.277-9.877-13.613-8.989-12.328-8.56-10.999-8.117-9.818-7.562-5.692-5.624-2.315-3.153 .22-.219 .314-.11 .254-.028 .224 .003 .192 .033 .11 .093 0 0M-21.98-15.206-22.437-15.049-22.394-14.798C-21.548-11.684-19.309-10.237-16.206-9.024-9.754-6.502-5.153-3.778-.326 .379-.016 .645 .364 .569 .577 .355 .79 .142 .866-.236 .599-.546-1.983-3.534-5.416-6.046-9.605-8.014-10.813-8.581-12.156-9.03-13.455-9.463-16.787-10.575-20.232-11.725-21.877-15.001Z"/>
<path transform="matrix(1,0,0,-1,441.5536,208.34909)" d="M0 0C-4.776-3.828-9.867-4.166-15.707-4.912-19.066-5.341-22.246-5.946-24.904-8.117-24.926-8.135-24.903-8.175-24.876-8.165-19.692-6.19-14.594-6.058-9.186-5.215-5.447-4.631-1.9-3.554 .48-.48 .747-.135 .346 .277 0 0"/>
<path transform="matrix(1,0,0,-1,441.7098,208.5444)" d="M0 0C-4.44-3.559-9.06-4.128-14.411-4.788L-15.832-4.965C-18.474-5.303-21.222-5.763-23.62-7.212-20.323-6.161-17.081-5.764-13.675-5.347-12.276-5.175-10.83-4.998-9.38-4.772-6.054-4.253-2.323-3.296 .127-.132 .187-.053 .152-.004 .135 .014 .1 .048 .055 .044 0 0M-25.143-8.279-25.389-7.896-25.217-7.727C-22.449-5.466-19.094-4.877-15.895-4.469L-14.473-4.292C-9.197-3.641-4.642-3.08-.312 .391-.06 .591 .268 .586 .485 .37 .706 .153 .722-.18 .523-.438-2.035-3.741-5.88-4.732-9.304-5.266-10.762-5.494-12.212-5.671-13.614-5.843-17.506-6.32-21.182-6.77-24.943-8.203Z"/>
<path transform="matrix(1,0,0,-1,450.299,219.95221)" d="M0 0C-7.773 3.272-18.065 3.503-26.377 3.19-26.555 3.184-26.552 2.929-26.377 2.916-21.679 2.556-16.994 2.143-12.329 1.475-8.24 .889-4.193-.287-.075-.554 .271-.576 .267-.112 0 0"/>
<path transform="matrix(1,0,0,-1,425.9774,216.9472)" d="M0 0C3.862-.311 7.933-.696 12.027-1.283 13.644-1.514 15.276-1.842 16.855-2.159 19.277-2.646 21.782-3.149 24.264-3.309 24.271-3.308 24.26-3.25 24.225-3.235 16.816-.117 7.228 .184 0 0M24.27-3.809C24.257-3.809 24.244-3.809 24.23-3.808 21.716-3.646 19.195-3.139 16.757-2.649 15.185-2.333 13.559-2.007 11.957-1.778 7.148-1.089 2.372-.679-2.074-.339-2.285-.323-2.441-.152-2.438 .059-2.434 .266-2.272 .427-2.064 .435 5.368 .713 16.197 .687 24.418-2.774 24.672-2.881 24.814-3.165 24.75-3.437 24.697-3.664 24.506-3.809 24.27-3.809"/>
<path transform="matrix(1,0,0,-1,408.9607,259.4772)" d="M0 0C-.107 .173-.424 .062-.343-.145 2.461-7.35 3.449-13.836 3.065-21.563 3.039-22.101 3.912-22.232 4.016-21.692 5.413-14.488 3.868-6.236 0 0"/>
<path transform="matrix(1,0,0,-1,409.1092,260.20753)" d="M0 0C2.597-6.906 3.546-13.184 3.167-20.845 3.157-21.022 3.361-21.052 3.385-21.055 3.427-21.058 3.593-21.068 3.623-20.913 4.953-14.049 3.565-6.104 0 0M3.429-21.558C3.395-21.558 3.359-21.555 3.323-21.551 2.982-21.509 2.646-21.245 2.667-20.82 3.056-12.986 2.041-6.611-.725 .495-.806 .701-.722 .916-.521 1.015-.308 1.124-.057 1.057 .064 .863V.862C3.96-5.418 5.512-13.798 4.113-21.009 4.049-21.343 3.773-21.558 3.429-21.558"/>
<path transform="matrix(1,0,0,-1,441.3312,276.2669)" d="M0 0C-.04 .153-.238 .102-.255-.035-.689-3.355-.05-7.525 1.135-10.64 1.326-11.144 2.002-10.942 1.929-10.421 1.455-7.014 .872-3.323 0 0"/>
<path transform="matrix(1,0,0,-1,441.2547,276.97853)" d="M0 0C-.26-3.015 .288-6.797 1.444-9.839 1.497-9.977 1.584-9.976 1.635-9.964 1.706-9.945 1.777-9.878 1.758-9.743 1.337-6.72 .801-3.23 0 0M1.595-10.469C1.326-10.469 1.085-10.299 .978-10.018-.291-6.682-.842-2.472-.427 .709-.402 .897-.248 1.042-.059 1.054 .118 1.066 .271 .953 .318 .775 1.219-2.657 1.802-6.433 2.254-9.674 2.311-10.084 2.048-10.374 1.759-10.448 1.703-10.462 1.648-10.469 1.595-10.469"/>
<path transform="matrix(1,0,0,-1,424.4389,281.8334)" d="M0 0C-2.843-.216-5.65-.15-8.462 .352-10.619 .736-12.711 1.502-14.903 1.613-15.022 1.618-15.103 1.445-15.005 1.366-11.163-1.775-4.704-1.826 0-1.489 .951-1.421 .956 .073 0 0"/>
<path transform="matrix(1,0,0,-1,409.871,280.4936)" d="M0 0C2.948-2.224 7.714-3.066 14.551-2.579 14.796-2.561 14.915-2.417 14.973-2.299 15.06-2.117 15.052-1.887 14.952-1.741 14.875-1.627 14.755-1.578 14.587-1.589 11.504-1.823 8.714-1.708 6.061-1.234 5.258-1.091 4.455-.893 3.678-.702 2.479-.407 1.243-.102 0 0M11.017-3.213C5.719-3.213 1.901-2.208-.596-.167-.723-.064-.765 .105-.704 .264-.642 .427-.519 .534-.322 .523 1.086 .452 2.464 .112 3.798-.216 4.566-.406 5.362-.602 6.149-.742 8.761-1.207 11.508-1.321 14.55-1.09 14.894-1.063 15.184-1.195 15.365-1.459 15.567-1.755 15.59-2.171 15.423-2.517 15.263-2.847 14.958-3.051 14.586-3.078 13.33-3.168 12.14-3.213 11.017-3.213"/>
<path transform="matrix(1,0,0,-1,441.6343,281.5524)" d="M0 0C-1.98-.645-3.799-.619-5.84-.484-6.347-.45-6.424-1.214-5.957-1.35-3.946-1.933-1.68-1.673 .3-1.087 .995-.881 .691 .225 0 0"/>
<path transform="matrix(1,0,0,-1,435.7626,282.2851)" d="M0 0C-.078 0-.125-.045-.142-.136-.153-.203-.143-.34-.017-.377 2.167-1.009 4.515-.583 6.101-.115 6.213-.081 6.282-.011 6.307 .094 6.336 .22 6.292 .371 6.202 .453 6.135 .515 6.052 .529 5.949 .495 3.853-.187 1.946-.129 .015-.001 .01 0 .005 0 0 0M2.372-1.196C1.54-1.196 .683-1.1-.155-.857-.543-.744-.689-.365-.634-.049-.573 .296-.286 .519 .048 .498 1.931 .373 3.783 .314 5.795 .971 6.067 1.059 6.339 1.005 6.54 .822 6.761 .62 6.863 .282 6.794-.019 6.73-.3 6.528-.51 6.243-.594 5.194-.904 3.823-1.196 2.372-1.196"/>
<path transform="matrix(1,0,0,-1,409.1736,280.36073)" d="M0 0C-.053 .034-.12-.001-.138-.056-.394-.855-.31-1.008-.167-1.844 .105-3.436 .251-4.928 .053-6.54-.264-9.12-1.569-11.049-2.542-13.373-2.797-13.983-1.94-14.296-1.54-13.957 .452-12.268 1.303-9.159 1.548-6.643 1.737-4.698 1.875-1.186 0 0"/>
<path transform="matrix(1,0,0,-1,409.2743,280.4921)" d="M0 0V-.001ZM-.061-.201C-.198-.685-.165-.869-.07-1.392L-.022-1.67C.211-3.028 .419-4.657 .2-6.439-.031-8.321-.76-9.829-1.531-11.426-1.828-12.042-2.136-12.679-2.412-13.338-2.465-13.463-2.443-13.552-2.342-13.627-2.204-13.729-1.942-13.753-1.803-13.635 .465-11.714 1.052-7.996 1.198-6.487 1.518-3.208 1.095-1.095-.061-.201M-2.056-14.214C-2.261-14.214-2.469-14.153-2.638-14.029-2.924-13.82-3.014-13.481-2.873-13.145-2.592-12.473-2.281-11.831-1.982-11.209-1.229-9.65-.518-8.178-.296-6.378-.085-4.66-.288-3.077-.514-1.755L-.562-1.48C-.674-.865-.72-.61-.477 .151-.444 .253-.364 .336-.264 .373-.165 .411-.058 .399 .032 .343H.033C1.491-.58 2.051-2.894 1.696-6.536 1.543-8.105 .928-11.977-1.479-14.016-1.635-14.148-1.844-14.214-2.056-14.214"/>
<path transform="matrix(1,0,0,-1,406.7441,293.195)" d="M0 0C-1.902-.001-3.803-.329-5.689-.563-7.368-.772-9.12-.877-10.735-1.379-11.421-1.592-11.304-2.635-10.564-2.642-8.87-2.659-7.164-2.261-5.497-1.977-3.62-1.659-1.707-1.427 .119-.88 .598-.737 .515 0 0 0"/>
<path transform="matrix(1,0,0,-1,406.744,293.4448)" d="M0 0C-1.466-.001-2.962-.203-4.408-.397-4.825-.454-5.242-.51-5.657-.562-6.017-.606-6.378-.646-6.741-.686-8.055-.831-9.413-.98-10.661-1.368-10.9-1.442-10.958-1.656-10.935-1.817-10.912-1.973-10.802-2.14-10.561-2.143-10.53-2.143-10.497-2.143-10.465-2.143-9.177-2.143-7.858-1.901-6.582-1.668-6.233-1.604-5.885-1.54-5.539-1.481-5.125-1.411-4.709-1.345-4.293-1.278-2.852-1.049-1.36-.812 .048-.391 .202-.345 .187-.192 .184-.162 .176-.113 .144 0 0 0M-10.465-2.643C-10.499-2.643-10.533-2.643-10.566-2.643-11.087-2.637-11.375-2.261-11.43-1.89-11.496-1.436-11.241-1.024-10.81-.89-9.516-.488-8.133-.336-6.796-.189-6.436-.149-6.075-.11-5.72-.065-5.306-.014-4.891 .042-4.476 .098-3.013 .295-1.5 .499 0 .5 .349 .5 .627 .258 .678-.089 .73-.447 .53-.768 .191-.87-1.249-1.301-2.757-1.541-4.215-1.772-4.629-1.838-5.043-1.904-5.455-1.974-5.8-2.033-6.146-2.096-6.492-2.16-7.79-2.397-9.131-2.643-10.465-2.643"/>
<path transform="matrix(1,0,0,-1,455.4779,297.8342)" d="M0 0C-8.116-7.216-20.502-8.734-30.954-9.153-36.813-9.387-42.784-8.821-48.172-6.366-52.73-4.29-55.73-1.064-59.076 2.511-59.159 2.6-59.317 2.508-59.281 2.391-56.081-8.018-42.064-11.095-32.715-10.989-21.361-10.861-7.481-9.207 1.216-1.216 2.035-.463 .823 .732 0 0"/>
<path transform="matrix(1,0,0,-1,396.6161,295.9179)" d="M0 0C3.6-10.167 18.075-12.758 26.143-12.655 41.949-12.477 52.994-9.301 59.909-2.948 60.202-2.679 60.116-2.372 59.938-2.174 59.725-1.938 59.35-1.816 59.027-2.103 50.707-9.501 38.031-10.914 27.917-11.319 21.021-11.591 15.342-10.677 10.586-8.51 6.168-6.498 3.142-3.355 0 0M25.639-13.158C15.313-13.159 2.426-9.628-.659 .402-.709 .566-.638 .741-.486 .828-.335 .915-.147 .888-.032 .767L.033 .696C3.401-2.904 6.31-6.013 10.793-8.055 15.477-10.189 21.075-11.092 27.897-10.819 37.928-10.418 50.493-9.022 58.695-1.729 59.24-1.246 59.934-1.424 60.309-1.839 60.646-2.213 60.771-2.835 60.247-3.316 53.237-9.757 42.084-12.975 26.149-13.155 25.98-13.157 25.81-13.158 25.639-13.158"/>
<path transform="matrix(1,0,0,-1,456.3477,297.899)" d="M0 0C-3.786 2.222-8.253 3.68-12.312 5.364-13.001 5.65-13.324 4.507-12.623 4.235-8.573 2.661-4.377 .647-.15-.357 .062-.407 .195-.115 0 0"/>
<path transform="matrix(1,0,0,-1,443.8231,292.7397)" d="M0 0C-.064 0-.099-.027-.114-.039-.205-.11-.257-.265-.236-.406-.222-.501-.171-.628-.008-.691 1.094-1.119 2.206-1.58 3.326-2.044 6.181-3.225 9.129-4.445 12.067-5.184 9.41-3.671 6.411-2.504 3.508-1.374 2.361-.928 1.225-.486 .117-.026 .07-.007 .031 0 0 0M12.397-5.374ZM12.421-5.771C12.386-5.771 12.352-5.768 12.316-5.759 9.218-5.023 6.126-3.743 3.135-2.505 2.018-2.043 .909-1.584-.189-1.157-.487-1.042-.685-.794-.73-.479-.778-.155-.656 .172-.421 .355-.216 .515 .05 .544 .309 .436 1.412-.023 2.547-.464 3.689-.908 6.732-2.092 9.879-3.316 12.651-4.943V-4.944C12.844-5.057 12.92-5.28 12.836-5.487 12.766-5.663 12.601-5.771 12.421-5.771"/>
<path transform="matrix(1,0,0,-1,443.3771,287.0298)" d="M0 0C-.16 1.836-.142 3.69-.397 5.513-.485 6.143-1.357 5.901-1.419 5.374-1.836 1.809-1.266-2.939 .015-6.291 .137-6.612 .667-6.597 .654-6.204 .583-4.131 .18-2.069 0 0"/>
<path transform="matrix(1,0,0,-1,442.5721,281.3911)" d="M0 0H-.004C-.158-.001-.347-.127-.366-.293-.779-3.824-.195-8.573 1.053-11.84 1.075-11.896 1.135-11.915 1.18-11.903 1.167-10.622 1.004-9.37 .846-8.158 .739-7.341 .629-6.496 .556-5.661V-5.66C.493-4.935 .457-4.207 .422-3.479 .369-2.386 .314-1.255 .16-.161 .145-.047 .098 0 0 0M1.158-12.405C.909-12.405 .676-12.253 .586-12.019-.709-8.63-1.291-3.895-.862-.235-.81 .214-.378 .496-.009 .5H-.001C.349 .5 .605 .269 .656-.091 .812-1.208 .867-2.35 .921-3.455 .956-4.176 .991-4.898 1.054-5.617 1.126-6.441 1.235-7.281 1.341-8.094 1.501-9.316 1.666-10.581 1.709-11.834 1.718-12.115 1.545-12.34 1.278-12.394 1.238-12.401 1.198-12.405 1.158-12.405"/>
</g>
</svg>
