<svg xmlns="http://www.w3.org/2000/svg" viewBox="121.17 322.13 135.85 135.85">
<g fill="#9fe3e6">
<path transform="matrix(1,0,0,-1,168.8106,385.80873)" d="M0 0C-4.06 3.919-4.785 8.616-3.969 13.997-3.9 14.449-4.492 14.782-4.754 14.328-7.697 9.226-5.587 2.35-1.359-1.359-.437-2.168 .899-.867 0 0"/>
<path transform="matrix(1,0,0,-1,171.8965,404.4971)" d="M0 0C-1.792 3.1-4.216 5.081-5.086 8.777-5.921 12.325-4.623 15.429-4.917 18.868-4.923 18.932-4.989 18.957-5.037 18.918-10.393 14.646-6.501 1.352-.688-.895-.172-1.095 .247-.428 0 0"/>
<path transform="matrix(1,0,0,-1,197.9496,404.82319)" d="M0 0C-3.585-1.68-6.344-3.717-10.589-3.642-15.049-3.562-18.605-1.402-21.929 1.375-22.143 1.554-22.528 1.321-22.346 1.053-17.636-5.861-4.746-8.082 .599-.599 .878-.207 .354 .165 0 0"/>
<path transform="matrix(1,0,0,-1,211.9079,386.8119)" d="M0 0C-.312 .95-1.815 .547-1.507-.415-.193-4.515-.199-8.903-2.162-12.811-3.515-15.504-5.673-17.315-7.711-19.445-7.927-19.67-7.714-20.131-7.384-20.006 .338-17.088 2.301-7.012 0 0"/>
<path transform="matrix(1,0,0,-1,213.2064,372.77113)" d="M0 0C-.234 .378-.721 .179-.772-.209-1.122-2.872-.521-5.385-1.186-8.104-1.837-10.766-3.235-12.931-4.497-15.313-4.63-15.563-4.337-15.942-4.07-15.74-.128-12.773 2.778-4.486 0 0"/>
<path transform="matrix(1,0,0,-1,190.8061,387.60279)" d="M0 0C-.449 .311-1-.044-1.398-.249-2.989-1.071-4.504-.844-5.927 .263-6.47 .685-7.221 .177-6.897-.485-6.264-1.776-4.916-2.418-3.523-2.528-2.339-2.621-.508-2.318 .13-1.177 .34-.801 .405-.281 0 0"/>
<path transform="matrix(1,0,0,-1,184.4745,387.486)" d="M0 0C-.889 .765-2.628 .901-3.471 .026-3.684-.194-3.626-.68-3.271-.731-2.836-.794-2.424-.76-1.986-.808-1.522-.859-1.13-1.067-.686-1.179-.043-1.341 .558-.48 0 0"/>
<path transform="matrix(1,0,0,-1,193.7836,388.1814)" d="M0 0C-.348 .387-.793 .342-1.276 .334-1.72 .327-2.095 .299-2.507 .124-2.671 .054-2.706-.233-2.567-.342-2.216-.617-1.863-.741-1.438-.863-.971-.997-.551-1.156-.112-.871 .198-.67 .246-.274 0 0"/>
<path transform="matrix(1,0,0,-1,194.676,393.83619)" d="M0 0C-2.442-.783-4.121-2.559-6.851-2.872-10.15-3.25-12.648-1.924-15.383-.296-15.936 .033-16.384-.684-16.027-1.131-13.882-3.815-10.088-4.989-6.728-4.662-4.1-4.406-.477-3.183 .529-.529 .644-.223 .294 .094 0 0"/>
<path transform="matrix(1,0,0,-1,178.5272,391.37049)" d="M0 0C-.672 .075-1.357-.535-1.781-.986-2.292-1.529-2.581-2.093-2.749-2.812-2.809-3.072-2.465-3.218-2.32-2.992-2.004-2.502-1.577-2.012-1.139-1.627-.72-1.259-.091-1.04 .249-.6 .443-.349 .318-.036 0 0"/>
<path transform="matrix(1,0,0,-1,197.0164,392.6907)" d="M0 0C-.143 .217-.539 .086-.443-.187-.141-1.039 .092-1.888 .692-2.582 .905-2.828 1.26-2.561 1.201-2.286 1.015-1.412 .484-.734 0 0"/>
<path transform="matrix(1,0,0,-1,174.449,372.9423)" d="M0 0C-.06-1.206-.135-2.411-.148-3.619-.17-5.67 2.926-5.65 3.025-3.619 3.084-2.414 3.081-1.207 3.094 0 3.115 2 .098 1.98 0 0"/>
<path transform="matrix(1,0,0,-1,199.7529,373.7335)" d="M0 0C-.199-1.038-.353-2.118-.397-3.176-.425-3.833 .132-4.414 .761-4.489 1.35-4.559 2.134-4.197 2.228-3.532 2.376-2.475 2.449-1.397 2.44-.33 2.429 1.024 .271 1.416 0 0"/>
<path transform="matrix(1,0,0,-1,179.2015,380.2145)" d="M0 0C-.893-.479-1.505-1.311-2.481-1.708-3.554-2.145-4.566-2.16-5.701-2.152-6.009-2.149-6.15-2.6-5.862-2.748-4.733-3.33-3.292-3.213-2.161-2.705-1.17-2.259 .172-1.329 .212-.121 .215-.011 .091 .048 0 0"/>
<path transform="matrix(1,0,0,-1,201.9286,382.5682)" d="M0 0C-.993 .226-1.981 .149-2.957 .534-3.98 .938-4.699 1.692-5.59 2.297-5.771 2.42-6.042 2.214-5.969 2.006-5.274 .036-2.013-1.668 0-.979 .445-.827 .519-.118 0 0"/>
<path transform="matrix(1,0,0,-1,196.9349,353.1219)" d="M0 0C-.121 .787-1.408 .595-1.381-.187-1.096-8.634-7.085-14.136-14.766-16.421-21.368-18.385-27.782-17.363-34.242-15.502-34.695-15.371-34.995-16.046-34.567-16.273-22.68-22.583 2.718-17.601 0 0"/>
<path transform="matrix(1,0,0,-1,213.3799,369.0713)" d="M0 0C-4.224-.581-8.496 .416-11.831 3.146-14.289 5.158-15.571 7.843-17.201 10.471-17.291 10.617-17.543 10.565-17.535 10.38-17.198 1.834-7.18-2.78 .253-1.872 1.615-1.706 1.381 .19 0 0"/>
<path transform="matrix(1,0,0,-1,169.8892,403.72633)" d="M0 0C-.038 .048-.127-.004-.104-.061 1.002-2.802 1.959-5.482 2.31-8.435 2.667-11.431 2.136-14.208 1.989-17.182 1.951-17.943 2.971-17.952 3.217-17.348 5.431-11.91 3.533-4.469 0 0"/>
<path transform="matrix(1,0,0,-1,205.4133,405.4509)" d="M0 0C-3.294-3.352-4.501-11.115-1.441-14.944-1.159-15.296-.471-15.014-.52-14.563-.777-12.215-1.658-10.118-1.543-7.678-1.415-4.983-.371-2.798 .588-.342 .72-.004 .232 .236 0 0"/>
<path transform="matrix(1,0,0,-1,203.66,418.98103)" d="M0 0C-6.454-9.78-25.157-14.705-31.447-1.864-31.495-1.766-31.63-1.823-31.636-1.915-32.125-8.706-22.027-11.213-16.892-11.266-9.217-11.345-2.499-7.276 1.686-.986 2.384 .063 .69 1.046 0 0"/>
<path transform="matrix(1,0,0,-1,172.3334,428.3632)" d="M0 0C-4.4-1.897-7.128 2.921-5.887 6.686-4.904 9.667-2.085 11.083 .228 12.878 .422 13.028 .266 13.417 .018 13.385-4.632 12.767-8.547 8.183-7.937 3.419-7.409-.703-2.948-3.594 .86-1.471 1.842-.923 .979 .422 0 0"/>
<path transform="matrix(1,0,0,-1,186.3035,430.4429)" d="M0 0C-.973-3.778-4.455-5.106-8.057-5.001-11.061-4.913-15.556-3.088-13.052 .677-12.766 1.108-13.33 1.653-13.757 1.383-17.627-1.067-13.885-5.606-10.751-6.403-5.885-7.64 .573-6.011 1.657-.457 1.867 .616 .279 1.083 0 0"/>
<path transform="matrix(1,0,0,-1,201.3865,431.2436)" d="M0 0C-.202-2.665-2.782-5.005-5.519-4.314-8.031-3.679-8.865-1.366-9.367 .885-9.445 1.236-9.888 1.154-10 .885-11.309-2.26-8.073-5.755-4.995-6.021-1.494-6.323 1.357-3.359 1.531 0 1.583 .99 .074 .974 0 0"/>
<path transform="matrix(1,0,0,-1,204.0487,412.02943)" d="M0 0C-1.132 .571-2.118-1.178-.986-1.686 2.951-3.454 5.858-6.945 6.575-11.251 7.001-13.809 6.67-16.899 4.2-18.382 2.396-19.464-.029-19.126-2.042-19.447-2.503-19.52-2.411-20.165-2.042-20.29 3.142-22.053 8.258-19.295 8.599-13.665 8.957-7.74 5.101-2.572 0 0"/>
<path transform="matrix(1,0,0,-1,164.1955,423.6633)" d="M0 0C-1.474-.919-2.846-1.908-4.483-2.538-6.023-3.13-7.603-3.211-9.192-3.556-10.35-3.807-9.95-5.362-8.932-5.474-5.45-5.856-1.105-3.714 .983-.983 1.432-.397 .575 .358 0 0"/>
<path transform="matrix(1,0,0,-1,218.6486,429.9089)" d="M0 0C-6.168-12.231-19.181-20.495-33.035-19.862-39.479-19.568-45.774-17.283-51.077-13.644-56.931-9.627-60.132-4.21-64.196 1.391-64.295 1.528-64.499 1.447-64.467 1.277-62.056-11.879-46.051-21.02-33.745-21.935-18.915-23.038-4.721-14.201 1.74-1.017 2.308 .141 .586 1.163 0 0"/>
<path transform="matrix(1,0,0,-1,219.3839,429.9442)" d="M0 0C-1.15 1.107-2.597 1.954-3.899 2.876-5.184 3.785-6.458 4.833-7.963 5.339-8.397 5.485-8.901 4.906-8.599 4.513-7.703 3.35-6.45 2.529-5.268 1.675-3.884 .674-2.52-.52-1.004-1.301-.195-1.717 .705-.678 0 0"/>
<path transform="matrix(1,0,0,-1,169.7982,403.2106)" d="M0 0C-7.246-4.164-17.143-4.685-22.409 2.883-27.554 10.279-22.565 21.604-12.719 19.854-12.081 19.74-11.394 20.398-11.81 21.036-16.221 27.81-15.582 35.08-11.802 41.941-11.584 42.335-12.142 42.819-12.452 42.442-17.302 36.559-17.365 28.186-13.98 21.614-22.408 22.057-28.535 13.291-25.445 5.185-21.247-5.831-8.193-6.817 .923-1.578 1.943-.992 1.023 .588 0 0"/>
<path transform="matrix(1,0,0,-1,165.2888,391.5063)" d="M0 0C-1.965 .659-3.601 2.001-4.159 4.068-4.84 6.585-3.592 8.437-2.088 10.285-1.852 10.575-2.139 10.965-2.485 10.801-8.135 8.118-5.676-.225-.461-1.672 .622-1.973 1.051-.352 0 0"/>
<path transform="matrix(1,0,0,-1,213.4402,381.4971)" d="M0 0C-.124-.012-.227-.077-.264-.201-.429-.757-.273-.921-.054-1.45 .358-2.442 .703-3.265 .748-4.354 .834-6.407-.008-8.066-1.442-9.474-2.134-10.154-1.188-11.483-.372-10.861 1.48-9.448 2.498-7.18 2.499-4.853 2.499-3.504 1.905 .178 0 0"/>
<path transform="matrix(1,0,0,-1,225.3566,384.1399)" d="M0 0C-.77 .707-1.926-.446-1.149-1.149 4.108-5.907 9.023-14.954 .545-19.554-5.14-22.639-12.956-21.943-19.123-21.251-19.732-21.183-19.848-22.167-19.267-22.31-12.347-24.004-.347-24.49 4.767-18.314 9.872-12.149 4.774-4.382 0 0"/>
<path transform="matrix(1,0,0,-1,220.733,357.43843)" d="M0 0C-.694 .286-1.248-.768-.722-1.24 2.746-4.358 5.826-7.002 7.287-11.646 9.118-17.466 7.815-23.422 2.372-26.625 1.762-26.984 2.177-27.882 2.842-27.739 16.197-24.861 9.19-3.786 0 0"/>
<path transform="matrix(1,0,0,-1,172.7355,340.0984)" d="M0 0C-8.127-3.717-21.328-14.093-15.298-24.355-15.166-24.58-14.789-24.433-14.87-24.174-20.497-6.169 18.325 12.94 23.694-6.945 23.897-7.696 25.162-7.575 25.09-6.756 24.01 5.654 7.889 3.609 0 0"/>
<path transform="matrix(1,0,0,-1,213.3823,341.1011)" d="M0 0C-5.834 3.438-13.544 3.346-18.872-.921-18.999-1.023-18.862-1.251-18.712-1.196-12.879 .952-6.566 1.626-.988-1.69 5.073-5.293 5.915-11.007 7.307-17.207 7.462-17.895 8.488-17.858 8.663-17.207 10.405-10.739 5.419-3.193 0 0"/>
<path transform="matrix(1,0,0,-1,210.429,361.55903)" d="M0 0C-2.186-2.003-6.173 .028-8.163 1.273-10.364 2.65-11.904 4.505-13.275 6.678-13.942 7.737-15.515 6.809-14.948 5.7-12.827 1.554-3.503-6.35 .601-.464 .859-.094 .308 .282 0 0"/>
<path transform="matrix(1,0,0,-1,188.6575,353.11439)" d="M0 0C-1.268-8.598-14.565-9.216-21.408-10.164-21.764-10.213-21.666-10.774-21.325-10.778-14.242-10.85 1.738-10.425 1.673-.226 1.667 .696 .144 .978 0 0"/>
<path transform="matrix(1,0,0,-1,171.1589,349.6471)" d="M0 0C-4.966-.717-9.494-3.754-12.408-7.809-14.418-10.607-15.678-14.868-12.09-16.975-11.778-17.159-11.441-16.73-11.702-16.472-17.984-10.279-4.283-2.66 .224-.814 .73-.607 .54 .078 0 0"/>
<path transform="matrix(1,0,0,-1,220.36,358.1044)" d="M0 0C-1.448 4.879-5.706 9.241-10.061 11.685-10.299 11.819-10.588 11.481-10.364 11.292-8.369 9.612-6.534 7.816-5.01 5.685-3.583 3.689-2.665 1.507-1.528-.644-1.085-1.482 .269-.907 0 0"/>
<path transform="matrix(1,0,0,-1,220.9929,365.5063)" d="M0 0C-.101 .13-.294-.036-.221-.171 3.028-6.166 5.435-14.078-2.608-17.241-3.389-17.549-3.27-18.623-2.41-18.699 1.485-19.044 4.224-15.219 4.652-11.678 5.197-7.159 2.626-3.384 0 0"/>
<path transform="matrix(1,0,0,-1,160.7743,382.6198)" d="M0 0C-1.25 1.448-2.47 2.29-2.984 4.259-3.45 6.041-3.27 7.816-2.597 9.516-2.507 9.743-2.863 9.952-3.015 9.759-5.449 6.663-4.917 .218-.768-1.319 .034-1.616 .466-.54 0 0"/>
<path transform="matrix(1,0,0,-1,166.9611,398.9478)" d="M0 0C-4.533-1.207-9.49-2.6-13.459 .935-17.143 4.217-16.258 8.08-13.835 11.674-13.797 11.731-13.861 11.807-13.924 11.788-18.371 10.509-18.315 4.115-16.083 .974-12.373-4.247-4.527-4.503 .71-1.685 1.64-1.185 1 .266 0 0"/>
<path transform="matrix(1,0,0,-1,223.8954,392.2426)" d="M0 0C-.44-2.58-2.383-5.236-4.624-6.565-7.239-8.115-9.811-7.573-12.633-7.223-13.49-7.117-13.635-8.329-13.039-8.723-10.229-10.581-6.012-9.797-3.4-7.932-.634-5.958 .258-3.293 .353-.048 .359 .15 .035 .203 0 0"/>
<path transform="matrix(1,0,0,-1,216.8003,394.68299)" d="M0 0C-.465-.42-1.085-.755-1.696-.906-2.273-1.049-2.863-.977-3.44-1.095-4.15-1.241-4.191-2.46-3.44-2.572-1.85-2.808-.413-1.523 .245-.189 .324-.031 .135 .122 0 0"/>
<path transform="matrix(1,0,0,-1,193.3847,411.5012)" d="M0 0C-1.668-.472-3.13-1.094-4.891-1.195-6.621-1.294-8.251-.976-9.924-.561-10.193-.495-10.344-.856-10.111-1.004-7.174-2.863-2.459-3.132 .427-1.014 .906-.663 .647 .183 0 0"/>
<path transform="matrix(1,0,0,-1,203.4281,367.9427)" d="M0 0C-1.87 1.013-4.403 1.151-6.159-.198-7.157-.964-6.334-2.479-5.158-1.911-3.812-1.262-2.453-1.166-1.134-1.94 .117-2.675 1.271-.688 0 0"/>
</g>
</svg>
