<svg xmlns="http://www.w3.org/2000/svg" viewBox="241.87 25.71 132.77 132.77">
<g fill="#9fe3e6">
<path transform="matrix(1,0,0,-1,333.3102,68.08029)" d="M0 0C-.13 1.337-2.233 1.356-2.109 0-1.199-9.963-.226-20.24-2.944-30.021-5.461-39.08-12.475-50.342-23.373-48.817-33.878-47.347-40.424-36.677-43.184-27.351-46.159-17.3-45.569-6.781-45.732 3.568-45.749 4.609-47.235 4.575-47.326 3.568-48.425-8.603-48.546-21.504-43.686-32.955-40.037-41.554-32.75-50.423-22.779-51.255-13.049-52.066-5.848-43.653-2.428-35.451 2.259-24.209 1.154-11.814 0 0"/>
<path transform="matrix(1,0,0,-1,311.3428,94.905307)" d="M0 0C-1.69 1.984-4.705 2.584-7.174 1.844-8.304 1.505-9.282 .863-10.202 .142-11.055-.526-11.907-1.455-12.866-1.953-14.449-2.775-16.611-2.148-15.517 .212-15.462 .331-15.486 .458-15.601 .532L-16.01 .795C-16.239 .943-16.556 .929-16.786 .795-19.649-.867-18.348-4.506-15.375-5.089-13.504-5.456-11.791-4.627-10.31-3.547-9.239-2.766-8.291-1.778-7.062-1.247-5.014-.362-3.447-1.09-1.6-2.074-.239-2.798 .964-1.132 0 0"/>
<path transform="matrix(1,0,0,-1,325.6416,94.689517)" d="M0 0C-.233-.018-.44-.339-.215-.52 2.168-2.44-1.034-3.482-2.626-2.772-3.481-2.39-4.18-1.676-4.906-1.105-6.044-.211-7.204 .682-8.639 1.032-10.966 1.6-13.727 .585-13.902-2.027-13.979-3.183-12.52-3.576-11.768-2.911-8.954-.425-6.884-3.621-4.353-4.942-2.842-5.73-.93-6.117 .644-5.226 2.714-4.053 3.055 .24 0 0"/>
<path transform="matrix(1,0,0,-1,317.7293,99.28171)" d="M0 0C-2.147-.851-3.873-1.899-6.277-1.941-8.765-1.985-11.02-1.13-13.171 .047-13.609 .286-14.011-.264-13.691-.628-10.423-4.352-2.739-5.304 .798-1.371 1.294-.82 .821 .325 0 0"/>
<path transform="matrix(1,0,0,-1,316.8754,105.0477)" d="M0 0C-2.007-.742-3.352-2.547-5.435-3.171-6.643-3.533-7.925-3.456-9.001-2.734-10.019-2.053-10.212-1.061-10.88-.135-10.994 .023-11.245 .105-11.395-.069-13.287-2.251-9.767-4.834-7.853-5.259-4.74-5.949-.655-3.74 .697-.907 .905-.47 .551 .204 0 0"/>
<path transform="matrix(1,0,0,-1,316.9464,80.86011)" d="M0 0C-.966 3.847-1.292 7.878-1.215 11.838-1.213 11.943-1.374 11.966-1.399 11.863-2.149 8.783-2.486 5.931-2.156 2.757-1.839-.285 2.083-9.145-3.727-9.289-4.331-9.304-4.681-10.224-4.058-10.512-1.471-11.706 .732-9.926 1.32-7.26 1.854-4.836 .576-2.293 0 0"/>
<path transform="matrix(1,0,0,-1,305.1224,71.97601)" d="M0 0C-1.73-.662-3.029-1.705-5.019-1.262-6.72-.882-7.697 .403-8.867 1.565-9.29 1.986-10.149 1.697-10.107 1.052-9.779-3.927-1.235-6.012 1.112-1.446 1.466-.757 .862 .33 0 0"/>
<path transform="matrix(1,0,0,-1,326.7274,72.7796)" d="M0 0C-.966-.516-1.335-1.513-2.533-1.719-3.823-1.941-4.641-1.163-5.564-.414-5.889-.149-6.567-.276-6.51-.806-6.319-2.597-4.462-3.861-2.743-3.95-1.056-4.038 1.595-2.83 1.481-.85 1.438-.096 .681 .364 0 0"/>
<path transform="matrix(1,0,0,-1,286.254,78.88229)" d="M0 0C.534-.229 1.205 .42 .682 .883-1.966 3.227-5.897 .913-6.594-2.154-7.025-4.048-6.522-6.091-5.559-7.743-4.49-9.578-2.487-12.048-.355-12.526 .172-12.645 .519-12.128 .306-11.666-.682-9.514-3.255-8.438-4.365-6.193-5.92-3.047-4.1 1.757 0 0"/>
<path transform="matrix(1,0,0,-1,338.8411,81.553989)" d="M0 0C-.541 2.537-2.864 5.652-5.782 4.692-6.245 4.54-6.221 3.935-5.782 3.773-2.931 2.724-1.156 .57-1.83-2.62-2.394-5.29-4.363-7.145-5.784-9.347-6.32-10.178-5.132-11.032-4.447-10.379-1.807-7.867 .812-3.805 0 0"/>
<path transform="matrix(1,0,0,-1,303.8577,59.6528)" d="M0 0C-.443 .401-1.066-.098-.81-.625 .066-2.428 2.57-4.429 3.048-6.315 3.659-8.724-1.11-8.309-3.054-8.183-8.435-7.835-12.674-5.595-17.225-2.93-17.724-2.638-18.213-3.303-17.831-3.715-13.132-8.792-4.978-10.866 1.738-9.837 8.898-8.741 3.305-2.991 0 0"/>
<path transform="matrix(1,0,0,-1,321.4179,60.129915)" d="M0 0C-.415 .103-.672-.386-.403-.692 .18-1.354 .96-2.529 1.022-3.402 1.182-5.671-1.841-6.316-3.647-6.232-5.369-6.153-7.771-4.864-9.192-4.158-12.066-2.729-14.405-.682-16.996 1.166-17.411 1.463-18.021 .866-17.712 .45-14.542-3.822-6.507-9.139-.913-8.024 2.874-7.27 4.263-1.062 0 0"/>
<path transform="matrix(1,0,0,-1,332.3373,70.792209)" d="M0 0C-4.846 1.776-7.354 5.555-9.519 9.99-9.656 10.272-10.109 10.132-10.101 9.832-9.957 4.445-5.232 .06-.465-1.687 .594-2.076 1.051-.385 0 0"/>
<path transform="matrix(1,0,0,-1,282.5332,58.384309)" d="M0 0C-2.227-6.458-2.541-14.089 .261-20.433 .529-21.041 1.418-20.592 1.289-20-.209-13.151-.643-7.195 1.371-.378 1.633 .507 .296 .857 0 0"/>
<path transform="matrix(1,0,0,-1,348.3621,57.579713)" d="M0 0C-5.932 2.385-12.859 3.076-19.185 3.811-26.13 4.619-33.125 4.903-40.113 4.675-53.452 4.241-67.372 2.269-79.869-2.546-81.562-3.198-80.935-5.788-79.105-5.318-65.89-1.929-52.913 .926-39.202 1.275-32.825 1.437-26.434 1.18-20.09 .502-13.445-.208-6.987-2.067-.376-2.777 1.342-2.962 1.346-.541 0 0"/>
<path transform="matrix(1,0,0,-1,335.2953,57.043306)" d="M0 0C-.215 .294-.839 .251-.786-.213-.399-3.583 .705-6.705 .564-10.172 .402-14.174-1.116-17.293-2.263-21.023-2.439-21.595-1.624-22.12-1.219-21.632 3.044-16.497 4.027-5.511 0 0"/>
<path transform="matrix(1,0,0,-1,328.8718,37.748994)" d="M0 0C-5.325 5.595-13.344 7.117-20.777 6.361-32.924 5.127-53.612-4.17-47.22-19.899-46.778-20.988-45.175-20.603-45.427-19.404-48.459-5.035-32.615 2.27-20.777 3.521-9.289 4.735 5.894-2.576 1.789-16.431 1.305-18.063 3.781-18.716 4.32-17.128 6.39-11.034 4.369-4.591 0 0"/>
<path transform="matrix(1,0,0,-1,331.0856,44.224397)" d="M0 0C-8.01 2.334-17.481 1.99-25.705 1.083-33.439 .229-42.276-1.087-49.027-5.125-49.736-5.549-49.243-6.527-48.492-6.396-40.178-4.942-32.415-2.066-23.891-1.356-15.857-.686-8.267-1.805-.291-2.148 .963-2.202 1.165-.339 0 0"/>
<path transform="matrix(1,0,0,-1,289.2414,98.3569)" d="M0 0C-.226 .348-.769 .129-.671-.283 .424-4.904 2.068-9.156 2.592-13.928 3.053-18.116 2.499-22.239 2.667-26.412 2.696-27.116 3.683-27.262 3.895-26.578 6.33-18.73 4.448-6.868 0 0"/>
<path transform="matrix(1,0,0,-1,304.678,124.732608)" d="M0 0C-2.711 1.049-6.007 .398-8.901 .509-12.281 .64-15.671 1.195-19.047 1.119-19.582 1.107-19.631 .407-19.167 .229-15.947-1.009-12.328-1.338-8.901-1.576-5.917-1.783-2.606-2.358 .129-.985 .583-.757 .395-.153 0 0"/>
<path transform="matrix(1,0,0,-1,306.2917,129.5488)" d="M0 0C-.395 1.635-.954 3.392-1.938 4.773-2.352 5.354-3.375 5.029-3.152 4.261-2.716 2.762-2.105 1.348-1.805-.195-1.544-1.54-1.803-3.186-1.05-4.357-.778-4.779-.14-4.814 .124-4.357 .858-3.087 .327-1.356 0 0"/>
<path transform="matrix(1,0,0,-1,284.9688,123.70209)" d="M0 0C-1.232-2.514-2.06-5.392-2.811-8.085-3.137-9.254-1.373-9.726-1.003-8.583-.142-5.924 .743-3.074 1.106-.3 1.183 .286 .248 .507 0 0"/>
<path transform="matrix(1,0,0,-1,307.6993,138.1344)" d="M0 0C-.6 3.526-1.1 7.077-2.05 10.529-2.262 11.297-3.49 11.162-3.462 10.337-3.357 7.197-2.902 4.081-2.465 .968-10.312 1.738-17.006 4.572-24.63 6.367-25.011 6.456-25.408 5.933-25.048 5.648-18.613 .557-9.082-.925-1.122-1.473-.301-1.53 .117-.688 0 0"/>
<path transform="matrix(1,0,0,-1,318.1821,125.474918)" d="M0 0C-.153 .298-.306 .596-.459 .895-.87 1.695-2.203 1.516-2.399 .641-3.462-4.106-4.948-9.001-5.251-13.868-5.282-14.363-4.48-14.615-4.276-14.133-2.509-9.947-1.636-5.31-.581-.878-.111-.913 .228-.443 0 0"/>
<path transform="matrix(1,0,0,-1,331.8409,122.140018)" d="M0 0C-2.812-.272-5.622-.553-8.431-.855-10.578-1.085-12.986-1.023-14.87-2.141-15.267-2.376-15.15-2.926-14.749-3.069-12.611-3.836-10.101-3.265-7.869-3.08-5.244-2.862-2.622-2.621 0-2.375 1.51-2.234 1.521 .147 0 0"/>
<path transform="matrix(1,0,0,-1,332.6549,123.052188)" d="M0 0C-.21 .618-1.074 .495-1.12-.152-1.267-2.198-.973-4.512-.574-6.521-.39-7.448 1.14-7.246 1.083-6.296 .962-4.254 .658-1.937 0 0"/>
<path transform="matrix(1,0,0,-1,332.7603,129.0361)" d="M0 0C-6.863-2.695-13.07-7.014-20.003-9.735-21.33-10.256-20.74-12.426-19.409-11.89-12.703-9.188-4.658-6.131 .608-1.045 1.032-.635 .599 .235 0 0"/>
<path transform="matrix(1,0,0,-1,325.4398,119.427707)" d="M0 0C-.165 2.017-.043 4 .311 5.992 .516 7.147-1.263 7.633-1.452 6.478-2.073 2.687-2.321-2.157-.196-5.555 .056-5.959 .782-5.825 .75-5.299 .641-3.516 .146-1.786 0 0"/>
<path transform="matrix(1,0,0,-1,313.5888,138.35681)" d="M0 0C-1.165-.018-2.041-.703-3.278-.463-4.478-.23-5.132 .641-6.154 1.162-6.498 1.338-6.87 1.119-6.894 .737-7.096-2.373-.618-4.038 .762-1.328 1.057-.749 .701 .011 0 0"/>
<path transform="matrix(1,0,0,-1,282.7006,132.5593)" d="M0 0C-1.749-.049-3.489-.628-5.173-1.066-6.539-1.422-8.305-1.44-9.026-2.785-9.197-3.105-9.103-3.502-8.787-3.694-7.475-4.491-5.944-3.612-4.579-3.222-2.907-2.744-1.119-2.36 .41-1.514 1.109-1.127 .804 .023 0 0"/>
<path transform="matrix(1,0,0,-1,309.7859,148.96439)" d="M0 0C-6.257 1.125-12.37 2.702-18.284 5.06-24.15 7.398-29.413 10.894-35.203 13.317-35.565 13.469-35.811 12.935-35.568 12.69-26.998 4.052-12.258-.244-.598-2.17 .813-2.403 1.432-.258 0 0"/>
<path transform="matrix(1,0,0,-1,339.7772,134.61539)" d="M0 0C-4.904-2.7-9.811-5.394-14.701-8.121-19.329-10.703-25.256-15.562-30.731-14.846-31.111-14.796-31.263-15.33-31.029-15.566-27.674-18.948-22.885-15.354-19.552-13.521-12.626-9.713-5.713-5.884 1.191-2.037 2.518-1.298 1.332 .733 0 0"/>
<path transform="matrix(1,0,0,-1,341.292,135.8923)" d="M0 0C-.64 1.329-2.385 2.14-3.561 2.981-5.034 4.035-6.47 5.163-8.123 5.922-8.816 6.24-9.509 5.444-8.956 4.842-7.805 3.59-6.412 2.631-5.051 1.625-3.816 .712-2.366-.864-.829-1.079-.188-1.168 .297-.615 0 0"/>
</g>
</svg>
