<svg xmlns="http://www.w3.org/2000/svg" viewBox="356.71 25.16 135.96 135.96">
<g fill="#9fe3e6">
<path transform="matrix(1,0,0,-1,451.7758,72.5293)" d="M0 0C-.197 1.294-2.138 .736-1.959-.54-.557-10.497 1.035-21.684-4.389-30.792-9.541-39.446-19.234-41.516-28.608-40.655-37.575-39.831-47.701-37.141-52.483-28.791-57.725-19.638-54.836-9.539-54.128 .261-54.082 .903-55.04 .987-55.218 .408-58.381-9.862-59.367-23.383-52.4-32.385-46.742-39.696-36.608-42.141-27.831-42.809-18.536-43.516-8.875-41.231-3.375-33.122 3.257-23.344 1.67-11 0 0"/>
<path transform="matrix(1,0,0,-1,435.6539,102.053318)" d="M0 0C-4.731-10.809-21.453-5.201-28.052 .214-28.268 .39-28.553 .117-28.362-.096-21.877-7.298-3.433-12.772 1.659-.97 2.143 .152 .496 1.134 0 0"/>
<path transform="matrix(1,0,0,-1,419.8437,77.838199)" d="M0 0C-.118 .169-.409 .268-.564 .073-1.25-.789-1.155-1.892-1.228-2.962-1.329-4.445-1.404-5.929-1.492-7.412-1.563-8.62 .391-8.636 .399-7.412 .407-6.022 .424-4.631 .424-3.241 .424-2.156 .643-.922 0 0"/>
<path transform="matrix(1,0,0,-1,420.0988,90.45679)" d="M0 0C-.647 .523-1.191 .423-1.965 .618-2.872 .847-3.693 1.367-4.045 2.266-4.33 2.994-4.276 3.972-3.548 4.424-2.921 4.814-2.125 4.683-1.635 4.151-1.144 3.616-.285 4.302-.642 4.918-1.25 5.968-2.47 6.319-3.619 6.019-4.894 5.685-5.729 4.569-5.793 3.264-5.861 1.88-5.14 .557-4.01-.219-2.967-.935-1.021-1.656 0-.63 .156-.472 .188-.152 0 0"/>
<path transform="matrix(1,0,0,-1,415.8328,95.223209)" d="M0 0C-.381-.65-.868-1.192-1.486-1.624-2.089-2.044-2.788-2.304-3.361-2.757-3.653-2.988-3.536-3.488-3.246-3.653-1.3-4.758 1.207-2.879 2.185-1.277 3.035 .115 .823 1.407 0 0"/>
<path transform="matrix(1,0,0,-1,423.2687,96.24371)" d="M0 0C-.704 .149-1.31-.17-1.952 .266-2.146 .398-2.297 .557-2.415 .758-2.759 1.341-2.801 1.606-3.507 1.871-3.835 1.994-4.199 1.838-4.442 1.624-4.493 1.58-4.543 1.535-4.594 1.491-4.917 1.206-5.047 .665-4.919 .259-4.585-.795-3.85-1.667-2.841-2.137-1.868-2.591-.29-2.876 .522-1.977 1.081-1.358 .918-.194 0 0"/>
<path transform="matrix(1,0,0,-1,418.5012,95.18469)" d="M0 0C-.61-.062-1.139-.208-1.623-.591-2.154-1.011-1.833-1.935-1.23-2.079-.739-2.197-.209-2.13 .266-1.964 .734-1.8 1.059-1.378 .982-.867 .914-.418 .501 .051 0 0"/>
<path transform="matrix(1,0,0,-1,420.1965,96.2735)" d="M0 0C-1.252-.213-2.722-.207-3.897-.686-4.484-.925-4.748-1.439-4.724-1.926-4.935-1.881-5.12-1.843-5.26-1.824-6.34-1.682-6.441-3.165-5.758-3.66-3.18-5.531 1.302-4.931 1.621-1.235 1.7-.33 .745 .126 0 0"/>
<path transform="matrix(1,0,0,-1,411.5243,73.850589)" d="M0 0C-.176 .327-.699 .498-1.015 .266-1.91-.389-2.528-1.733-3.794-1.675-4.444-1.645-5.006-1.263-5.386-.751-5.734-.282-5.78 .316-6.239 .692-6.491 .899-6.78 .903-7.034 .692-7.828 .035-7.449-1.301-7.005-2.074-6.402-3.124-5.324-3.916-4.117-4.075-2.087-4.342 1.295-2.41 0 0"/>
<path transform="matrix(1,0,0,-1,433.7042,73.420688)" d="M0 0C-.307 .485-.954 .572-1.374 .177-2.123-.528-2.301-1.672-3.413-2-4.658-2.367-5.519-1.239-5.881-.214-6.217 .738-7.584 .581-7.642-.452-7.767-2.701-5.594-4.576-3.416-4.425-1.549-4.294 1.32-2.086 0 0"/>
<path transform="matrix(1,0,0,-1,438.3364,43.495515)" d="M0 0C-.085 .406-.698 .3-.706-.096-.899-10.12-11.247-16.305-19.174-20.431-26.731-24.365-37.038-29.173-45.224-24.936-45.909-24.581-46.793-25.325-46.335-26.047-41.139-34.246-24.849-25.916-18.791-22.802-10.718-18.652 2.284-10.888 0 0"/>
<path transform="matrix(1,0,0,-1,451.7695,70.490207)" d="M0 0C-5.075-1.766-10.443-1.713-15.231 .931-18.907 2.96-20.983 6.113-23.503 9.309-23.748 9.621-24.185 9.274-24.116 8.952-21.841-1.701-8.492-5.153 .557-2.019 1.822-1.581 1.277 .445 0 0"/>
<path transform="matrix(1,0,0,-1,430.0453,32.902009)" d="M0 0C-6.306 2.707-13.522 .859-19.313-2.223-29.367-7.572-45.869-19.737-39.769-33.089-39.355-33.995-37.996-33.337-38.213-32.433-41.199-19.953-30.54-11.55-21.103-5.552-10.885 .942 3.826 2.189 7.652-11.942 7.723-12.204 8.072-12.124 8.097-11.882 8.657-6.589 4.664-2.002 0 0"/>
<path transform="matrix(1,0,0,-1,391.6541,86.80029)" d="M0 0C-5.331 6.163-10.29 15.937-1.323 21.503-.643 21.925-1.073 23.129-1.889 22.845-5.857 21.467-8.059 17.474-8.309 13.395-8.663 7.623-5.101 2.637-1.492-1.492-.595-2.517 .884-1.022 0 0"/>
<path transform="matrix(1,0,0,-1,400.0391,103.94479)" d="M0 0C-6.322-1.886-13.554-.288-16.583 6.094-19.369 11.967-16.117 16.284-11.768 19.909-11.47 20.157-11.808 20.523-12.103 20.483-18.811 19.569-20.752 10.609-18.42 5.318-15.15-2.1-6.705-4.208 .569-2.064 1.888-1.676 1.325 .395 0 0"/>
<path transform="matrix(1,0,0,-1,436.6913,39.60199)" d="M0 0C-.615-.012-.678-.827-.139-1.028 6.016-3.329 12.147-4.674 16.731-9.827 21.609-15.311 22.723-23.398 18.618-29.608 17.893-30.705 19.643-31.709 20.372-30.634 29.813-16.694 14.824 .278 0 0"/>
<path transform="matrix(1,0,0,-1,457.6308,67.17801)" d="M0 0C-.182-.033-.293-.297-.182-.448 .621-1.541 .783-1.219 1.937-2.393 3.717-4.204 4.087-6.849 3.49-9.23 2.503-13.167-.743-15.924-3.739-18.393-4.654-19.147-3.343-20.452-2.435-19.697 1.509-16.413 5.77-12.287 5.518-6.71 5.392-3.931 3.359 .602 0 0"/>
<path transform="matrix(1,0,0,-1,458.7615,81.36481)" d="M0 0C-.525 .09-.861-.579-.373-.885 5.095-4.319 5.217-10.342 .945-14.862-2.129-18.114-6.312-19.193-10.109-21.253-11.159-21.822-10.441-23.478-9.303-23.166-3.433-21.555 3.414-17.615 5.431-11.463 6.881-7.039 5.108-.879 0 0"/>
<path transform="matrix(1,0,0,-1,430.4527,124.435398)" d="M0 0C-8.523-.057-16.55-.204-24.892 2.03-30.938 3.65-50.961 10.053-42.624 19.316-42.105 19.892-42.772 20.883-43.485 20.433-46.256 18.686-46.947 15.342-45.936 12.29-44.464 7.842-39.506 5.419-35.583 3.639-24.85-1.231-11.494-4.052 .197-1.458 1.021-1.275 .829 .005 0 0"/>
<path transform="matrix(1,0,0,-1,458.9981,99.14899)" d="M0 0C-.885 .461-1.532-.734-.765-1.309 13.994-12.371-5.136-27.569-15.375-32.277-27.719-37.952-41.118-38.714-54.359-36.433-55.235-36.282-55.62-37.538-54.733-37.789-38.913-42.258-21.016-38.889-7.271-30.073-1.609-26.442 4.219-21.439 5.785-14.582 7.039-9.097 5.177-2.694 0 0"/>
<path transform="matrix(1,0,0,-1,422.4769,137.776)" d="M0 0C-9.408-2.166-19.129-1.756-28.207 1.649-38.336 5.447-46.083 14.825-36.247 24.055-35.803 24.472-36.366 25.12-36.871 24.865-45.755 20.385-43.87 8.775-36.906 3.614-26.546-4.064-11.55-4.954 .577-2.094 1.938-1.773 1.362 .314 0 0"/>
<path transform="matrix(1,0,0,-1,429.3155,153.78922)" d="M0 0C-1.487 2.449-2.806 4.923-3.759 7.636-4.622 10.092-4.949 12.691-5.803 15.127-6.116 16.019-7.36 15.851-7.43 14.907-7.828 9.523-4.843 3.246-1.916-1.12-1.128-2.295 .749-1.233 0 0"/>
<path transform="matrix(1,0,0,-1,453.256,142.9827)" d="M0 0C-4.226-.786-8.202-3.065-12.134-4.77-16.638-6.721-21.262-8.526-25.58-10.866-26.318-11.266-25.817-12.504-25.002-12.237-20.875-10.883-16.898-9.037-12.907-7.328-8.501-5.441-3.408-3.936 .47-1.114 1.029-.707 .699 .13 0 0"/>
<path transform="matrix(1,0,0,-1,454.1905,143.17441)" d="M0 0C-1.1 1.722-2.409 3.224-3.27 5.1-4.286 7.313-4.702 9.588-4.83 12.006-4.895 13.243-6.765 13.262-6.767 12.006-6.775 7.451-4.84 1.738-.855-.855-.333-1.194 .333-.52 0 0"/>
<path transform="matrix(1,0,0,-1,429.4114,36.742616)" d="M0 0C-.083 1.183-1.917 1.204-1.859 0-.998-17.955-17.247-29.134-34.034-24.696-34.314-24.622-34.522-25.055-34.238-25.181-17.046-32.8 1.27-18.097 0 0"/>
<path transform="matrix(1,0,0,-1,421.1304,39.932313)" d="M0 0C-3.272-7.274-9.947-12.477-17.872-13.695-18.218-13.749-18.14-14.34-17.789-14.309-9.321-13.563-2.098-8.644 1.498-.875 1.965 .134 .456 1.014 0 0"/>
<path transform="matrix(1,0,0,-1,448.945,65.83099)" d="M0 0C-3.555-.319-7.404 .215-10.116 2.743-11.412 3.951-12.363 5.481-12.945 7.149-13.42 8.512-13.23 9.834-14.019 11.048-14.201 11.328-14.593 11.332-14.774 11.048-16.74 7.965-13.086 2.81-10.688 .922-7.552-1.548-3.48-2.208 .177-.655 .496-.52 .336 .03 0 0"/>
<path transform="matrix(1,0,0,-1,450.9504,59.51129)" d="M0 0C-2.353 1.172-4.79 1.998-6.974 3.507-9.518 5.267-11.543 7.404-13.295 9.946-13.967 10.921-15.563 10.018-14.901 9.008-11.797 4.269-6.127-.515-.213-.786 .196-.805 .374-.186 0 0"/>
</g>
</svg>
