<svg xmlns="http://www.w3.org/2000/svg" viewBox="244.99 175.21 146.75 146.75">
<g fill="#9fe3e6">
<path transform="matrix(1,0,0,-1,337.64,264.99)" d="M0 0C-1.34-2.43-3.05-4.73-5.04-6.72-5.8-7.49-6.6-8.2-7.44-8.87H-7.45C-11.28-11.91-15.91-13.81-20.96-13.67-23.96-13.59-26.63-13.02-28.99-12.05-29.71-11.75-30.41-11.42-31.08-11.05-40.56-5.81-44.44 6.44-45.49 18.21-45.53 18.71-45.57 19.21-45.61 19.71-45.38 19.74-45.15 19.78-44.93 19.83-44.33 19.95-43.76 20.12-43.21 20.36-43.19 19.81-43.18 19.27-43.15 18.72-43.11 17.62-43.04 16.52-42.93 15.43-42.6 11.93-41.93 8.46-40.64 5.06-37.58-3.01-30.6-10.61-21.55-11.24-12.34-11.89-4.64-4.87-.93 3.01 3.46 12.37 2.74 22.96 3.06 33.02 3.08 33.69 4.02 33.7 4.09 33.05 5.26 22.17 5.47 9.88 0 0"/>
<path transform="matrix(1,0,0,-1,320.5362,236.27622)" d="M0 0C3.113 4.191 12.523 5.98 16.429 1.434 16.731 1.083 16.128 .561 15.58 .81 10.958 2.913 5.155 3.102 2.304-.861 1.541-1.923-.786-1.059 0 0"/>
<path transform="matrix(1,0,0,-1,312.53,237.45999)" d="M0 0C-.01-.41-.46-.68-.95-.71-1.29-.74-1.65-.65-1.88-.4-3.45 1.31-4.73 2.96-8.04 3.12-8.91 3.17-9.77 3.09-10.59 2.92-11.13 2.8-11.65 2.64-12.14 2.43-12.12 3.02-12.11 3.62-12.09 4.22-11.6 4.37-11.08 4.49-10.57 4.58-9.29 4.82-8.02 4.91-7.17 4.85-5.73 4.74-4.21 4.31-2.94 3.66-2.94 3.66-2.94 3.65-2.93 3.65-1.22 2.76 .03 1.47 0 0"/>
<path transform="matrix(1,0,0,-1,332.4372,238.55191)" d="M0 0C.175-1.848 .697-3.996 .307-5.825-.052-7.513-2.285-7.316-2.842-5.91-3.201-5.003-3.18-3.976-3.251-3.013-3.323-2.04-3.395-1.067-3.467-.094-3.633 2.143-.209 2.207 0 0"/>
<path transform="matrix(1,0,0,-1,306.5141,239.25479)" d="M0 0C.175-1.849 .697-3.997 .307-5.825-.052-7.513-2.284-7.316-2.842-5.91-3.201-5.003-3.18-3.976-3.251-3.013-3.323-2.04-3.395-1.067-3.467-.094-3.633 2.143-.209 2.207 0 0"/>
<path transform="matrix(1,0,0,-1,331.9175,269.8957)" d="M0 0C.222 .33 .834 .273 .821-.199 .754-2.743-.061-5.244-.301-7.788-.547-10.389-.496-12.971-.22-15.568-.085-16.846-2.094-16.9-2.219-15.622-2.695-10.784-2.829-4.208 0 0"/>
<path transform="matrix(1,0,0,-1,307.22,273.8239)" d="M0 0C1.697-2.742 3.019-7.976 1.733-11.061 1.54-11.524 .812-11.396 .687-10.953 .261-9.435 .489-7.796 .285-6.227 .03-4.256-.656-2.428-1.115-.506-1.273 .155-.383 .618 0 0"/>
<path transform="matrix(1,0,0,-1,315.941,258.14039)" d="M0 0C-.574 .046-1.2-.044-1.767 .052-3.149 .287-3.011 1.717-2.536 2.717-2.17 3.488-1.585 4.08-1.319 4.922-.871 6.339-.917 8.024-1.709 9.301-1.896 9.602-2.429 9.499-2.408 9.112-2.29 6.977-2.349 5.38-3.697 3.613-4.309 2.81-5.001 1.996-4.891 .91-4.648-1.494-1.651-1.927 .162-1.197 .794-.942 .713-.057 0 0"/>
<path transform="matrix(1,0,0,-1,318.9214,265.6868)" d="M0 0C-1.207 .134-2.369-.76-3.62-.809-5.027-.865-6.178-.302-7.488 .075-7.898 .193-8.331-.304-8.07-.682-7.095-2.095-5.268-2.629-3.62-2.665-2.149-2.698 .086-2.392 .61-.801 .751-.373 .383-.043 0 0"/>
<path transform="matrix(1,0,0,-1,334.86,248.74)" d="M0 0C-4-3.86-11.25-3.16-13.43 2.27-14.61 5.21-14.7 8.44-13.74 11.24-13.35 12.4-12.77 13.48-12.02 14.43-11.84 14.56-11.68 14.69-11.49 14.82-11.49 14.83-11.48 14.83-11.48 14.83-11.48 14.83-11.47 14.84-11.46 14.84-7.45 17.71-2.05 19.26 1.33 14.66V14.65C1.46 14.47 1.59 14.28 1.72 14.08 1.85 13.88 1.97 13.67 2.09 13.45 4.36 9.19 3.49 3.36 0 0M3.42 15.08C.14 20.31-5.64 20.42-10.38 17.98-13.82 16.2-15.59 12.81-16.04 9.12-16.86 9.49-17.76 9.68-18.65 9.64-19.39 9.61-20.46 9.43-21.12 8.9-21.21 11.08-21.81 13.23-22.97 15.08-25.16 18.58-28.47 19.78-31.84 19.47-32.55 19.41-33.26 19.27-33.96 19.07-34.17 18.33-34.29 17.56-34.35 16.78-33.82 16.99-33.28 17.17-32.74 17.3-30.04 17.96-27.32 17.5-25.27 14.94-25.27 14.94-25.27 14.93-25.26 14.93-25.07 14.66-24.86 14.39-24.67 14.08-23.99 13-23.53 11.81-23.28 10.57-22.52 6.83-23.64 2.65-26.39 0-30.39-3.86-37.64-3.16-39.82 2.27-39.87 2.38-39.91 2.49-39.95 2.61-40.14 3.11-40.29 3.61-40.41 4.12-40.42 4.15-40.43 4.17-40.43 4.2V4.11C-40.98 3.87-41.55 3.7-42.15 3.58-42.05 3.14-41.94 2.71-41.81 2.28-41.79 2.22-41.77 2.16-41.75 2.11-41.39 1-40.84 .02-40.15-.82-36.99-4.7-30.89-5.59-26.52-2.63-23.13-.33-21.25 3.7-21.11 7.77-20.37 7.74-19.57 8.06-18.82 8.03-17.79 8-16.97 7.62-16.15 7.07-16.13 5.45-15.88 3.82-15.42 2.28-13.47-4.09-5.5-6.26-.13-2.63 5.4 1.12 6.93 9.48 3.42 15.08"/>
<path transform="matrix(1,0,0,-1,327.58,211.19)" d="M0 0C-.16 .04-.3 .04-.43 .01-.78 1.61-1.42 3.18-2.37 4.62-2.68 5.09-3.39 4.68-3.13 4.18-.52-.82-.73-6.93-5.19-10.88-8.56-13.86-12.45-13.86-16.65-13.55-20.54-13.26-24.56-13.46-26.33-17.5-26.47-17.82-26.58-18.15-26.68-18.48-26.89-19.22-27.01-19.99-27.07-20.77-27.1-21.19-27.12-21.62-27.14-22.05-27.16-22.65-27.17-23.25-27.19-23.84-27.21-24.34-27.24-24.83-27.29-25.31-27.69-29.08-29.98-32.11-33.13-33.43-33.14-33.44-33.15-33.44-33.15-33.44-33.7-33.68-34.27-33.85-34.87-33.97-35.09-34.02-35.32-34.06-35.55-34.09-36.71-34.24-37.94-34.18-39.2-33.87-45.52-32.32-50.49-24.85-44.98-19.41-43.24-17.69-41.5-16.43-40.59-14.06-38.09-7.54-41.96-.59-39.15 6.06-36.07 13.33-28.82 18.37-21.76 21.32-14.07 24.52-5.02 25.48 2.6 21.55 6.42 19.58 9.8 16.33 10.92 12.06 12.71 5.18 7.5-2.15 0 0M5.9 21.62C-6.85 30.54-25.52 24.53-35.62 14.26-41 8.8-42.68 2.76-41.95-4.73-41.77-6.54-41.5-8.4-41.61-10.22-41.84-13.86-43.87-15.77-46.25-18.15-48.24-20.14-49.47-22.18-49.3-25.07-48.84-32.62-41.75-36.36-35.43-35.59-35.11-35.55-34.79-35.5-34.47-35.44-34-35.35-33.54-35.23-33.09-35.08-32.95-35.04-32.81-34.99-32.67-34.94-29.27-33.72-26.5-30.98-25.76-26.6-25.59-25.62-25.62-24.49-25.64-23.35-25.65-22.79-25.65-22.24-25.62-21.69-25.6-21.19-25.55-20.71-25.46-20.25-25.38-19.84-25.27-19.44-25.1-19.08-24.93-18.71-24.75-18.38-24.56-18.08-22.6-14.97-19.36-15.02-15.96-15.28-12.12-15.59-8.61-15.29-5.39-12.99-1.6-10.3 .13-6.04-.18-1.81 5.5-3.29 11.27 0 12.73 5.81 14.3 12.04 10.93 18.1 5.9 21.62"/>
<path transform="matrix(1,0,0,-1,341.103,234.28781)" d="M0 0C-1.395 .596-4.761 1.629-1.386 4.583-.82 5.078-1.288 6.014-1.981 6.02-5.626 6.053-8.924 7.435-11.174 10.362-12.635 12.264-12.635 14.955-14.235 16.565-14.269 16.599-14.321 16.588-14.346 16.551-15.93 14.189-13.382 10.303-11.739 8.498-9.562 6.106-6.661 4.808-3.538 4.446-4.671 2.002-3.554-1.437-.276-1.019 .181-.961 .567-.242 0 0"/>
<path transform="matrix(1,0,0,-1,355.0497,219.0416)" d="M0 0C-.801 7.992-7.121 14.84-15.137 15.831-15.783 15.911-15.849 14.926-15.284 14.742-7.113 12.081-1.002 5.82-1.737-3.334-2.405-11.65-9.403-15.879-14.19-21.742-14.861-22.563-13.813-23.667-13.008-22.924-6.298-16.732 .998-9.952 0 0"/>
<path transform="matrix(1,0,0,-1,346.8752,237.16809)" d="M0 0C-.237 .73-1.298 .432-1.145-.316-.16-5.132-1.906-9.18-5.692-12.18-6.344-12.697-5.505-13.743-4.812-13.321-.485-10.686 1.55-4.777 0 0"/>
<path transform="matrix(1,0,0,-1,294.1008,252.4138)" d="M0 0C-1.172 .662-2.24 1.247-3.111 2.31-4.039 3.442-4.387 4.712-4.852 6.064-5.035 6.596-5.843 6.522-5.853 5.928-5.901 2.954-3.312-.376-.578-1.371 .229-1.664 .729-.412 0 0"/>
<path transform="matrix(1,0,0,-1,308.6062,283.42939)" d="M0 0C-1.842-.027-3.301-.404-5.065-1.052-5.844-1.338-6.837-1.963-7.675-1.998-7.838-2.067-7.995-2.113-8.147-2.143-9.416-2.597-10.815-2.484-11.999-1.459-13.825 .123-13.838 2.848-12.598 4.784-12.529 4.893-12.452 4.987-12.371 5.072-12.256 5.23-12.152 5.387-12.008 5.551-11.676 6.229-12.221 6.943-12.963 6.793-24.295 4.492-30.977 19.075-21.223 25.735-19.294 27.053-13.911 29.576-17.568 32.449-18.248 32.984-19.225 32.057-18.54 31.477-16.633 29.86-22.667 26.913-23.397 26.296-24.739 25.162-25.816 23.655-26.551 22.066-27.808 19.352-28.122 16.207-27.25 13.335-25.518 7.628-19.786 4.562-14.141 4.961-15.343 2.164-16.127-1.295-13.174-3.242-9.088-5.935-4.161-1.826 0-1.781 1.146-1.769 1.148 .016 0 0"/>
<path transform="matrix(1,0,0,-1,358.5829,256.2469)" d="M0 0C-1.086 6.011-6.815 9.395-11.742 12.025-12.886 12.635-13.903 10.902-12.76 10.284-7.172 7.268-.296 3.245-2.023-4.33-3.537-10.972-10.739-11.479-15.71-13.843-16.735-14.33-17.734-15.016-18.268-16.05-19.412-18.266-17.117-20.218-16.793-22.322-16.426-24.704-18.14-27.727-20.568-28.278-20.588-28.31-20.608-28.341-20.628-28.372-21.83-28.683-23.036-28.768-24.247-28.627-25.536-28.58-26.842-28.365-28.127-28.253-28.826-28.193-28.908-29.239-28.287-29.435-24.073-30.763-17.706-31.227-15.517-26.306-14.639-24.333-15.156-22.749-15.917-20.806-18.198-14.986-11.74-14.859-8.122-13.13-3.134-10.745 1.057-5.849 0 0"/>
<path transform="matrix(1,0,0,-1,329.7285,284.3146)" d="M0 0C-4.931-8.83-15.288-7.43-20.419 .223-20.77 .746-21.76 .431-21.505-.235-17.498-10.695-3.457-9.834 1.633-.954 2.239 .104 .594 1.063 0 0"/>
<path transform="matrix(1,0,0,-1,345.618,292.8224)" d="M0 0C-6.966-12.13-20.518-19.544-34.561-17.775-41.645-16.883-48.4-13.835-53.716-9.054-57.42-5.723-61.363-.131-54.188 2.29-51.948 3.045-50.399 3.324-48.722 5.034-48.211 5.554-48.889 6.521-49.526 6.077-53.605 3.237-64.213 3.249-60.219-4.611-56.591-11.747-47.602-16.77-40.225-18.914-23.744-23.704-6.351-15.927 2.051-1.199 2.809 .131 .762 1.327 0 0"/>
<path transform="matrix(1,0,0,-1,347.1786,292.8512)" d="M0 0C-.831 1.565-2.191 2.825-3.368 4.133-4.651 5.56-5.954 6.968-7.257 8.377-8.201 9.399-9.718 7.874-8.781 6.853-7.484 5.439-6.189 4.024-4.872 2.629-3.664 1.348-2.529-.079-1.037-1.037-.37-1.465 .339-.638 0 0"/>
<path transform="matrix(1,0,0,-1,325.5917,206.64621)" d="M0 0C-.274 .767-1.485 .455-1.235-.341 .087-4.554-.719-8.992-4.34-11.806-7.543-14.294-11.449-13.97-15.137-12.849-18.174-11.925-21.445-10.761-24.514-12.225-26.904-13.366-27.985-15.63-28.624-18.091-29.068-19.8-29.155-21.58-29.498-23.307-29.849-25.075-30.214-26.296-31.206-27.848-31.63-29.229-32.529-30.142-33.903-30.589-36.743-33.026-39.248-31.682-41.42-26.557-41.42-26.502-41.495-26.497-41.512-26.545-42.965-30.522-39.144-33.616-35.273-32.833-29.206-31.605-28.531-24.636-27.553-19.754-26.794-15.967-25.531-12.885-20.73-12.863-18.013-12.85-15.525-14.362-12.911-14.859-10.594-15.299-8.441-15.298-6.19-14.432-.266-12.154 2.059-5.758 0 0"/>
<path transform="matrix(1,0,0,-1,343.2095,221.40882)" d="M0 0C-5.692-1.347-11.079 3.192-9.881 9.108-9.699 10.009-11.067 10.398-11.267 9.49-12.757 2.721-6.466-3.4 .195-.708 .624-.535 .472 .112 0 0"/>
<path transform="matrix(1,0,0,-1,306.8341,283.31233)" d="M0 0C-4.458 .574-7.441 3.881-7.897 8.282-8.061 9.857-7.569 11.301-8.489 12.748-8.951 13.474-9.621 13.773-10.272 14.247-11.416 15.079-12.092 15.067-13.143 16.27-14.937 18.322-14.71 22.56-13.053 24.798-13.026 24.835-13.081 24.89-13.118 24.862-15.261 23.238-16.435 21.072-15.848 18.259-15.24 15.338-13.37 15.124-11.577 13.279-8.656 10.275-9.979 6.034-7.562 2.688-5.711 .124-3.06-1.144 0-1.531 .976-1.655 .965-.124 0 0"/>
<path transform="matrix(1,0,0,-1,342.2344,251.4933)" d="M0 0C-.663 .562-1.557-.307-.961-.961 4.935-7.44 2.49-17.528-6.81-18.697-7.225-18.749-7.655-19.108-7.487-19.586-5.786-24.402-4.453-29.614-9.314-33.313-9.438-33.407-9.374-33.635-9.199-33.584-6.217-32.718-4.712-30.201-4.484-27.139-4.359-25.448-6.087-21.862-5.609-20.725-5.001-19.279-3.158-19.392-1.74-18.578 5.077-14.661 6.018-5.101 0 0"/>
</g>
</svg>
