<svg xmlns="http://www.w3.org/2000/svg" viewBox="-11.42 178.76 164.83 164.83">
<g fill="#9fe3e6">
<path transform="matrix(1,0,0,-1,96.2351,230.5874)" d="M0 0C-.187 1.425-2.356 1.534-2.313 0-2.038-9.667-.684-19.406-3.951-28.782-6.792-36.935-13.569-44.716-22.597-45.6-31.78-46.5-39.677-39.688-43.591-31.907-48.235-22.674-47.808-12.063-48.393-2.022-48.431-1.354-49.37-1.362-49.424-2.022-50.306-12.929-50.178-25.218-44.447-34.943-40.041-42.419-32.158-48.545-23.12-48.044 .032-46.762 2.238-17.057 0 0"/>
<path transform="matrix(1,0,0,-1,68.1114,235.30191)" d="M0 0C-3.225 5.924-12.681 8.137-16.462 1.425-16.754 .907-16.138 .178-15.597 .56-11.033 3.773-5.238 4.273-2.28-1.333-1.488-2.834 .815-1.496 0 0"/>
<path transform="matrix(1,0,0,-1,83.1849,229.4166)" d="M0 0C-3.393-.51-7.165-3.6-7.042-7.276-7.009-8.275-5.679-8.667-5.15-7.788-3.626-5.254-2.393-2.823 .915-2.459 2.405-2.295 3.884-2.629 5.183-3.384 6.113-3.925 6.68-4.707 7.761-4.869 8.009-4.906 8.174-4.775 8.206-4.53 8.666-1.057 2.504 .376 0 0"/>
<path transform="matrix(1,0,0,-1,56.2764,238.96192)" d="M0 0C-.125-1.852-.588-4.014-.149-5.831 .256-7.508 2.482-7.251 3.001-5.831 3.336-4.914 3.286-3.888 3.332-2.923 3.377-1.949 3.423-.974 3.469 0 3.574 2.241 .149 2.212 0 0"/>
<path transform="matrix(1,0,0,-1,82.209,238.96192)" d="M0 0C-.125-1.852-.588-4.014-.149-5.831 .256-7.508 2.482-7.251 3.001-5.831 3.336-4.914 3.286-3.888 3.332-2.923 3.377-1.949 3.423-.974 3.469 0 3.574 2.241 .149 2.212 0 0"/>
<path transform="matrix(1,0,0,-1,77.3187,263.8641)" d="M0 0C-1.334 .327-2.683-.513-4.038-.513-5.494-.512-6.771 .281-8.198 .332-8.596 .347-8.888-.068-8.785-.439-7.917-3.578-.241-4.453 .508-.894 .586-.518 .4-.098 0 0"/>
<path transform="matrix(1,0,0,-1,48.7574,255.5915)" d="M0 0C-1.071 1.84-2.652 3.245-3.567 5.231-4.566 7.402-4.73 9.593-5.29 11.872-5.407 12.352-6.18 12.374-6.284 11.872-7.118 7.852-4.603 1.129-.898-.898-.329-1.209 .337-.579 0 0"/>
<path transform="matrix(1,0,0,-1,99.2969,238.1977)" d="M0 0C-.007 .015-.029 .006-.029-.008-.094-2.54 .084-4.985-.529-7.477-1.143-9.973-2.535-11.984-3.651-14.247-4.005-14.963-3.085-15.807-2.486-15.147 .804-11.522 1.95-4.486 0 0"/>
<path transform="matrix(1,0,0,-1,57.6455,270.2801)" d="M0 0C-.231 .324-.84 .25-.815-.221-.679-2.763 .203-5.24 .512-7.777 .829-10.37 .847-12.953 .642-15.557 .541-16.837 2.551-16.837 2.642-15.557 2.987-10.707 2.943-4.13 0 0"/>
<path transform="matrix(1,0,0,-1,82.4405,273.5373)" d="M0 0C-1.623-2.787-2.801-8.055-1.433-11.104-1.227-11.561-.503-11.414-.39-10.968-.005-9.439-.277-7.806-.116-6.233 .086-4.256 .721-2.409 1.128-.476 1.268 .19 .366 .628 0 0"/>
<path transform="matrix(1,0,0,-1,59.5395,278.85029)" d="M0 0C-7.425-.877-15.97-5.998-21.657-10.653-22.423-11.28-21.439-12.486-20.616-12.002-17.196-9.993-13.96-7.741-10.428-5.911-6.953-4.109-3.082-2.867 .205-.757 .512-.56 .429 .051 0 0"/>
<path transform="matrix(1,0,0,-1,100.1607,291.288)" d="M0 0C-4.126 5.578-11.156 12.518-18.442 13.318-18.911 13.37-18.983 12.722-18.663 12.503-15.891 10.614-12.651 9.519-9.88 7.55-6.619 5.234-3.805 2.374-1.43-.836-.803-1.684 .635-.859 0 0"/>
<path transform="matrix(1,0,0,-1,74.8737,249.3113)" d="M0 0C-.316-.119-.387-.521-.093-.714 1.021-1.447 2.522-2.372 2.088-3.965 1.682-5.453 .126-5.75-1.187-5.682-1.704-5.655-1.795-6.33-1.431-6.585 .437-7.894 3.164-6.25 3.65-4.246 4.128-2.279 2.333 .878 0 0"/>
<path transform="matrix(1,0,0,-1,49.2742,223.46952)" d="M0 0C-.511-1.732-1.026-3.462-1.501-5.205-1.916-6.728-2.517-8.273-2.461-9.866-2.453-10.075-2.196-10.132-2.082-9.968-1.171-8.659-.837-7.026-.358-5.52 .188-3.798 .694-2.065 1.205-.332 1.433 .441 .227 .771 0 0"/>
<path transform="matrix(1,0,0,-1,50.3513,223.7172)" d="M0 0C-.149 .486-.769 .339-.829-.112-1.093-2.098-.697-4.287-.567-6.283-.511-7.138 .844-7.127 .761-6.283 .561-4.248 .6-1.96 0 0"/>
<path transform="matrix(1,0,0,-1,85.0427,228.11609)" d="M0 0C-5.747-.511-11.502-.904-17.269-1.09-23-1.276-28.887-.795-34.57-1.517-34.869-1.555-35.011-2.031-34.649-2.1-23.651-4.191-11.077-2.595 0-1.609 1.023-1.518 1.033 .092 0 0"/>
<path transform="matrix(1,0,0,-1,87.4944,217.6659)" d="M0 0C-1.071-1.826-1.446-4.144-1.908-6.191-2.308-7.966-3.077-10.022-2.57-11.813-2.535-11.937-2.381-11.942-2.313-11.846-1.198-10.273-1.145-7.939-.701-6.083-.237-4.143 .527-2.163 .626-.169 .643 .171 .163 .278 0 0"/>
<path transform="matrix(1,0,0,-1,87.9026,217.7073)" d="M0 0C-.116 .259-.563 .132-.539-.146-.203-4.041 .61-7.788 .624-11.73 .626-12.515 1.841-12.516 1.843-11.73 1.852-7.887 1.595-3.552 0 0"/>
<path transform="matrix(1,0,0,-1,95.1335,229.38959)" d="M0 0C-1.079 .089-2.158-.163-3.253-.061-4.167 .023-5.18 .487-6.072 .188-6.24 .132-6.339-.063-6.24-.225-5.696-1.117-4.435-1.275-3.47-1.412-2.226-1.589-.85-1.695 .319-1.179 .95-.901 .554-.046 0 0"/>
<path transform="matrix(1,0,0,-1,46.9452,242.5408)" d="M0 0C-1.609-1.689-3.532-4.433-3.248-6.899-3.218-7.155-2.871-7.309-2.723-7.041-2.168-6.032-1.924-4.894-1.374-3.872-.773-2.757-.012-1.777 .895-.895 1.48-.326 .563 .591 0 0"/>
<path transform="matrix(1,0,0,-1,98.6437,243.9014)" d="M0 0C-.472 1.023-1.192 2.103-2.187 2.675-2.53 2.872-3.022 2.455-2.764 2.098-2.123 1.211-1.408 .449-1.015-.595-.731-1.35-.858-2.407-.156-2.884-.011-2.982 .208-2.941 .327-2.821 1.033-2.113 .353-.766 0 0"/>
<path transform="matrix(1,0,0,-1,64.2066,190.4159)" d="M0 0C-8.607 1.634-17.6-3.64-23.123-9.894-29.559-17.182-32.603-26.875-33.656-36.392-35.684-54.727-28.721-78.712-7.191-82.009-6.196-82.161-5.771-80.637-6.772-80.487-26.689-77.518-33.719-55.995-32.415-38.844-31.748-30.081-29.519-21.111-24.306-13.888-18.294-5.558-10.008-1.984-.089-.66 .247-.615 .411-.078 0 0"/>
<path transform="matrix(1,0,0,-1,110.1746,217.9563)" d="M0 0C-3.217 10.77-10.225 20.323-20.282 25.592-27.949 29.609-42.083 33.09-48.652 25.462-48.948 25.119-48.498 24.667-48.155 24.965-40.257 31.817-26.179 27.487-18.442 22.532-9.689 16.927-3.892 7.905-1.255-2.046 1.155-11.14 1.042-20.987-1.845-29.959-4.779-39.081-12.125-50.558-22.717-51.195-23.836-51.262-23.842-53.017-22.717-52.945-12.587-52.297-5.251-42.695-1.578-34.042 2.935-23.412 3.291-11.019 0 0"/>
<path transform="matrix(1,0,0,-1,55.1432,198.75159)" d="M0 0C-5.231-5.546-7.973-13.704-6.931-21.288-6.85-21.877-5.89-21.729-5.903-21.149-6.077-13.182-4.328-6.763 .245-.189 .347-.043 .121 .128 0 0"/>
<path transform="matrix(1,0,0,-1,71.2638,198.09329)" d="M0 0C-.04 .07-.144 .008-.108-.063 4.633-9.429 6.076-19.378 6.48-29.742 6.52-30.75 7.988-30.746 8.043-29.742 8.62-19.166 5.118-9.092 0 0"/>
<path transform="matrix(1,0,0,-1,84.4575,195.11859)" d="M0 0C-.111 .121-.275-.054-.177-.177 8.167-10.626 11.222-23.18 9.738-36.339 9.641-37.198 11.11-37.404 11.257-36.545 13.508-23.331 9.008-9.764 0 0"/>
<path transform="matrix(1,0,0,-1,99.0073,207.5192)" d="M0 0C-.05 .075-.167 .008-.121-.071 3.375-6.075 5.378-12.85 5.569-19.809 5.755-26.543 3.673-32.19 1.861-38.515 1.7-39.077 2.469-39.363 2.775-38.901 10.266-27.583 7.023-10.598 0 0"/>
<path transform="matrix(1,0,0,-1,53.7606,265.8012)" d="M0 0C-22.182 7.966-20.046 34.352-16.627 52.98-16.601 53.126-16.811 53.189-16.853 53.042-22.241 34.138-22.654 6.578-.44-1.597 .559-1.965 .999-.359 0 0"/>
<path transform="matrix(1,0,0,-1,40.7376,231.17639)" d="M0 0C.133 3.68 1.043 7.158 1.729 10.752 1.753 10.877 1.584 10.964 1.515 10.842-1.688 5.208-2.655-3.654-.319-9.759-.121-10.277 .763-10.262 .724-9.618 .529-6.383-.118-3.263 0 0"/>
<path transform="matrix(1,0,0,-1,102.7538,252.0175)" d="M0 0C-2.101-6.377-6.585-10.707-11.956-14.39-12.783-14.956-12.076-16.149-11.175-15.725-4.996-12.82-1.177-6.495 .377-.104 .436 .142 .078 .238 0 0"/>
<path transform="matrix(1,0,0,-1,79.663,294.7496)" d="M0 0C-3.989 1.141-7.869 2.539-11.623 4.316-14.616 5.731-17.385 7.643-20.44 8.891-20.863 9.064-21.178 8.435-20.873 8.147-15.62 3.181-7.251 .422-.432-1.567 .574-1.86 1.005-.287 0 0"/>
<path transform="matrix(1,0,0,-1,80.7149,283.6803)" d="M0 0C-.525-2.366-1.593-4.445-3.436-6.064-4.264-6.792-5.212-7.371-6.198-7.86-6.921-8.219-7.921-8.404-8.276-9.192-8.29-9.222-8.288-9.252-8.265-9.277-6.832-10.817-3.304-8.303-2.166-7.334-.047-5.527 1.351-2.99 1.703-.23 1.827 .739 .21 .945 0 0"/>
<path transform="matrix(1,0,0,-1,97.6267,290.78413)" d="M0 0C-7.031-11.708-18.282-16.007-31.595-13.29-41.979-11.171-52.316-7.046-59.661 .757-59.922 1.034-60.35 .681-60.176 .359-54.686-9.761-39.071-14.339-28.502-15.74-15.778-17.427-4.575-12.309 1.592-.931 2.157 .113 .613 1.02 0 0"/>
<path transform="matrix(1,0,0,-1,85.4927,330.6978)" d="M0 0C-1.426 2.785-7.107 2.839-9.688 3.014-18.297 3.596-29.429 1.006-35.205-5.893-35.499-6.243-35.134-6.788-34.701-6.546-29.787-3.8-25.456-.888-19.852 .413-17.211 1.026-14.489 1.325-11.778 1.296-10.001 1.277-8.218 1.129-6.466 .825-5.939 .734 .149-.819-2.128-2.29-2.852-2.758-2.379-3.804-1.556-3.647 .166-3.318 .799-1.56 0 0"/>
</g>
</svg>
