<svg xmlns="http://www.w3.org/2000/svg" viewBox="10.73 27.42 118.69 118.69">
<g fill="#9fe3e6">
<path transform="matrix(1,0,0,-1,96.2351,69.982089)" d="M0 0C-.187 1.425-2.356 1.534-2.313 0-2.038-9.667-.684-19.406-3.951-28.782-6.792-36.935-13.569-44.716-22.597-45.6-31.78-46.5-39.677-39.688-43.591-31.907-48.235-22.674-47.808-12.063-48.393-2.022-48.431-1.355-49.37-1.362-49.424-2.022-50.306-12.929-50.178-25.218-44.447-34.943-40.041-42.419-32.158-48.545-23.12-48.045 .032-46.762 2.238-17.058 0 0"/>
<path transform="matrix(1,0,0,-1,66.2673,74.696598)" d="M0 0C-3.225 5.924-12.681 8.137-16.462 1.425-16.754 .907-16.138 .178-15.597 .56-11.033 3.773-5.238 4.273-2.28-1.333-1.488-2.834 .815-1.496 0 0"/>
<path transform="matrix(1,0,0,-1,83.1849,68.81131)" d="M0 0C-3.393-.51-7.165-3.6-7.042-7.275-7.009-8.275-5.679-8.667-5.15-7.788-3.626-5.254-2.393-2.823 .915-2.459 2.405-2.295 3.884-2.629 5.183-3.384 6.113-3.925 6.68-4.707 7.761-4.869 8.009-4.906 8.174-4.775 8.206-4.53 8.666-1.057 2.504 .376 0 0"/>
<path transform="matrix(1,0,0,-1,56.2764,78.3566)" d="M0 0C-.125-1.853-.588-4.014-.149-5.831 .256-7.509 2.482-7.251 3.001-5.831 3.336-4.914 3.286-3.888 3.332-2.923 3.377-1.949 3.423-.974 3.469 0 3.574 2.241 .149 2.212 0 0"/>
<path transform="matrix(1,0,0,-1,82.209,78.3566)" d="M0 0C-.125-1.853-.588-4.014-.149-5.831 .256-7.509 2.482-7.251 3.001-5.831 3.336-4.914 3.286-3.888 3.332-2.923 3.377-1.949 3.423-.974 3.469 0 3.574 2.241 .149 2.212 0 0"/>
<path transform="matrix(1,0,0,-1,69.7469,93.6712)" d="M0 0C-.826-.01-2.105-.573-2.845-.388-4.57 .042-3.859 2.288-3.734 3.414-3.463 5.847-2.933 8.4-3.091 10.846-3.107 11.091-3.477 11.25-3.601 10.984-4.535 8.978-4.936 6.728-5.501 4.595-5.952 2.896-7.041 .814-6.311-.931-5.122-3.77-1.231-3.671 .795-1.92 1.546-1.272 .932 .012 0 0"/>
<path transform="matrix(1,0,0,-1,72.6531,103.25879)" d="M0 0C-1.334 .326-2.683-.513-4.038-.513-5.495-.512-6.771 .281-8.198 .332-8.596 .347-8.888-.069-8.785-.439-7.917-3.578-.241-4.453 .507-.894 .586-.518 .4-.098 0 0"/>
<path transform="matrix(1,0,0,-1,77.4452,50.018007)" d="M0 0C-.119 1.31-2.179 1.325-2.063 0-1.481-6.62-10.387-12.185-15.378-15.079-20.138-17.838-25.485-18.904-30.306-21.356-30.506-21.458-30.392-21.734-30.199-21.749-23.44-22.264-15.591-17.938-10.237-14.141-5.638-10.88 .57-6.276 0 0"/>
<path transform="matrix(1,0,0,-1,94.9708,70.62079)" d="M0 0C-8.765 3.174-13.826 9.308-18.504 17.044-18.785 17.509-19.471 17.198-19.361 16.683-17.436 7.685-8.956 .71-.577-2.094 .758-2.541 1.3-.471 0 0"/>
<path transform="matrix(1,0,0,-1,75.1642,42.796388)" d="M0 0C-9.158 10.983-23.844 3.127-30.036-6.652-36.515-16.882-41.514-36.438-28.407-44.077-28.034-44.295-27.694-43.807-27.962-43.5-36.837-33.326-35.919-21.07-29.523-9.635-24.239-.186-10.657 9.326-1.536-1.536-.635-2.609 .889-1.066 0 0"/>
<path transform="matrix(1,0,0,-1,99.7502,48.638216)" d="M0 0C-5.051 8.415-18.176 15.028-27.083 8.19-27.424 7.928-27.246 7.348-26.776 7.462-21.532 8.738-16.885 9.553-11.656 7.483-6.767 5.549-2.999 1.743-.726-2.974 4.249-13.3 1.038-24.905-5.14-33.915-5.887-35.005-4.115-36.028-3.372-34.948 3.674-24.701 6.74-11.229 0 0"/>
<path transform="matrix(1,0,0,-1,48.7574,94.986209)" d="M0 0C-1.071 1.84-2.652 3.245-3.567 5.231-4.566 7.402-4.73 9.593-5.29 11.872-5.407 12.352-6.18 12.375-6.284 11.872-7.118 7.852-4.603 1.129-.898-.898-.329-1.209 .337-.579 0 0"/>
<path transform="matrix(1,0,0,-1,99.2969,77.59241)" d="M0 0C-.007 .015-.029 .006-.029-.008-.094-2.54 .084-4.985-.529-7.477-1.143-9.973-2.535-11.984-3.651-14.247-4.005-14.963-3.085-15.807-2.486-15.147 .804-11.522 1.95-4.486 0 0"/>
<path transform="matrix(1,0,0,-1,71.7033,48.526887)" d="M0 0C-6.885-11.809-19.579-15.793-28.627-25.211-29.123-25.727-28.463-26.685-27.832-26.242-17.868-19.243-4.466-12.016 .186-.078 .228 .031 .057 .097 0 0"/>
<path transform="matrix(1,0,0,-1,64.1938,46.115694)" d="M0 0C-4.297-6.159-10.013-10.666-15.306-15.884-18.531-19.064-23.707-23.762-22.078-28.751-21.969-29.085-21.443-29.04-21.449-28.666-21.547-21.676-14.319-16.419-9.611-12.089-5.726-8.515-2.058-4.957 .27-.158 .358 .024 .115 .165 0 0"/>
<path transform="matrix(1,0,0,-1,80.2559,46.3779)" d="M0 0C-.058 .137-.255 .089-.226-.062 1.6-9.718 11.374-15.071 13.688-24.665 13.909-25.582 15.502-25.413 15.376-24.436 14.077-14.44 3.75-8.923 0 0"/>
<path transform="matrix(1,0,0,-1,87.3178,48.21991)" d="M0 0C-.212 .138-.477-.193-.274-.356 4.077-3.861 7.569-8.503 9.288-13.86 11.156-19.683 9.634-24.677 9.444-30.51 9.43-30.947 10.013-31.058 10.231-30.723 16.873-20.498 8.893-5.779 0 0"/>
<path transform="matrix(1,0,0,-1,57.6455,109.674808)" d="M0 0C-.231 .324-.84 .25-.815-.221-.679-2.763 .203-5.24 .512-7.777 .829-10.37 .847-12.953 .642-15.557 .541-16.837 2.551-16.837 2.642-15.557 2.987-10.707 2.943-4.13 0 0"/>
<path transform="matrix(1,0,0,-1,82.4405,112.93201)" d="M0 0C-1.623-2.787-2.801-8.055-1.433-11.104-1.227-11.561-.503-11.414-.39-10.968-.005-9.439-.277-7.806-.116-6.233 .086-4.255 .721-2.409 1.128-.476 1.268 .19 .366 .628 0 0"/>
<path transform="matrix(1,0,0,-1,82.1595,121.325199)" d="M0 0C-1.057 .06-1.056-1.707 0-1.641 .054-3.9 .108-6.159 .162-8.418-.601-8.747-1.365-9.076-2.128-9.404-3.115-9.76-4.152-10.025-5.165-10.292-8.315-11.123-11.535-11.726-14.793-11.898-17.714-12.052-20.622-11.847-23.475-11.176-26.697-10.418-26.069-10.772-25.839-6.415-25.582-1.569-26.266-2.794-23.089-1.595-22.655-1.432-22.69-.753-23.203-.751-27.12-.738-33.261-3.567-30.862-8.502-28.562-13.231-20.043-13.562-15.694-13.465-10.215-13.342-.594-12.68 3.202-7.957 5.935-4.557 4.376-.247 0 0"/>
<path transform="matrix(1,0,0,-1,59.5395,118.244998)" d="M0 0C-7.425-.877-15.97-5.998-21.657-10.653-22.423-11.28-21.439-12.486-20.616-12.002-17.196-9.993-13.96-7.741-10.428-5.91-6.953-4.109-3.082-2.867 .205-.757 .512-.56 .429 .051 0 0"/>
<path transform="matrix(1,0,0,-1,100.1607,130.68271)" d="M0 0C-4.126 5.578-11.156 12.518-18.442 13.318-18.911 13.37-18.983 12.722-18.663 12.503-15.891 10.614-12.651 9.519-9.88 7.55-6.619 5.234-3.805 2.374-1.43-.836-.803-1.684 .635-.858 0 0"/>
<path transform="matrix(1,0,0,-1,99.4818,130.96521)" d="M0 0C-10.491-4.226-21.419-8.123-32.861-8.293-37.741-8.366-42.646-7.762-47.319-6.34-52.663-4.713-56.763-1.832-61.456 1.01-61.725 1.173-62.126 .827-61.915 .55-56.031-7.189-44.454-10.032-35.215-10.335-22.705-10.744-10.601-6.628 .771-1.828 1.802-1.392 1.054 .424 0 0"/>
</g>
</svg>
