<svg xmlns="http://www.w3.org/2000/svg" viewBox="122.40 25.93 140.60 140.60">
<g fill="#9fe3e6">
<path transform="matrix(1,0,0,-1,169.457,75.74631)" d="M0 0C.187 1.425 2.356 1.534 2.312 0 2.038-9.667 .684-19.406 3.951-28.782 6.792-36.935 13.569-44.716 22.597-45.6 31.781-46.5 39.677-39.688 43.591-31.907 48.235-22.674 47.808-12.063 48.393-2.022 48.431-1.354 49.37-1.362 49.424-2.022 50.307-12.929 50.178-25.218 44.447-34.943 40.041-42.419 32.158-48.545 23.12-48.045-.032-46.762-2.238-17.058 0 0"/>
<path transform="matrix(1,0,0,-1,197.5808,81.52341)" d="M0 0C3.225 4.105 12.68 5.638 16.462 .988 16.754 .629 16.138 .124 15.596 .388 11.033 2.614 5.237 2.961 2.28-.924 1.488-1.964-.815-1.037 0 0"/>
<path transform="matrix(1,0,0,-1,182.5073,77.44531)" d="M0 0C3.393-.353 7.165-2.494 7.042-5.041 7.009-5.734 5.678-6.006 5.15-5.397 3.626-3.641 2.393-1.956-.915-1.704-2.405-1.59-3.884-1.822-5.183-2.345-6.113-2.72-6.68-3.262-7.761-3.374-8.009-3.399-8.174-3.309-8.206-3.139-8.666-.733-2.504 .261 0 0"/>
<path transform="matrix(1,0,0,-1,209.4157,84.12079)" d="M0 0C.125-1.853 .588-4.014 .149-5.831-.256-7.509-2.482-7.251-3.001-5.831-3.336-4.915-3.286-3.889-3.332-2.923-3.377-1.949-3.423-.975-3.469 0-3.574 2.241-.149 2.212 0 0"/>
<path transform="matrix(1,0,0,-1,183.4831,84.12079)" d="M0 0C.125-1.853 .588-4.014 .149-5.831-.256-7.509-2.482-7.251-3.001-5.831-3.336-4.915-3.286-3.889-3.332-2.923-3.377-1.949-3.423-.975-3.469 0-3.574 2.241-.149 2.212 0 0"/>
<path transform="matrix(1,0,0,-1,208.0466,115.438999)" d="M0 0C.231 .324 .84 .25 .815-.221 .679-2.763-.203-5.24-.512-7.777-.829-10.37-.847-12.953-.642-15.557-.541-16.837-2.551-16.837-2.642-15.557-2.986-10.707-2.943-4.13 0 0"/>
<path transform="matrix(1,0,0,-1,183.2517,118.69629)" d="M0 0C1.622-2.787 2.801-8.055 1.433-11.104 1.227-11.561 .503-11.414 .39-10.968 .005-9.439 .277-7.806 .116-6.233-.086-4.256-.721-2.409-1.128-.476-1.268 .19-.366 .628 0 0"/>
<path transform="matrix(1,0,0,-1,197.2009,108.420688)" d="M0 0C-1.961 .45-3.133 1.079-4.156 2.89-4.547 3.582-5.489 3.501-5.898 2.89-6.138 2.531-7.35 3.234-7.73 3.181-8.143 3.123-8.382 2.984-8.737 2.72-9.005 2.522-9.213 2.26-9.423 2.005-10.229 1.025-10.85 .545-11.928-.078-12.061-.155-12.024-.347-11.887-.392-11.163-.632-10.65-.62-9.903-.291-9.291-.02-8.612 .961-8.013 1.091-7.354 1.233-6.51 .559-5.78 .648-5.448 .689-5.205 .787-4.991 .915-3.645-.239-1.681-.948 0-.663 .338-.606 .317-.073 0 0"/>
<path transform="matrix(1,0,0,-1,194.8798,108.249698)" d="M0 0C-1.145-1.452-2.859-2.333-4.746-1.996-6.135-1.749-7.045-.67-8.333-.321-8.4-.303-8.457-.354-8.461-.419-8.58-2.269-6.073-3.478-4.557-3.716-2.278-4.074-.115-3.073 1.304-1.304 2.041-.384 .732 .929 0 0"/>
<path transform="matrix(1,0,0,-1,190.9707,99.6712)" d="M0 0C-.925 .385-1.84 .468-2.75 .758-1.059 2.952-.014 5.809-.822 8.498-.867 8.647-1.102 8.662-1.139 8.498-1.801 5.576-2.594 3.083-4.959 1.072-5.417 .683-5.271-.137-4.768-.41-3.315-1.197-1.409-1.923 .138-1.057 .616-.789 .429-.179 0 0"/>
<path transform="matrix(1,0,0,-1,201.5516,55.36209)" d="M0 0C-3.563-4.468-6.551-9.165-10.893-12.975-15.038-16.613-24.792-24.314-30.592-21.213-31.51-20.721-32.445-21.891-31.709-22.661-27.206-27.371-17.638-20.702-13.689-17.883-7.731-13.629-1.592-7.508 .548-.319 .637-.023 .21 .264 0 0"/>
<path transform="matrix(1,0,0,-1,196.8203,39.401704)" d="M0 0C-8.639 4.063-19.806 5.453-27.819-.798-33.364-5.123-36.633-15.056-30.749-20.507-30.114-21.096-29.22-20.361-29.583-19.608-33.361-11.784-31.262-4.033-23.002-.243-15.59 3.158-7.797 1.2-.223-.528 .08-.598 .31-.146 0 0"/>
<path transform="matrix(1,0,0,-1,178.8041,118.38669)" d="M0 0C-5.686-8.106-19.092-9.109-24.444 .005-26.821 4.052-27.34 9.138-25.625 13.519-24.171 17.235-21.004 19.546-18.669 22.649-13.893 28.996-18.232 33.116-21.401 38.938-26.341 48.014-21.589 57.207-14.279 62.964-13.96 63.214-14.305 63.774-14.674 63.642-22.317 60.916-26.02 51.204-24.815 43.655-23.864 37.7-16.043 31.594-18.855 25.672-20.941 21.275-25.605 18.811-27.41 14.14-30.402 6.395-27.084-3.454-19.399-7.02-11.907-10.497-2.874-7.635 1.781-1.041 2.547 .045 .758 1.081 0 0"/>
<path transform="matrix(1,0,0,-1,224.8961,38.5979)" d="M0 0C-7.913 7.46-21.113 4.973-29.525-.167-30.03-.475-29.708-1.352-29.109-1.152-20.922 1.583-12.281 5.504-3.911 .716 .01-1.526 3.028-5.739 2.876-10.398 2.705-15.667-1.19-19.621-4.695-23.068-5.475-23.836-4.307-24.98-3.502-24.261 3.755-17.79 8.241-7.769 0 0"/>
<path transform="matrix(1,0,0,-1,233.3433,107.136508)" d="M0 0C-1.24 5.229-5.554 8.926-4.678 14.673-3.95 19.452-.872 23.493-.245 28.331 .67 35.387-2.483 44.437-9.294 47.614-9.547 47.731-9.797 47.439-9.597 47.221-4.409 41.544-.402 35.325-2.195 27.219-3.56 21.049-8.244 15.883-6.14 9.276-3.899 2.238 1.207-2.774-3.521-10.362-8.346-18.106-19.006-17.731-24.568-11.113-25.454-10.058-26.968-11.58-26.081-12.626-16.225-24.259 3.663-15.456 0 0"/>
<path transform="matrix(1,0,0,-1,218.4045,79.68521)" d="M0 0C-4.745 1.482-8.989 3.843-12.648 7.228-16.139 10.458-18.243 14.283-20.743 18.221-20.975 18.588-21.579 18.358-21.457 17.92-18.838 8.516-9.268 1.341-.49-1.778 .622-2.173 1.137-.355 0 0"/>
<path transform="matrix(1,0,0,-1,177.863,116.20709)" d="M0 0C-4.625 .385-9.536 .808-13.37 3.69-17.218 6.584-18.569 11.43-15.901 15.626-15.84 15.723-15.971 15.801-16.049 15.74-19.664 12.888-19.385 7.728-16.77 4.239-12.883-.948-5.973-1.716 0-2.25 1.439-2.379 1.437-.12 0 0"/>
<path transform="matrix(1,0,0,-1,226.4758,104.479099)" d="M0 0C-.025 .214-.345 .227-.344 0-.309-4.375-2.519-8.845-6.35-11.115-10.498-13.573-13.757-12.35-18.107-12.021-18.731-11.974-19.11-12.878-18.632-13.288-15.011-16.389-8.5-15.032-4.944-12.419-.978-9.505 .549-4.747 0 0"/>
<path transform="matrix(1,0,0,-1,183.6,124.87439)" d="M0 0C-2.16 .684-5.416-.632-6.129-2.95-6.685-4.755-5.565-6.63-5.188-8.342-4.363-12.084-5.284-15.402-6.325-18.992-6.521-19.666-5.625-19.957-5.254-19.443-3.268-16.689-2.718-13.318-3.076-9.969-3.242-8.424-4.072-6.907-4.178-5.419-4.354-2.947-3.748-2.191-1.738-1.15-.021-.259-1.477-1.41 .039-.3 .152-.217 .143-.045 0 0"/>
<path transform="matrix(1,0,0,-1,193.7729,139.06119)" d="M0 0C-2.196 4.204-5.443 8.427-9.876 10.385-10.194 10.525-10.564 10.148-10.273 9.87-6.828 6.571-3.6 3.499-1.524-.891-1.044-1.909 .53-1.015 0 0"/>
<path transform="matrix(1,0,0,-1,205.8348,130.28351)" d="M0 0C-7.116-3.949-17.225-10.024-15.759-19.669-15.724-19.896-15.346-19.89-15.307-19.669-13.64-10.414-6.907-5.783 .867-1.484 1.835-.949 .969 .538 0 0"/>
<path transform="matrix(1,0,0,-1,213.0771,139.3566)" d="M0 0C-3.468 3.638-.676 7.772-1.632 12.038-2.172 14.45-3.814 16.347-6.355 16.459-7.23 16.497-7.447 15.078-6.565 14.909 .718 13.511-7.275 1.898-.833-1.08-.148-1.397 .567-.595 0 0"/>
<path transform="matrix(1,0,0,-1,179.5422,136.2537)" d="M0 0C-2.886-.262-5.61-1.359-8.424-2.018-12.092-2.877-15.791-3.308-19.551-3.503-20.919-3.574-20.937-5.681-19.551-5.643-13.215-5.474-4.84-4.606 .105-.253 .198-.172 .127 .012 0 0"/>
<path transform="matrix(1,0,0,-1,229.6044,137.9042)" d="M0 0C-.308 .728-1.306 .267-1.354-.367-1.976-8.596-8.708-12.37-15.63-15.442-22.304-18.403-29.604-20.142-36.92-20.132-50.21-20.112-62.38-13.748-69.94-2.851-70.399-2.189-71.433-2.767-71.033-3.49-63.385-17.283-46.928-23.419-31.756-21.895-23.598-21.076-15.42-18.328-8.38-14.114-3.757-11.346 2.532-5.989 0 0"/>
<path transform="matrix(1,0,0,-1,228.8165,137.1511)" d="M0 0C-3.058 .053-5.975-.643-9.062-.357-12.509-.038-15.535 1.196-18.824 2.146-19.61 2.373-19.939 1.336-19.348 .904-14.429-2.693-5.189-4.198 .406-1.5 1.156-1.138 .752-.013 0 0"/>
</g>
</svg>
