<svg xmlns="http://www.w3.org/2000/svg" viewBox="488 102 1882 2642"><g transform="translate(0,2835) scale(1,-1)"><path d="M983 2230 L1750 1609 L2021 1386 L1547 1386 C1515 1386 1489 1366 1476 1343 C1460 1312 1465 1282 1483 1254 L1995 484 C2000 476 1991 464 1988 457 L1928 356 C1910 325 1878 305 1843 299 L1726 278 C1717 280 1710 292 1704 300 L1129 1066 C1114 1087 1094 1096 1070 1096 C1047 1095 1029 1083 1014 1063 L656 619 L656 2493Z M1369 2379 C1404 2443 1482 2462 1547 2430 C1591 2408 1629 2382 1671 2357 L1910 2212 C1942 2193 1971 2173 1988 2138 C2010 2091 2013 2032 1986 1982 L1892 1810 C1841 1826 1789 1819 1749 1785 L1261 2182Z M566 378 C590 370 628 369 646 391 L1070 916 L1626 175 C1655 136 1703 121 1750 131 L1864 155 C1936 170 1997 213 2038 274 L2115 406 C2145 457 2136 519 2103 569 L1649 1248 L2208 1248 C2240 1248 2263 1273 2269 1302 C2274 1333 2265 1362 2241 1382 L1989 1588 C2018 1638 2016 1698 1983 1745 L2015 1799 C2054 1775 2099 1779 2120 1815 C2158 1883 2209 1960 2152 2012 L2265 2225 C2285 2224 2303 2230 2315 2243 C2340 2270 2333 2318 2304 2335 C2289 2344 2271 2346 2254 2338 C2218 2322 2208 2276 2234 2243 L2124 2037 C2121 2033 2120 2031 2116 2031 C2112 2031 2109 2033 2109 2039 C2122 2199 2057 2349 1918 2433 L1735 2543 C1593 2629 1443 2606 1321 2497 C1300 2514 1279 2526 1252 2523 C1231 2521 1208 2508 1195 2486 C1177 2457 1161 2427 1152 2396 C1139 2355 1156 2315 1194 2298 L1170 2256 L796 2558 L641 2681 C618 2699 587 2703 560 2688 C541 2678 518 2652 518 2623 L519 439 C519 409 545 385 566 378" fill="#61C1C4"/><path d="M1818 1999 C1850 2005 1873 2035 1866 2071 C1861 2100 1833 2125 1797 2120 C1760 2114 1740 2079 1747 2046 C1754 2015 1784 1993 1818 1999" fill="#61C1C4"/><path d="M1492 2304 C1455 2300 1432 2266 1438 2232 C1444 2199 1478 2173 1515 2184 C1549 2194 1565 2227 1557 2257 C1550 2285 1523 2307 1492 2304" fill="#61C1C4"/></g></svg>
