<svg xmlns="http://www.w3.org/2000/svg" xmlns:xlink="http://www.w3.org/1999/xlink" xmlns:inkscape="http://www.inkscape.org/namespaces/inkscape" version="1.1" width="2119.32" height="995.6" viewBox="0 0 2119.32 995.6">
<defs>
<clipPath id="clip_1">
<path transform="matrix(1,0,0,-1,0,995.6)" d="M0 995.6H2119.32V0H0Z"/>
</clipPath>
</defs>
<g inkscape:groupmode="layer" inkscape:label="Layer 1">
<g clip-path="url(#clip_1)">
<path transform="matrix(1,0,0,-1,718.79,553.5199)" d="M0 0C31.73-12.12 66.26-13.18 98.8-3.43 135.62 7.6 162.83 35.98 173.55 72.52 177.39 85.63 178.66 97.83 179.85 111.84L180.14 296.46 118.59 296.35 118.57 121.19C118.34 107.34 117.01 94.75 111.87 82.27 98.86 50.69 62.39 40.59 30.92 50.79-1.04 61.15-8.67 90.24-9.61 122.5L-9.52 296.41-70.73 296.43-70.74 296.42-70.76 149.13C-71.12 126.16-71.02 104.81-67 82.49-60.19 44.75-36.05 13.77 0 0" fill="#61c1c4"/>
<path transform="matrix(1,0,0,-1,1274.3298,557.3197)" d="M0 0V-.01C48.51-13.62 103.08-5.62 141.18 28.7 159.93 46.22 172.14 68.77 178.3 94.16L113.73 96.36C107.73 77.91 94.92 63.92 77.15 56.43 33.32 37.96-15.8 58.59-32.29 105.15-41.53 131.24-41.51 159.71-34.32 186.35-28.3 208.68-14.68 226.41 4.76 238.29 26.27 248.69 50.47 250.52 72.86 242.24 94.18 234.39 108.31 217.29 114.12 195.43L177.31 203.21C168.09 246.37 138.11 279.47 97.58 295.01 60.2 307.7 19.75 307.36-16.91 291.8-95.29 258.54-120.12 162.56-91.84 85.79-76.28 43.54-43.23 12.12 0 0" fill="#61c1c4"/>
<path transform="matrix(1,0,0,-1,1979.81,557.9198)" d="M0 0-.23 86.67C.75 89.53 2.28 91.31 5.28 93.6L71.26 0 139.5 .65 49.97 122.56 133.34 219.49 66.05 219.95 .24 141.88 .01 312.13H-59.88V.03L-.02 .01Z" fill="#61c1c4"/>
<path transform="matrix(1,0,0,-1,998.1799,557.7699)" d="M0 0V-.01L-.1 119.81C-.55 148.86 13.71 171.75 43.92 172.1 65.54 172.35 80.43 157.95 81.86 136.8L82.14-.17 142.12-.13 142.01 139.82C139.84 177.41 126.16 210.73 88.82 221.64 67.63 227.83 44.91 227.27 24.36 218.83 12.12 213.81 3.57 204.73-5.45 194.15L-7.33 219.77-59.57 219.83-59.53-.17Z" fill="#61c1c4"/>
<path transform="matrix(1,0,0,-1,1836.72,552.2899)" d="M0 0V-.02C26.75 13.6 45.88 36.93 53.1 67.04L-7.35 72.9C-12.8 55.99-26.52 44.77-44.66 42.89-67.6 39.93-87.36 51.78-96.74 72.3-105.8 94.39-105.71 119.92-94.71 141.26-86.2 157.77-69.99 167.15-51.64 166.5-30.51 167.48-13.57 153.96-7.96 133.69L52.38 144.57C45.93 170.35 30.51 191.88 7.1 205.31-30.9 225.7-77.58 225.58-114.45 202.55-159.45 174.45-173.39 113.28-157.82 62.97-137.18-3.73-61.81-27.38 0 0" fill="#61c1c4"/>
<path transform="matrix(1,0,0,-1,1542.79,557.81979)" d="M0 0-.14 311.99-59.42 312-59.4-.12Z" fill="#61c1c4"/>
<path transform="matrix(1,0,0,-1,1642.25,337.93977)" d="M0 0-59.21-.02-59.22-220.01 .02-219.8Z" fill="#61c1c4"/>
<path transform="matrix(1,0,0,-1,1599.28,243.03986)" d="M0 0C-21.2-7.85-28.95-32.9-17.7-51.88-6.95-70.01 18.02-75.8 35.56-61.36L35.57-61.37C49.82-49.64 52.29-30.11 43.48-15.05 35.1-.72 16.74 6.19 0 0" fill="#61c1c4"/>
<path transform="matrix(1,0,0,-1,458.65,223.4599)" d="M0 0-29.29-53.71C-45.25-48.77-61.36-50.96-73.84-61.58L-226.53 62.36-192.73 123.97H-192.72C-181.65 144.15-157.53 149.91-137.08 139.97-123.45 133.01-111.41 125.07-98.17 117.07L-23.49 71.91C-13.58 65.92-4.44 59.71 .7 48.84 7.77 33.91 8.45 15.5 0 0M11.14-186.23-136.92-186.39C-147.17-186.4-155.28-192.59-159.12-199.92-164.11-209.44-162.85-218.79-156.96-227.67L2.88-468.38C4.56-470.91 1.85-474.66 .65-476.69L-17.92-508.13C-23.69-517.9-33.52-524.12-44.67-526.09L-81.15-532.54C-83.89-532.1-86.28-528.13-88.14-525.66L-267.72-286.35C-272.54-279.92-278.73-276.91-286.09-277.03-293.3-277.15-298.87-281.12-303.77-287.21L-415.5-426.19-415.57 159.78-313.49 77.62-313.47 77.61-73.68-116.78ZM99.55 110.21C94.76 112.97 89.08 113.72 83.79 111.27 72.53 106.07 69.43 91.74 77.58 81.68L43.17 17.26C42.39 15.79 42.05 15.17 40.66 15.23 39.53 15.28 38.52 15.89 38.66 17.75 42.58 67.81 22.36 114.79-21.14 140.98L-78.31 175.39C-122.59 202.04-169.47 195.08-207.57 160.89-214.13 166.35-220.88 169.91-229.17 169.01-235.75 168.3-243.13 164.27-247.21 157.45-252.58 148.48-257.6 139.17-260.65 129.22-264.53 116.56-259.29 104.08-247.4 98.84L-254.99 85.47-371.9 180.01-420.22 218.42C-427.37 224.1-437.24 225.18-445.68 220.61-451.37 217.53-458.65 209.5-458.65 200.18L-458.42-482.48C-458.42-491.83-450.1-499.07-443.72-501.33L-443.71-501.34C-436.23-503.99-424.25-504.31-418.57-497.27L-286.06-333.26-112.39-564.91C-103.26-577.08-88.29-581.8-73.7-578.7L-37.91-571.09C-15.51-566.33 3.47-553.02 16.51-534.02L40.61-492.58C49.86-476.68 47.1-457.37 36.7-441.79L-105.04-229.54 69.47-229.33C79.59-229.32 86.75-221.67 88.65-212.7 90.32-203.04 87.26-193.71 79.72-187.54L1.22-123.24C10.03-107.43 9.49-88.77-.64-74.2L9.29-57.38C21.4-64.66 35.56-63.55 41.96-52.21 54.04-30.83 69.79-6.86 51.89 9.2L87.35 75.76C93.69 75.73 99.31 77.35 103.09 81.57 110.69 90.04 108.64 104.98 99.55 110.21" fill="#61c1c4"/>
<path transform="matrix(1,0,0,-1,399.59,180.50989)" d="M0 0C-11.46-1.73-17.77-12.7-15.55-22.95-13.42-32.82-3.92-39.51 6.57-37.58H6.56C16.66-35.72 23.79-26.44 21.8-15.22 20.18-6.1 11.29 1.7 0 0" fill="#61c1c4"/>
<path transform="matrix(1,0,0,-1,304.38,122.86975)" d="M0 0H-.01C-11.68-1.27-18.65-11.87-16.78-22.37-14.9-32.97-4.27-40.9 7.21-37.45 17.71-34.3 22.77-24.13 20.42-14.79 18.22-6.05 9.84 1.06 0 0" fill="#61c1c4"/>
<path transform="matrix(1,0,0,-1,692.77,800.66989)" d="M0 0H28.32L44.3 61.82C46.19 69.12 47.67 76.72 48.72 84.62 49.008 86.769 49.324 88.935 49.657 91.111 50.032 88.766 50.399 86.434 50.75 84.13 51.97 76.13 53.44 68.69 55.17 61.82L71.23 0H99.46L131.99 120.89H104.89L90.85 61.42C89.77 56.44 88.73 51.13 87.73 45.48 86.73 39.82 85.78 34.15 84.89 28.44 84.711 27.293 84.531 26.163 84.351 25.036 84.151 26.163 83.951 27.293 83.75 28.44 82.75 34.15 81.74 39.83 80.71 45.48 79.68 51.13 78.54 56.44 77.3 61.42L62.62 120.89H36.9L22.13 61.42C20.88 56.44 19.75 51.13 18.72 45.48 17.69 39.82 16.69 34.15 15.72 28.44 15.511 27.208 15.301 25.992 15.091 24.783 14.895 25.992 14.698 27.208 14.5 28.44 13.58 34.15 12.65 39.83 11.7 45.48 10.76 51.13 9.72 56.44 8.58 61.42L-5.46 120.89H-32.48L-.03 0Z" fill="#ffffff"/>
<path transform="matrix(1,0,0,-1,897.42,800.6598)" d="M0 0H24.42V57.68C24.42 64.77 23.13 70.87 20.53 75.98 17.94 81.09 14.3 85.01 9.62 87.74 4.94 90.47-.54 91.84-6.81 91.84-14.49 91.84-20.75 89.77-25.59 85.63-29.257 82.493-32.215 78.364-34.47 73.257V120.88H-58.32V-.01H-33.98V52.48L-34 52.5C-34 56.55-33.26 59.99-31.77 62.8-30.28 65.61-28.2 67.76-25.52 69.25-22.84 70.74-19.8 71.48-16.39 71.48-11.25 71.48-7.23 69.88-4.34 66.69-1.45 63.5 0 59.09 0 53.47Z" fill="#ffffff"/>
<path transform="matrix(1,0,0,-1,962.965,746.3999)" d="M0 0C.278 3.067 .99 5.864 2.135 8.39 3.645 11.72 5.875 14.35 8.825 16.3 11.775 18.25 15.405 19.22 19.575 19.22 23.745 19.22 27.245 18.26 30.085 16.34 32.925 14.42 35.065 11.72 36.495 8.23 37.497 5.786 38.142 3.04 38.443 0ZM61.925-8.43C61.925-.64 60.825 6.12 58.635 11.85 56.445 17.58 53.405 22.36 49.505 26.17 45.605 29.98 41.095 32.84 35.955 34.73 30.815 36.62 25.275 37.57 19.325 37.57 10.505 37.57 2.825 35.6-3.715 31.65-10.255 27.7-15.315 22.21-18.885 15.18-22.455 8.15-24.235 .18-24.235-9.4-24.235-18.98-22.435-27.25-18.835-34.23-15.235-41.2-10.085-46.58-3.375-50.37 3.325-54.16 11.305-56.05 20.555-56.05L20.545-56.06C27.625-56.06 33.885-55.03 39.325-52.98 44.765-50.93 49.295-48.02 52.915-44.26 56.545-40.5 59.085-36.14 60.545-31.16L38.475-27.02C37.615-29.34 36.355-31.31 34.705-32.9 33.055-34.5 31.075-35.7 28.745-36.51 26.415-37.32 23.825-37.73 20.955-37.73 16.745-37.73 13.045-36.84 9.885-35.05 6.725-33.27 4.265-30.59 2.505-27.02 .91-23.785 .046-19.862-.104-15.25H61.925Z" fill="#ffffff"/>
<path transform="matrix(1,0,0,-1,1041.53,709.9598)" d="M0 0V-90.71-90.7H24.34V-39.1C24.34-35.31 25.16-32 26.81-29.16 28.46-26.32 30.77-24.11 33.75-22.51 36.72-20.92 40.05-20.12 43.73-20.12 45.57-20.12 47.51-20.23 49.57-20.44 51.63-20.65 53.2-20.95 54.28-21.33V.41C53.2 .68 51.93 .88 50.47 1.02 49.01 1.15 47.65 1.22 46.41 1.22 41.32 1.22 36.82-.21 32.9-3.08 28.98-5.95 26.18-10.2 24.5-15.82H23.53V0Z" fill="#ffffff"/>
<path transform="matrix(1,0,0,-1,1127.7001,738.0099)" d="M0 0C1.51 3.33 3.74 5.96 6.69 7.91 9.64 9.86 13.27 10.83 17.44 10.83 21.61 10.83 25.11 9.87 27.95 7.95 30.79 6.03 32.93 3.33 34.36-.16 35.362-2.604 36.007-5.35 36.308-8.39H-2.135C-1.857-5.323-1.145-2.526 0 0M18.41-64.45C25.49-64.45 31.75-63.42 37.19-61.37 42.63-59.32 47.16-56.41 50.78-52.65 54.41-48.89 56.95-44.53 58.41-39.55L36.34-35.41C35.48-37.73 34.22-39.7 32.57-41.29 30.92-42.89 28.94-44.09 26.61-44.9 24.28-45.71 21.69-46.12 18.82-46.12 14.61-46.12 10.91-45.23 7.75-43.44 4.59-41.66 2.13-38.98 .37-35.41-1.225-32.175-2.089-28.252-2.239-23.64H59.79V-16.82C59.79-9.03 58.69-2.27 56.5 3.46 54.31 9.19 51.26 13.97 47.37 17.78 43.48 21.59 38.96 24.45 33.82 26.34 28.68 28.23 23.14 29.18 17.19 29.18 8.37 29.18 .69 27.21-5.85 23.26-12.39 19.31-17.45 13.82-21.02 6.79-24.59-.24-26.37-8.21-26.37-17.79-26.37-27.37-24.58-35.64-20.98-42.62-17.38-49.59-12.23-54.97-5.52-58.76 1.18-62.55 9.16-64.44 18.41-64.44Z" fill="#ffffff"/>
<path transform="matrix(1,0,0,-1,1279.5795,753.2098)" d="M0 0 3.481 10.88C5.691 18.23 7.921 26.42 10.171 35.42 11.623 41.255 13.152 47.446 14.756 53.979 16.414 47.503 18.023 41.365 19.581 35.58 21.991 26.62 24.351 18.39 26.681 10.87L30.294 0ZM-1.229 73.43-42.529-47.46-42.519-47.45H-15.179L-6.203-19.39H36.74L46.071-47.46H73.571L31.221 73.43Z" fill="#ffffff"/>
<path transform="matrix(1,0,0,-1,0,995.6)" d="M1392.83 315.82H1368.08V194.93001H1392.83Z" fill="#ffffff"/>
<path transform="matrix(1,0,0,-1,1478.83,780.2998)" d="M0 0V.01 32.79H22.07C26.23 32.79 29.83 32.05 32.86 30.56 35.89 29.07 38.23 27.01 39.88 24.39 41.52 21.76 42.35 18.75 42.35 15.34 42.35 10.74 40.67 7.03 37.32 4.22 33.97 1.41 28.67 0 21.42 0ZM-.02 80.33H20.02C25.81 80.33 30.26 78.95 33.37 76.19 36.48 73.43 38.04 69.86 38.04 65.48 38.04 62.23 37.24 59.43 35.65 57.08 34.06 54.72 31.85 52.91 29.04 51.64 26.23 50.37 23.07 49.73 19.55 49.73H0L-.02 49.74ZM49.19-16.03C55.33-13.13 59.97-9.17 63.11-4.14 66.25 .89 67.82 6.6 67.82 12.98 67.82 18.93 66.57 24.06 64.05 28.36 61.53 32.66 58.26 36.01 54.23 38.42 50.2 40.82 45.91 42.11 41.37 42.27V43.49C45.54 44.47 49.26 46.08 52.53 48.32 55.8 50.56 58.39 53.46 60.28 57 62.17 60.54 63.12 64.69 63.12 69.45 63.12 75.5 61.65 80.86 58.7 85.51 55.75 90.16 51.31 93.82 45.39 96.5 39.47 99.18 32.07 100.52 23.2 100.52H-24.75V-20.37H26.27C35.41-20.37 43.05-18.93 49.19-16.03" fill="#ffffff"/>
<path transform="matrix(1,0,0,-1,1583.8753,746.3999)" d="M0 0C.278 3.067 .99 5.864 2.135 8.39 3.645 11.72 5.875 14.35 8.825 16.3 11.775 18.25 15.405 19.22 19.575 19.22 23.745 19.22 27.245 18.26 30.085 16.34 32.925 14.42 35.065 11.72 36.495 8.23 37.496 5.786 38.142 3.04 38.443 0ZM49.505 26.17C45.615 29.98 41.095 32.84 35.955 34.73 30.815 36.62 25.275 37.57 19.325 37.57 10.515 37.57 2.825 35.6-3.715 31.65-10.255 27.7-15.315 22.21-18.885 15.18-22.455 8.15-24.245 .18-24.245-9.4-24.245-18.98-22.445-27.25-18.845-34.23-15.245-41.2-10.095-46.58-3.385-50.37 3.315-54.16 11.295-56.05 20.545-56.05L20.555-56.06C27.635-56.06 33.895-55.03 39.335-52.98 44.775-50.93 49.305-48.02 52.925-44.26 56.555-40.5 59.095-36.14 60.555-31.16L38.485-27.02C37.625-29.34 36.365-31.31 34.715-32.9 33.065-34.5 31.085-35.7 28.755-36.51 26.425-37.32 23.835-37.73 20.965-37.73 16.745-37.73 13.045-36.84 9.885-35.05 6.725-33.27 4.265-30.59 2.505-27.02 .91-23.785 .046-19.862-.104-15.25H61.925V-8.43C61.925-.64 60.825 6.12 58.635 11.85 56.445 17.58 53.395 22.36 49.505 26.17" fill="#ffffff"/>
<path transform="matrix(1,0,0,-1,0,995.6)" d="M1686.77 315.82H1662.43V194.93001H1686.77Z" fill="#ffffff"/>
<path transform="matrix(1,0,0,-1,1765.46,769.7998)" d="M0 0C-1.46-4.19-3.65-7.49-6.57-9.9-9.49-12.31-13.11-13.51-17.44-13.51-21.77-13.51-25.38-12.31-28.27-9.9-31.16-7.49-33.34-4.19-34.8 0-36.26 4.19-36.99 8.8-36.99 14.16-36.99 19.52-36.26 24.27-34.8 28.44-33.34 32.61-31.16 35.88-28.27 38.26-25.38 40.64-21.77 41.83-17.44 41.83-13.11 41.83-9.49 40.64-6.57 38.26-3.65 35.88-1.46 32.6 0 28.44 1.46 24.27 2.19 19.41 2.19 14.16 2.19 8.91 1.46 4.19 0 0M21.54-10.38C25.14-3.38 26.94 4.67 26.94 14.08 26.94 23.49 25.14 31.7 21.54 38.7 17.95 45.71 12.83 51.17 6.21 55.09-.42 59.01-8.35 60.97-17.44 60.97-26.53 60.97-34.4 59.01-41.05 55.09-47.71 51.17-52.83 45.7-56.43 38.7-60.03 31.7-61.83 23.38-61.83 14.08-61.83 4.78-60.03-3.38-56.43-10.38-52.83-17.39-47.7-22.85-41.05-26.77-34.4-30.69-26.53-32.65-17.44-32.65-8.3-32.65-.42-30.69 6.21-26.77 12.83-22.85 17.94-17.38 21.54-10.38" fill="#ffffff"/>
<path transform="matrix(1,0,0,-1,1867.6901,747.18978)" d="M0 0V-53.47H24.34V4.21C24.34 11.3 23.06 17.4 20.49 22.51 17.92 27.62 14.3 31.54 9.62 34.27 4.94 37-.54 38.37-6.81 38.37-14.49 38.37-20.75 36.3-25.59 32.16-29.575 28.751-32.712 24.157-35.029 18.422L-35.37 37.23H-58.33V-53.48H-33.99V-.99L-34-.97C-34 3.08-33.26 6.52-31.77 9.33-30.28 12.14-28.2 14.29-25.52 15.78-22.84 17.27-19.8 18.01-16.39 18.01-11.25 18.01-7.23 16.41-4.34 13.22-1.45 10.03 0 5.62 0 0" fill="#ffffff"/>
<path transform="matrix(1,0,0,-1,1970.73,768.9098)" d="M0 0C-1.51-3.86-3.72-6.83-6.61-8.88-9.51-10.93-13.04-11.96-17.2-11.96-21.42-11.96-24.99-10.91-27.91-8.8-30.83-6.69-33.03-3.7-34.52 .17-36.01 4.04-36.75 8.73-36.75 13.92-36.75 19.11-36.01 23.71-34.52 27.71-33.03 31.71-30.84 34.86-27.95 37.16-25.06 39.46-21.37 40.61-17.2 40.61-13.03 40.61-9.5 39.5-6.61 37.28-3.72 35.06-1.51 31.95 0 27.95 1.51 23.94 2.27 19.32 2.27 13.91 2.27 8.5 1.51 3.87 0 0M2.35 43.68H1.3C.21 46.06-1.39 48.53-3.53 51.1-5.67 53.67-8.47 55.81-11.93 57.51-15.39 59.22-19.67 60.07-24.75 60.07-31.46 60.07-37.61 58.34-43.21 54.88-48.81 51.41-53.3 46.25-56.68 39.38-60.06 32.51-61.75 23.75-61.75 13.74-61.75 3.73-60.09-4.55-56.76-11.09-53.43-17.63-48.98-22.5-43.41-25.69-37.84-28.89-31.65-30.48-24.83-30.48-19.91-30.48-15.79-29.76-12.46-28.33-9.14-26.9-6.45-25.04-4.39-22.77-2.33-20.5-.76-18.14 .32-15.71H2.19V-32.42C2.19-38.42 .42-42.84-3.12-45.68-6.66-48.52-11.54-49.94-17.76-49.94-21.66-49.94-24.93-49.43-27.58-48.4-30.23-47.37-32.35-46.06-33.95-44.46-35.55-42.86-36.72-41.23-37.48-39.55L-58.41-45.39C-57.06-49.66-54.63-53.48-51.11-56.83-47.6-60.18-43.03-62.82-37.4-64.74-31.77-66.66-25.17-67.62-17.6-67.62L-17.62-67.64C-9.07-67.64-1.5-66.28 5.1-63.58 11.7-60.87 16.88-56.82 20.64-51.41 24.4-46 26.28-39.22 26.28-31.05V58.93H2.35Z" fill="#ffffff"/>
<path transform="matrix(1,0,0,-1,2065.54,781.9698)" d="M0 0C-2.67-1.76-6.34-2.64-10.99-2.64-15.97-2.64-19.94-1.58-22.92 .53-25.9 2.64-27.98 5.8-29.17 10.02L-51.81 6.13C-50.78 .51-48.48-4.29-44.91-8.27-41.34-12.25-36.75-15.28-31.12-17.36-25.5-19.44-19.03-20.48-11.73-20.48L-11.69-20.47C-3.74-20.47 3.28-19.23 9.36-16.74 15.44-14.26 20.22-10.78 23.68-6.32 27.14-1.86 28.87 3.35 28.87 9.3 28.87 15.79 26.73 21.05 22.46 25.08 18.19 29.11 11.67 32.01 2.91 33.8L-13.4 37.05C-17.68 37.91-20.69 39.13-22.45 40.7-24.21 42.27-25.09 44.19-25.09 46.46-25.09 49.27-23.74 51.51-21.03 53.19-18.33 54.87-14.97 55.71-10.97 55.71-6.53 55.71-3 54.72-.38 52.75 2.24 50.77 4.01 48.24 4.93 45.16L26.51 48.97C25.43 53.89 23.27 58.17 20.02 61.79 16.77 65.42 12.53 68.22 7.28 70.19 2.03 72.16-4.16 73.15-11.3 73.15-18.98 73.15-25.66 72.01-31.34 69.74-37.02 67.46-41.46 64.23-44.65 60.04-47.84 55.85-49.44 50.83-49.44 44.99-49.44 38.23-47.28 32.7-42.95 28.4-38.63 24.1-32.08 21.06-23.32 19.27L-7.66 16.02C-3.71 15.21-.78 14.04 1.14 12.53 3.06 11.02 4.02 9.07 4.02 6.69 4.02 3.99 2.68 1.76 0 0" fill="#ffffff"/>
<path transform="matrix(1,0,0,-1,744.66,921.7599)" d="M0 0H-52.65V48.84H-77.4V-72.05H-52.65V-20.53H0V-72.05H24.83V48.84H0Z" fill="#61c1c4"/>
<path transform="matrix(1,0,0,-1,849.1701,955.60989)" d="M0 0C0-4-.74-7.42-2.23-10.26-3.72-13.1-5.79-15.26-8.44-16.75-11.09-18.24-14.15-18.98-17.61-18.98-22.7-18.98-26.7-17.38-29.62-14.19-32.54-11-34-6.6-34-.97V52.5H-58.34V-5.18C-58.34-12.27-57.06-18.37-54.49-23.48-51.92-28.59-48.29-32.51-43.58-35.24-38.87-37.97-33.38-39.34-27.11-39.34L-27.09-39.36C-19.57-39.36-13.37-37.3-8.47-33.19-4.406-29.774-1.219-25.125 1.112-19.278L1.38-38.22H24.42V52.49H0Z" fill="#61c1c4"/>
<path transform="matrix(1,0,0,-1,1011.04,905.3699)" d="M0 0C-4.36 2.43-9.32 3.65-14.89 3.65-19.48 3.65-23.88 2.74-28.07 .93-32.26-.89-35.89-3.67-38.94-7.43-41.044-10.024-42.739-13.111-44.037-16.671-45.883-10.56-48.382-5.839-51.55-2.56-55.55 1.58-60.83 3.65-67.37 3.65-71.42 3.65-75.29 2.82-78.97 1.14-82.64-.54-85.85-3.13-88.58-6.65-90.456-9.069-92.013-11.982-93.266-15.368L-94.22 2.27H-116.77V-88.44L-116.81-88.45H-92.47V-33.6C-92.47-29.97-91.81-26.9-90.48-24.39-89.15-21.88-87.34-19.97-85.04-18.67-82.74-17.37-80.16-16.72-77.29-16.72-73.13-16.72-69.73-18.03-67.11-20.65-64.48-23.28-63.17-26.81-63.17-31.24V-88.44H-39.64V-32.62C-39.64-29.43-39.03-26.64-37.81-24.26-36.6-21.88-34.87-20.03-32.62-18.7-30.38-17.37-27.74-16.71-24.71-16.71-20.66-16.71-17.24-17.95-14.45-20.44-11.66-22.93-10.27-26.74-10.27-31.88V-88.43H14.07V-27.26C14.07-20.67 12.82-15.08 10.3-10.51 7.79-5.94 4.35-2.43 0 0" fill="#61c1c4"/>
<path transform="matrix(1,0,0,-1,1097.42,961.3598)" d="M0 0C0-3.19-.81-6.08-2.43-8.68-4.05-11.28-6.31-13.34-9.2-14.85-12.09-16.36-15.46-17.12-19.3-17.12V-17.11C-21.95-17.11-24.3-16.7-26.36-15.89-28.42-15.08-30.04-13.88-31.23-12.28-32.43-10.69-33.02-8.73-33.02-6.4-33.02-3.92-32.39-1.88-31.15-.28-29.91 1.31-28.15 2.6-25.88 3.57-23.61 4.54-20.99 5.25-18.01 5.68-16.66 5.84-15.12 6.06-13.39 6.33-11.66 6.6-9.9 6.9-8.12 7.22-6.33 7.55-4.71 7.93-3.25 8.36-1.78 8.79-.7 9.28 0 9.82ZM12.3 52.27C8.65 54.71 4.53 56.51-.07 57.67-4.67 58.83-9.4 59.41-14.27 59.41-21.03 59.41-27.1 58.44-32.48 56.49-37.86 54.54-42.37 51.73-45.99 48.05-49.62 44.37-52.21 39.88-53.78 34.58L-31.47 30.93C-30.76 32.87-29.68 34.63-28.22 36.2-26.76 37.76-24.87 39.02-22.54 39.97-20.22 40.92-17.38 41.39-14.35 41.39-11.32 41.39-8.74 40.92-6.6 39.97-4.46 39.02-2.85 37.66-1.77 35.87-.69 34.09-.15 31.9-.15 29.3V28.89C-.15 26.94-.89 25.47-2.38 24.47-3.87 23.47-6.22 22.74-9.44 22.28-12.66 21.82-16.89 21.32-22.14 20.78-26.63 20.35-30.92 19.59-35 18.51-39.08 17.42-42.73 15.85-45.95 13.8-49.17 11.74-51.71 9.01-53.58 5.6-55.45 2.19-56.38-2.03-56.38-7.06-56.38-13.06-55.07-18.08-52.45-22.11-49.83-26.14-46.23-29.17-41.66-31.2-37.09-33.23-31.93-34.24-26.2-34.24V-34.21C-21.71-34.21-17.75-33.58-14.31-32.34-10.88-31.1-7.94-29.41-5.51-27.27-3.08-25.14-1.13-22.66 .33-19.85H1.14V-32.43H24.18V28.66C24.18 34.13 23.12 38.82 20.98 42.74 18.84 46.66 15.95 49.84 12.3 52.27" fill="#61c1c4"/>
<path transform="matrix(1,0,0,-1,1210.31,906.05978)" d="M0 0C-4.68 2.73-10.16 4.1-16.43 4.1-24.11 4.1-30.37 2.03-35.21-2.11-39.194-5.518-42.331-10.111-44.648-15.844L-44.98 2.96H-67.94V-87.75H-43.6V-35.26L-43.62-35.24C-43.62-31.19-42.88-27.75-41.39-24.94-39.9-22.13-37.82-19.98-35.14-18.49-32.46-17-29.42-16.26-26.01-16.26-20.87-16.26-16.85-17.86-13.96-21.05-11.07-24.24-9.62-28.65-9.62-34.27V-87.74H14.72V-30.05C14.72-22.97 13.44-16.87 10.87-11.76 8.3-6.65 4.68-2.73 0 0" fill="#61c1c4"/>
<path transform="matrix(1,0,0,-1,1296.48,941.2997)" d="M0 0-16.31 3.25C-20.59 4.11-23.6 5.33-25.36 6.9-27.12 8.47-28 10.39-28 12.66-28 15.47-26.65 17.71-23.94 19.39-21.24 21.06-17.88 21.9-13.88 21.9-9.44 21.9-5.91 20.91-3.29 18.94-.67 16.96 1.1 14.43 2.02 11.35L23.6 15.16C22.52 20.08 20.36 24.36 17.11 27.98 13.86 31.61 9.62 34.4 4.37 36.38-.88 38.35-7.07 39.34-14.21 39.34-21.89 39.34-28.57 38.2-34.25 35.93-39.93 33.65-44.37 30.42-47.56 26.23-50.75 22.04-52.35 17.02-52.35 11.18-52.35 4.42-50.19-1.11-45.86-5.41-41.54-9.71-34.99-12.75-26.23-14.54L-10.57-17.79C-6.62-18.6-3.69-19.77-1.77-21.28 .15-22.79 1.11-24.74 1.11-27.12 1.11-29.82-.23-32.05-2.91-33.81-5.58-35.57-9.25-36.45-13.9-36.45-18.88-36.45-22.85-35.4-25.83-33.29-28.81-31.18-30.89-28.02-32.08-23.8L-54.72-27.69C-53.69-33.31-51.39-38.11-47.82-42.09-44.25-46.07-39.66-49.1-34.03-51.18-28.41-53.26-21.94-54.3-14.64-54.3L-14.6-54.28C-6.65-54.28 .37-53.04 6.45-50.55 12.53-48.06 17.31-44.58 20.77-40.12 24.23-35.66 25.96-30.45 25.96-24.5 25.96-18.01 23.82-12.75 19.55-8.72 15.28-4.69 8.76-1.79 0 0" fill="#61c1c4"/>
<path transform="matrix(1,0,0,-1,1472.8301,936.6098)" d="M0 0C-1.41-6.17-2.85-12.78-4.34-19.84-5.344-24.598-6.302-29.664-7.219-35.022-8.255-29.624-9.342-24.531-10.47-19.76-12.14-12.7-13.66-6.11-15.01 0L-23.12 33.51H-45.51L-53.79 0C-55.25-6.12-56.83-12.73-58.5-19.84-59.615-24.589-60.671-29.616-61.671-34.909-62.606-29.466-63.6-24.355-64.66-19.59-66.23-12.54-67.69-6-69.04 0L-76.91 33.51H-102.47L-75.7-57.2H-50.96L-40.9-22.23C-39.93-18.77-38.95-14.9-37.98-10.63-37.01-6.36-36.05-2.02-35.1 2.39-34.873 3.442-34.648 4.475-34.424 5.494-34.201 4.475-33.979 3.442-33.76 2.39-32.84-2.02-31.89-6.35-30.92-10.59-29.95-14.83-28.97-18.71-28-22.23L-17.94-57.2H6.81L33.75 33.51H7.87Z" fill="#61c1c4"/>
<path transform="matrix(1,0,0,-1,1397.13,993.80978)" d="M0 0V0H-.01Z" fill="#61c1c4"/>
<path transform="matrix(1,0,0,-1,1537.6353,939.53988)" d="M0 0C.278 3.067 .99 5.864 2.135 8.39 3.645 11.72 5.875 14.35 8.825 16.3 11.775 18.25 15.405 19.22 19.575 19.22 23.745 19.22 27.245 18.26 30.085 16.34 32.925 14.42 35.065 11.72 36.495 8.23 37.496 5.786 38.142 3.04 38.443 0ZM49.505 26.17C45.615 29.98 41.095 32.84 35.955 34.73 30.815 36.62 25.275 37.57 19.325 37.57 10.515 37.57 2.825 35.6-3.715 31.65-10.255 27.7-15.315 22.21-18.885 15.18-22.455 8.15-24.245 .18-24.245-9.4-24.245-18.98-22.445-27.25-18.845-34.23-15.245-41.21-10.095-46.59-3.385-50.38 3.315-54.17 11.295-56.06 20.545-56.06H20.555C27.635-56.06 33.895-55.04 39.335-52.98 44.775-50.93 49.305-48.02 52.925-44.26 56.555-40.5 59.095-36.14 60.555-31.16L38.485-27.02C37.625-29.34 36.365-31.31 34.715-32.9 33.065-34.5 31.085-35.7 28.755-36.51 26.425-37.32 23.835-37.73 20.965-37.73 16.745-37.73 13.045-36.83 9.885-35.05 6.725-33.27 4.265-30.59 2.505-27.02 .91-23.794 .046-19.864-.104-15.25H61.925V-8.43C61.925-.64 60.825 6.12 58.635 11.85 56.445 17.58 53.395 22.36 49.505 26.17" fill="#61c1c4"/>
<path transform="matrix(1,0,0,-1,0,995.6)" d="M1616.19 1.78H1640.5299V122.67H1616.19Z" fill="#61c1c4"/>
<path transform="matrix(1,0,0,-1,1717.4401,967.21987)" d="M0 0C-1.02-1.95-2.3-3.61-3.81-4.99-5.32-6.36-7.05-7.42-9-8.15-10.95-8.88-13.08-9.25-15.41-9.25-19.74-9.25-23.37-8.06-26.32-5.68-29.27-3.3-31.48-.03-32.97 4.14-34.46 8.31-35.2 12.96-35.2 18.42-35.2 23.88-34.46 28.69-32.97 32.86-31.49 37.03-29.27 40.27-26.32 42.6-23.37 44.93-19.74 46.09-15.41 46.09-13.08 46.09-10.96 45.74-9.04 45.04-7.12 44.34-5.43 43.32-3.97 42-2.51 40.67-1.27 39.08-.24 37.21 .78 35.34 1.54 33.22 2.03 30.84L24.67 35.06C23.8 39.72 22.23 43.91 19.96 47.64 17.69 51.37 14.8 54.53 11.28 57.13 7.76 59.72 3.73 61.72-.81 63.13-5.36 64.54-10.31 65.24-15.66 65.24-24.8 65.24-32.69 63.28-39.31 59.36-45.93 55.44-51.04 49.97-54.64 42.97-58.24 35.97-60.04 27.65-60.04 18.35-60.04 9.05-58.24 .89-54.64-6.11-51.05-13.12-45.94-18.58-39.31-22.5-32.69-26.42-24.8-28.38-15.66-28.38V-28.41C-10.25-28.41-5.26-27.71-.69-26.3 3.88-24.89 7.92-22.84 11.44-20.13 14.95-17.42 17.85-14.19 20.12-10.43 22.4-6.67 23.96-2.39 24.83 2.43L2.19 6.57C1.76 4.14 1.03 1.95 0 0" fill="#61c1c4"/>
<path transform="matrix(1,0,0,-1,1816.98,962.93978)" d="M0 0C-1.46-4.19-3.65-7.49-6.57-9.9-9.49-12.31-13.11-13.51-17.44-13.51-21.77-13.51-25.38-12.31-28.27-9.9-31.16-7.49-33.34-4.19-34.8 0-36.26 4.19-36.99 8.8-36.99 14.16-36.99 19.52-36.26 24.27-34.8 28.44-33.34 32.61-31.16 35.88-28.27 38.26-25.38 40.64-21.77 41.83-17.44 41.83-13.11 41.83-9.49 40.64-6.57 38.26-3.65 35.88-1.46 32.61 0 28.44 1.46 24.27 2.19 19.41 2.19 14.16 2.19 8.91 1.46 4.19 0 0M6.21 55.08C-.42 59-8.35 60.96-17.44 60.96-26.53 60.96-34.4 59-41.05 55.08-47.71 51.16-52.83 45.69-56.43 38.69-60.03 31.69-61.83 23.37-61.83 14.07-61.83 4.77-60.03-3.39-56.43-10.39-52.83-17.4-47.7-22.86-41.05-26.78-34.4-30.7-26.53-32.66-17.44-32.66-8.3-32.66-.42-30.7 6.21-26.78 12.83-22.86 17.94-17.4 21.54-10.39 25.14-3.39 26.94 4.66 26.94 14.07 26.94 23.48 25.14 31.68 21.54 38.69 17.95 45.7 12.83 51.16 6.21 55.08" fill="#61c1c4"/>
<path transform="matrix(1,0,0,-1,1977.6599,905.3699)" d="M0 0C-4.36 2.43-9.32 3.65-14.89 3.65-19.48 3.65-23.88 2.74-28.07 .93-32.26-.89-35.89-3.67-38.94-7.43-41.044-10.024-42.739-13.111-44.037-16.671-45.883-10.56-48.382-5.839-51.55-2.56-55.55 1.58-60.83 3.65-67.37 3.65-71.43 3.65-75.29 2.82-78.97 1.14-82.64-.54-85.85-3.13-88.58-6.65-90.467-9.074-92.023-11.993-93.275-15.387L-94.23 2.27H-116.78V-88.44L-116.81-88.45H-92.47V-33.6C-92.47-29.97-91.81-26.9-90.48-24.39-89.15-21.88-87.34-19.97-85.04-18.67-82.74-17.37-80.16-16.72-77.29-16.72-73.13-16.72-69.73-18.03-67.11-20.65-64.48-23.28-63.17-26.81-63.17-31.24V-88.44H-39.64V-32.62C-39.64-29.43-39.03-26.64-37.81-24.26-36.6-21.88-34.87-20.03-32.62-18.7-30.38-17.37-27.74-16.71-24.71-16.71-20.66-16.71-17.24-17.95-14.45-20.44-11.66-22.93-10.27-26.74-10.27-31.88V-88.43H14.07V-27.26C14.07-20.67 12.81-15.08 10.3-10.51 7.79-5.94 4.35-2.43 0 0" fill="#61c1c4"/>
<path transform="matrix(1,0,0,-1,2032.9448,939.53988)" d="M0 0C.278 3.067 .99 5.864 2.135 8.39 3.645 11.72 5.875 14.35 8.825 16.3 11.775 18.25 15.405 19.22 19.575 19.22 23.745 19.22 27.245 18.26 30.085 16.34 32.925 14.42 35.065 11.72 36.495 8.23 37.496 5.786 38.142 3.04 38.443 0ZM49.505 26.17C45.615 29.98 41.095 32.84 35.955 34.73 30.815 36.62 25.275 37.57 19.325 37.57 10.515 37.57 2.825 35.6-3.715 31.65-10.255 27.7-15.315 22.21-18.885 15.18-22.455 8.15-24.245 .18-24.245-9.4-24.245-18.98-22.445-27.25-18.845-34.23-15.245-41.21-10.095-46.59-3.385-50.38 3.315-54.17 11.295-56.06 20.545-56.06H20.555C27.635-56.06 33.895-55.04 39.335-52.98 44.775-50.93 49.305-48.02 52.925-44.26 56.555-40.5 59.095-36.14 60.555-31.16L38.485-27.02C37.625-29.34 36.365-31.31 34.715-32.9 33.065-34.5 31.085-35.7 28.755-36.51 26.425-37.32 23.835-37.73 20.965-37.73 16.745-37.73 13.045-36.83 9.885-35.05 6.725-33.27 4.265-30.59 2.505-27.02 .91-23.794 .046-19.864-.104-15.25H61.925V-8.43C61.925-.64 60.825 6.12 58.635 11.85 56.445 17.58 53.395 22.36 49.505 26.17" fill="#61c1c4"/>
</g>
</g>
</svg>
